<?xml version="1.0" encoding="UTF-8" standalone="no"?>
<!-- Created with Inkscape (http://www.inkscape.org/) -->

<svg
   width="52.334728mm"
   height="62.189877mm"
   viewBox="0 0 197.80055 235.04836"
   version="1.1"
   id="svg5"
   xmlns="http://www.w3.org/2000/svg"
   xmlns:svg="http://www.w3.org/2000/svg">
  <defs
     id="defs2">
    <clipPath
       clipPathUnits="userSpaceOnUse"
       id="clipPath846">
      <path
         d="m 6126.52,576.512 c -59.38,-61.024 -152.19,-100.34 -256.58,-100.34 -104.39,0 -197.21,39.316 -256.58,100.34 C 5458.38,533.359 5077.34,457.281 5125.11,0 h 731.04 27.57 731.04 c 47.78,457.281 -333.27,533.359 -488.24,576.512"
         id="path844" />
    </clipPath>
    <clipPath
       clipPathUnits="userSpaceOnUse"
       id="clipPath1014">
      <path
         d="m 4376.88,594.449 c -33.69,18.082 -50.83,62.852 -59.21,111.063 -46.93,-10.481 -97.76,-16.25 -150.88,-16.25 -52.06,0 -101.94,5.519 -148.1,15.597 -8.42,-47.961 -25.56,-92.41 -59.1,-110.41 C 3872.12,547.52 3355.22,524.059 3410.88,0 h 743.34 28.04 743.33 c 55.67,524.059 -461.23,547.52 -548.71,594.449"
         id="path1012" />
    </clipPath>
  </defs>
  <g
     id="layer1"
     transform="translate(-296.84907,-453.15723)">
    <g
       id="g832"
       transform="matrix(0.1333333,0,0,-0.13333333,-7.1594478,676.05763)">
      <g
         id="g1911"
         transform="translate(2248.3644,-91.109658)">
        <path
           d="m 1193.72,1506.15 c 0,0 26.67,-190 106.67,-316.66 115.37,-182.67 -33.34,-206.67 -3.34,-333.342 30,-126.66 260,-233.328 -13.33,-523.328 -178.89,-189.8 -393.333,180 -393.333,180 l -60,483.328 363.333,510.002"
           style="fill:#f2515a;fill-opacity:1;fill-rule:nonzero;stroke:none"
           id="path1114" />
        <path
           d="m 1105.46,1197.02 c -28.86,21.62 -56.91,43.96 -84.33,66.87 l -190.743,-236.4 60,-426.752 c 0,0 53.082,-80.789 128.443,-141.367 19.57,21.68 65.58,-78.883 91.56,-69.883 86.66,30 243.33,196.66 130,323.332 -135.37,151.289 26.66,323.33 -134.93,484.2"
           style="fill:#f1424f;fill-opacity:1;fill-rule:nonzero;stroke:none"
           id="path1116" />
        <path
           d="m 972.434,586.031 c -84.825,46.258 -61.692,269.91 -61.692,269.91 L 783.715,847.75 v 8.16 l -13.594,-4.078 -13.594,4.078 v -8.16 l -127.031,8.191 c 0,0 23.133,-223.652 -61.687,-269.91 C 482.988,539.762 -18.2227,516.629 35.7578,0 h 720.7692 27.188 720.775 c 53.97,516.629 -447.24,539.762 -532.056,586.031"
           style="fill:#f6826f;fill-opacity:1;fill-rule:nonzero;stroke:none"
           id="path1118" />
        <path
           d="m 611.688,643.719 c 101.468,15.121 202.863,30.73 304.195,46.812 -14.258,77.11 -5.141,165.41 -5.141,165.41 L 783.715,847.75 v 8.16 l -13.598,-4.078 -13.59,4.078 v -8.16 l -127.031,8.191 c 0,0 13.391,-129.953 -17.808,-212.222"
           style="fill:#d86c5c;fill-opacity:1;fill-rule:nonzero;stroke:none"
           id="path1120" />
        <path
           d="m 1091.02,202.82 c -22.54,113.09 -17.2,233.258 10.28,344.09 -21.46,6.231 -41.49,11.539 -59.32,16.352 -8.09,-93.364 -19.04,-188.16 -54.171,-272.274 -13.532,-32.386 -29.86,-61.539 -48.762,-88.168 h 151.973"
           style="fill:#29202e;fill-opacity:1;fill-rule:nonzero;stroke:none"
           id="path1122" />
        <path
           d="M 1245.39,498.289 C 1161.52,383.531 981.75,304.191 773.453,304.191 c -208.297,0 -388.066,79.34 -471.937,194.098 C 152.262,427.91 5.16797,292.941 35.7734,0 h 724.0236 27.312 724.021 c 30.61,292.941 -116.48,427.91 -265.74,498.289"
           style="fill:#458582;fill-opacity:1;fill-rule:nonzero;stroke:none"
           id="path1124" />
        <path
           d="m 735.387,136.148 c 296.273,0 555.583,85.692 698.253,213.821 -50.73,69.383 -119.24,115.781 -188.25,148.32 -83.87,-114.758 -263.64,-194.098 -471.937,-194.098 -208.297,0 -388.066,79.34 -471.937,194.098 C 220.008,459.852 139.219,402.078 87.5898,309.91 236.512,204.32 471.207,136.148 735.387,136.148"
           style="fill:#559e96;fill-opacity:1;fill-rule:nonzero;stroke:none"
           id="path1126" />
        <path
           d="m 521.754,1183.3 c -24.992,77.53 -84.172,59.58 -89.711,57.71 -5.813,-0.68 -66.98,-9.76 -56.414,-90.54 10.629,-81.25 57.777,-125.29 101.984,-112.35 45.496,7.21 69.282,67.18 44.141,145.18"
           style="fill:#d86c5c;fill-opacity:1;fill-rule:nonzero;stroke:none"
           id="path1128" />
        <path
           d="m 1020.77,1183.3 c 24.99,77.53 84.17,59.58 89.71,57.71 5.81,-0.68 66.98,-9.76 56.41,-90.54 -10.63,-81.25 -57.77,-125.29 -101.98,-112.35 -45.5,7.21 -69.281,67.18 -44.14,145.18"
           style="fill:#d86c5c;fill-opacity:1;fill-rule:nonzero;stroke:none"
           id="path1130" />
        <path
           d="m 461.121,1300.75 c 30.973,339.91 289.379,320.87 313.75,318.31 24.367,2.56 282.779,21.6 313.749,-318.31 C 1119.77,958.82 967.473,735.512 774.871,747.789 582.266,735.512 429.969,958.82 461.121,1300.75"
           style="fill:#f6826f;fill-opacity:1;fill-rule:nonzero;stroke:none"
           id="path1132" />
        <path
           d="m 588.719,1574.48 c 0,0 31.668,-258.33 288.336,-308.33 l -63.336,158.34 c 0,0 21.668,-191.67 276.671,-181.67 0,0 93.33,-43.33 60,-143.33 0,0 91.66,76.66 56.66,206.66 -35,130 46.67,138.34 -83.33,330 -114.66,169.05 -490.001,188.33 -535.001,-61.67"
           style="fill:#f2515a;fill-opacity:1;fill-rule:nonzero;stroke:none"
           id="path1134" />
        <path
           d="m 660.387,1629.48 c 0,0 -123.332,100 -216.668,-13.33 -93.332,-113.33 -70,-290 -156.664,-400 -86.668,-110 -73.336,-206.66 33.332,-310.002 106.668,-103.328 -300.0003,-200 -170,-456.66 130,-256.668 453.332,-120 476.668,83.332 23.332,203.328 10,246.668 10,246.668 0,0 -136.668,106.66 -160,276.662 -23.336,170 16.664,253.34 90,313.34 73.332,60 140,113.33 93.332,259.99"
           style="fill:#f2515a;fill-opacity:1;fill-rule:nonzero;stroke:none"
           id="path1136" />
        <path
           d="M 210.387,569.488 C 183.203,621.969 179.25,662.82 188.965,696.191 134.102,633.219 97.0273,554.84 150.387,449.488 c 130,-256.668 453.332,-120 476.668,83.332 0.515,4.508 0.996,8.84 1.476,13.2 C 526.219,465.191 310.727,375.738 210.387,569.488"
           style="fill:#f1424f;fill-opacity:1;fill-rule:nonzero;stroke:none"
           id="path1138" />
        <path
           d="m 819.426,1130.81 c 4.262,-7.85 7.554,-15.9 10.523,-24.02 2.942,-8.13 5.43,-16.35 7.653,-24.63 1.175,-4.13 2,-8.33 3.019,-12.49 1.043,-4.15 1.836,-8.36 2.594,-12.57 1.676,-8.39 2.855,-16.89 3.808,-25.43 l 0.446,-4 -2.168,-1.98 c -6.934,-6.35 -14.055,-12.52 -21.293,-18.57 -7.36,-5.94 -14.668,-11.921 -22.57,-17.339 5.125,8.098 10.839,15.619 16.511,23.179 5.789,7.46 11.696,14.8 17.789,21.95 l -1.718,-5.97 c -2.567,8.2 -4.899,16.46 -6.743,24.82 -0.996,4.16 -1.964,8.33 -2.675,12.55 -0.743,4.22 -1.672,8.4 -2.258,12.65 -1.289,8.47 -2.321,17 -2.891,25.62 -0.551,8.63 -0.769,17.33 -0.027,26.23"
           style="fill:#a9564b;fill-opacity:1;fill-rule:nonzero;stroke:none"
           id="path1140" />
        <path
           d="M 906.609,928.719 C 845.086,868.922 740.883,872.238 661.949,925.531"
           style="fill:#ffffff;fill-opacity:1;fill-rule:nonzero;stroke:none"
           id="path1142" />
        <path
           d="m 1018.56,1246.07 c 0,0 -2.69,1.49 -7.4,4.1 -2.29,1.25 -5.07,2.77 -8.25,4.51 -3.121,1.65 -6.644,3.52 -10.484,5.55 -3.973,1.7 -7.942,3.98 -12.383,5.72 -2.148,0.96 -4.359,1.95 -6.617,2.95 -2.281,0.83 -4.61,1.68 -6.977,2.54 -4.605,2.04 -9.621,2.79 -14.394,4.48 -4.957,0.51 -9.825,2.4 -14.774,2.2 l -7.371,0.61 c -2.426,-0.29 -4.851,-0.37 -7.277,-0.51 -4.922,0.21 -9.492,-1.62 -14.242,-2.21 -4.735,-0.75 -8.981,-3.04 -13.434,-4.21 l -3.281,-1.03 -2.996,-1.51 c -2.035,-0.95 -4,-1.87 -5.887,-2.75 -3.754,-1.86 -7.605,-3.21 -10.5,-5.22 -2.98,-1.88 -5.816,-3.34 -8.137,-4.62 -4.672,-2.53 -7.664,-3.85 -7.664,-3.85 0,0 1.184,2.84 3.817,7.6 1.332,2.37 2.929,5.32 5.039,8.52 1.863,3.45 4.812,6.59 8.16,9.99 3.461,3.26 6.578,7.75 11.48,10.59 4.778,2.93 9.512,6.89 15.45,9.09 2.933,1.19 5.992,2.25 9.097,3.34 3.059,1.31 6.348,1.87 9.719,2.25 3.348,0.47 6.738,0.99 10.156,1.3 3.403,-0.04 6.828,-0.28 10.254,-0.48 6.938,-0.14 13.344,-2.43 19.781,-4 3.082,-1.11 6.039,-2.45 8.961,-3.73 2.973,-1.19 5.77,-2.58 8.309,-4.28 2.601,-1.6 5.18,-3.1 7.594,-4.73 2.265,-1.79 4.48,-3.55 6.64,-5.25 4.375,-3.3 7.684,-7.35 11.001,-10.65 6.22,-7.1 10.51,-13.62 13.04,-18.49 2.63,-4.8 3.57,-7.82 3.57,-7.82"
           style="fill:#29202e;fill-opacity:1;fill-rule:nonzero;stroke:none"
           id="path1144" />
        <path
           d="m 696.672,1246.07 c 0,0 -2.692,1.49 -7.402,4.1 -2.29,1.25 -5.067,2.77 -8.25,4.51 -3.122,1.65 -6.641,3.52 -10.485,5.55 -3.972,1.7 -7.937,3.98 -12.379,5.72 -2.152,0.96 -4.359,1.95 -6.621,2.95 -2.277,0.83 -4.605,1.68 -6.976,2.54 -4.602,2.04 -9.618,2.79 -14.395,4.48 -4.957,0.51 -9.82,2.4 -14.773,2.2 l -7.368,0.61 c -2.425,-0.29 -4.851,-0.37 -7.277,-0.51 -4.926,0.21 -9.492,-1.62 -14.242,-2.21 -4.738,-0.75 -8.981,-3.04 -13.434,-4.21 l -3.285,-1.03 -2.992,-1.51 c -2.035,-0.95 -4,-1.87 -5.887,-2.75 -3.754,-1.86 -7.605,-3.21 -10.5,-5.22 -2.98,-1.88 -5.816,-3.34 -8.14,-4.62 -4.672,-2.53 -7.664,-3.85 -7.664,-3.85 0,0 1.183,2.84 3.82,7.6 1.332,2.37 2.93,5.32 5.035,8.52 1.863,3.45 4.816,6.59 8.16,9.99 3.461,3.26 6.578,7.75 11.485,10.59 4.777,2.93 9.511,6.89 15.445,9.09 2.933,1.19 5.996,2.25 9.101,3.34 3.055,1.31 6.348,1.87 9.715,2.25 3.348,0.47 6.742,0.99 10.157,1.3 3.406,-0.04 6.828,-0.28 10.253,-0.48 6.938,-0.14 13.348,-2.43 19.782,-4 3.082,-1.11 6.039,-2.45 8.961,-3.73 2.972,-1.19 5.769,-2.58 8.312,-4.28 2.598,-1.6 5.176,-3.1 7.594,-4.73 2.262,-1.79 4.48,-3.55 6.637,-5.25 4.375,-3.3 7.687,-7.35 11,-10.65 6.218,-7.1 10.507,-13.62 13.039,-18.49 2.632,-4.8 3.574,-7.82 3.574,-7.82"
           style="fill:#29202e;fill-opacity:1;fill-rule:nonzero;stroke:none"
           id="path1146" />
        <path
           d="m 686.461,1122.9 c 0,0 -0.699,2.76 -2.273,7.38 -1.571,4.61 -4.008,11.12 -7.817,18.24 -3.859,7.05 -9.254,14.73 -16.766,20.33 -3.707,2.83 -7.957,5.08 -12.562,6.49 -2.277,0.8 -4.59,1.54 -7.098,1.71 -2.453,0.33 -4.879,0.84 -7.453,0.59 -2.383,-0.1 -5.414,0.21 -7.265,-0.14 -2.594,-0.49 -5.852,-0.62 -7.864,-1.41 -4.058,-1.33 -8.687,-2.87 -12.179,-5.78 -3.739,-2.56 -6.621,-6.07 -9.223,-9.56 -2.34,-3.68 -4.344,-7.45 -5.809,-11.17 -2.902,-7.46 -4.371,-14.26 -5.226,-19.04 -0.86,-4.8 -1.106,-7.64 -1.106,-7.64 0,0 -0.761,2.74 -1.273,7.72 -0.461,4.96 -0.758,12.23 1.027,20.9 0.856,4.34 2.344,9.01 4.676,13.72 2.539,4.57 5.609,9.52 10.316,13.25 4.426,4.02 9.93,6.97 16.336,8.87 3.172,1.08 5.575,1.12 8.418,1.73 3.645,0.64 6.258,0.32 9.45,0.49 3.046,0.17 6.125,-0.47 9.175,-0.97 3.082,-0.34 6.039,-1.31 8.946,-2.41 2.996,-0.83 5.664,-2.38 8.25,-3.98 2.714,-1.39 4.906,-3.43 7.148,-5.28 8.762,-7.78 13.633,-17.47 16.356,-25.73 2.785,-8.32 3.574,-15.52 3.867,-20.49 0.25,-5 -0.051,-7.82 -0.051,-7.82"
           style="fill:#29202e;fill-opacity:1;fill-rule:nonzero;stroke:none"
           id="path1148" />
        <path
           d="m 975.719,1127.56 c 0,0 -0.699,2.76 -2.274,7.39 -1.566,4.61 -4.007,11.11 -7.816,18.23 -3.859,7.06 -9.25,14.74 -16.766,20.34 -3.703,2.83 -7.953,5.08 -12.562,6.48 -2.278,0.8 -4.59,1.55 -7.098,1.71 -2.453,0.33 -4.879,0.85 -7.453,0.59 -2.379,-0.09 -5.414,0.21 -7.266,-0.13 -2.593,-0.5 -5.851,-0.62 -7.863,-1.42 -4.058,-1.32 -8.687,-2.87 -12.18,-5.78 -3.738,-2.56 -6.621,-6.07 -9.222,-9.55 -2.34,-3.69 -4.344,-7.45 -5.809,-11.18 -2.902,-7.45 -4.371,-14.25 -5.226,-19.04 -0.86,-4.8 -1.106,-7.64 -1.106,-7.64 0,0 -0.762,2.75 -1.269,7.73 -0.465,4.96 -0.762,12.22 1.023,20.9 0.856,4.34 2.344,9 4.676,13.72 2.539,4.56 5.609,9.52 10.32,13.24 4.426,4.02 9.926,6.97 16.332,8.88 3.176,1.08 5.574,1.11 8.418,1.73 3.645,0.64 6.258,0.32 9.449,0.48 3.047,0.18 6.125,-0.46 9.176,-0.97 3.082,-0.33 6.039,-1.31 8.945,-2.4 2.997,-0.83 5.665,-2.39 8.25,-3.98 2.715,-1.39 4.907,-3.43 7.153,-5.28 8.758,-7.78 13.629,-17.48 16.351,-25.73 2.786,-8.33 3.578,-15.52 3.868,-20.5 0.253,-4.99 -0.051,-7.82 -0.051,-7.82"
           style="fill:#29202e;fill-opacity:1;fill-rule:nonzero;stroke:none"
           id="path1150" />
      </g>
    </g>
  </g>
</svg>
