<?xml version="1.0" encoding="UTF-8" standalone="no"?>
<!-- Created with Inkscape (http://www.inkscape.org/) -->

<svg
   width="52.099693mm"
   height="62.900322mm"
   viewBox="0 0 196.91223 237.7335"
   version="1.1"
   id="svg5"
   xmlns="http://www.w3.org/2000/svg"
   xmlns:svg="http://www.w3.org/2000/svg">
  <defs
     id="defs2">
    <clipPath
       clipPathUnits="userSpaceOnUse"
       id="clipPath846">
      <path
         d="m 6126.52,576.512 c -59.38,-61.024 -152.19,-100.34 -256.58,-100.34 -104.39,0 -197.21,39.316 -256.58,100.34 C 5458.38,533.359 5077.34,457.281 5125.11,0 h 731.04 27.57 731.04 c 47.78,457.281 -333.27,533.359 -488.24,576.512"
         id="path844" />
    </clipPath>
    <clipPath
       clipPathUnits="userSpaceOnUse"
       id="clipPath1014">
      <path
         d="m 4376.88,594.449 c -33.69,18.082 -50.83,62.852 -59.21,111.063 -46.93,-10.481 -97.76,-16.25 -150.88,-16.25 -52.06,0 -101.94,5.519 -148.1,15.597 -8.42,-47.961 -25.56,-92.41 -59.1,-110.41 C 3872.12,547.52 3355.22,524.059 3410.88,0 h 743.34 28.04 743.33 c 55.67,524.059 -461.23,547.52 -548.71,594.449"
         id="path1012" />
    </clipPath>
    <clipPath
       clipPathUnits="userSpaceOnUse"
       id="clipPath846-3">
      <path
         d="m 6126.52,576.512 c -59.38,-61.024 -152.19,-100.34 -256.58,-100.34 -104.39,0 -197.21,39.316 -256.58,100.34 C 5458.38,533.359 5077.34,457.281 5125.11,0 h 731.04 27.57 731.04 c 47.78,457.281 -333.27,533.359 -488.24,576.512"
         id="path844-6" />
    </clipPath>
    <clipPath
       clipPathUnits="userSpaceOnUse"
       id="clipPath1014-7">
      <path
         d="m 4376.88,594.449 c -33.69,18.082 -50.83,62.852 -59.21,111.063 -46.93,-10.481 -97.76,-16.25 -150.88,-16.25 -52.06,0 -101.94,5.519 -148.1,15.597 -8.42,-47.961 -25.56,-92.41 -59.1,-110.41 C 3872.12,547.52 3355.22,524.059 3410.88,0 h 743.34 28.04 743.33 c 55.67,524.059 -461.23,547.52 -548.71,594.449"
         id="path1012-5" />
    </clipPath>
  </defs>
  <g
     id="layer1"
     transform="translate(-206.13141,-304.33247)">
    <g
       id="g832"
       transform="matrix(0.1333333,0,0,-0.13333333,-7.1594478,676.05763)">
      <g
         id="g1936"
         transform="translate(-132.02143,1004.9374)">
        <path
           d="m 2672.43,586.031 c -84.82,46.258 -61.69,269.91 -61.69,269.91 l -127.03,-8.191 v 8.16 l -13.59,-4.078 -13.59,4.078 v -8.16 l -127.03,8.191 c 0,0 23.13,-223.652 -61.69,-269.91 C 2182.99,539.762 1681.78,516.629 1735.76,0 h 720.77 27.18 720.78 c 53.97,516.629 -447.24,539.762 -532.06,586.031"
           style="fill:#f78e92;fill-opacity:1;fill-rule:nonzero;stroke:none"
           id="path1068" />
        <path
           d="m 2311.69,643.719 c 101.47,15.121 202.86,30.73 304.19,46.812 -14.25,77.11 -5.14,165.41 -5.14,165.41 l -127.03,-8.191 v 8.16 l -13.59,-4.078 -13.59,4.078 v -8.16 l -127.03,8.191 c 0,0 13.39,-129.953 -17.81,-212.222"
           style="fill:#e07375;fill-opacity:1;fill-rule:nonzero;stroke:none"
           id="path1070" />
        <path
           d="m 2752.85,560.332 c -75.31,-43.992 -175.63,-70.844 -285.8,-70.844 -109.22,0 -208.77,26.391 -283.86,69.711 C 2015.33,513.961 1691.85,420.27 1735.76,0 h 720.77 27.18 720.78 c 44.28,423.828 -285.06,515.52 -451.64,560.332"
           style="fill:#63aad1;fill-opacity:1;fill-rule:nonzero;stroke:none"
           id="path1072" />
        <path
           d="M 3098.79,383.012 C 3031.34,350.641 2956.78,339.66 2882.87,316.691 2778.39,284.211 2673.54,252.961 2568.36,222.832 2357.53,162.461 2145.71,105.648 1933.91,48.7617 1873.51,32.5313 1813.12,16.2617 1752.74,0 h 1451.75 c 18.88,180.75 -30.28,300.949 -105.7,383.012"
           style="fill:#5b94c0;fill-opacity:1;fill-rule:nonzero;stroke:none"
           id="path1074" />
        <path
           d="M 2124.09,542.48 C 1949.81,489.922 1696.58,374.988 1735.76,0 h 598.48 l -210.15,542.48"
           style="fill:#f78f50;fill-opacity:1;fill-rule:nonzero;stroke:none"
           id="path1076" />
        <path
           d="M 2811.93,543.75 2716.46,0 h 488.03 c 39.49,378.059 -218.2,491.781 -392.56,543.75"
           style="fill:#f78f50;fill-opacity:1;fill-rule:nonzero;stroke:none"
           id="path1078" />
        <path
           d="m 2281.6,0 h 52.64 l -210.15,542.48 c -44.84,-13.519 -94.9,-31.23 -143.87,-56.378 L 2281.6,0"
           style="fill:#ef7a41;fill-opacity:1;fill-rule:nonzero;stroke:none"
           id="path1080" />
        <path
           d="M 2811.93,543.75 2716.46,0 h 43.9 l 251.7,455.91 c -65.88,43.07 -138.24,69.391 -200.13,87.84"
           style="fill:#ef7a41;fill-opacity:1;fill-rule:nonzero;stroke:none"
           id="path1082" />
        <path
           d="m 2221.75,1183.3 c -24.99,77.53 -84.17,59.58 -89.71,57.71 -5.81,-0.68 -66.98,-9.76 -56.41,-90.54 10.63,-81.25 57.78,-125.29 101.98,-112.35 45.5,7.21 69.28,67.18 44.14,145.18"
           style="fill:#e07375;fill-opacity:1;fill-rule:nonzero;stroke:none"
           id="path1084" />
        <path
           d="m 2720.77,1183.3 c 24.99,77.53 84.17,59.58 89.71,57.71 5.81,-0.68 66.98,-9.76 56.41,-90.54 -10.63,-81.25 -57.77,-125.29 -101.98,-112.35 -45.5,7.21 -69.28,67.18 -44.14,145.18"
           style="fill:#e07375;fill-opacity:1;fill-rule:nonzero;stroke:none"
           id="path1086" />
        <path
           d="m 2161.12,1300.75 c 30.97,339.91 289.38,320.87 313.75,318.31 24.37,2.56 282.78,21.6 313.75,-318.31 31.15,-341.93 -121.15,-565.238 -313.75,-552.961 -192.6,-12.277 -344.9,211.031 -313.75,552.961"
           style="fill:#f78e92;fill-opacity:1;fill-rule:nonzero;stroke:none"
           id="path1088" />
        <path
           d="m 2519.43,1140.82 c 4.26,-7.85 7.55,-15.9 10.52,-24.03 2.94,-8.12 5.43,-16.35 7.65,-24.62 1.18,-4.13 2,-8.33 3.02,-12.49 1.05,-4.15 1.84,-8.36 2.6,-12.57 1.67,-8.39 2.85,-16.89 3.8,-25.44 l 0.45,-3.99 -2.17,-1.99 c -6.93,-6.34 -14.05,-12.51 -21.29,-18.56 -7.36,-5.94 -14.67,-11.93 -22.57,-17.341 5.12,8.091 10.84,15.611 16.51,23.181 5.79,7.45 11.69,14.79 17.79,21.95 l -1.72,-5.98 c -2.57,8.21 -4.9,16.47 -6.74,24.82 -1,4.17 -1.97,8.34 -2.68,12.56 -0.74,4.22 -1.67,8.39 -2.25,12.64 -1.3,8.48 -2.32,17.01 -2.9,25.63 -0.55,8.63 -0.77,17.33 -0.02,26.23"
           style="fill:#e07375;fill-opacity:1;fill-rule:nonzero;stroke:none"
           id="path1090" />
        <path
           d="m 2606.61,938.73 c -61.52,-59.8 -165.73,-56.492 -244.66,-3.191"
           style="fill:#ffffff;fill-opacity:1;fill-rule:nonzero;stroke:none"
           id="path1092" />
        <path
           d="m 2718.56,1256.07 c 0,0 -2.69,1.49 -7.4,4.1 -2.29,1.25 -5.07,2.77 -8.25,4.52 -3.12,1.65 -6.64,3.51 -10.49,5.54 -3.97,1.71 -7.93,3.99 -12.38,5.73 -2.15,0.96 -4.36,1.94 -6.62,2.95 -2.27,0.83 -4.6,1.68 -6.97,2.54 -4.6,2.04 -9.62,2.79 -14.4,4.48 -4.95,0.51 -9.82,2.4 -14.77,2.2 l -7.37,0.6 c -2.42,-0.29 -4.85,-0.37 -7.28,-0.5 -4.92,0.2 -9.49,-1.63 -14.24,-2.21 -4.73,-0.75 -8.98,-3.04 -13.43,-4.22 l -3.29,-1.02 -2.99,-1.51 c -2.03,-0.95 -4,-1.87 -5.89,-2.75 -3.75,-1.86 -7.6,-3.21 -10.5,-5.23 -2.98,-1.87 -5.81,-3.34 -8.14,-4.61 -4.67,-2.53 -7.66,-3.85 -7.66,-3.85 0,0 1.19,2.84 3.82,7.6 1.33,2.36 2.93,5.32 5.04,8.52 1.86,3.44 4.81,6.58 8.16,9.99 3.46,3.26 6.58,7.75 11.48,10.59 4.78,2.93 9.51,6.88 15.45,9.08 2.93,1.19 5.99,2.26 9.1,3.35 3.05,1.31 6.34,1.87 9.71,2.25 3.35,0.46 6.74,0.98 10.16,1.3 3.4,-0.04 6.83,-0.29 10.25,-0.48 6.94,-0.14 13.35,-2.44 19.78,-4 3.09,-1.11 6.04,-2.45 8.97,-3.73 2.97,-1.2 5.76,-2.58 8.31,-4.28 2.6,-1.61 5.17,-3.11 7.59,-4.73 2.26,-1.8 4.48,-3.55 6.64,-5.26 4.37,-3.29 7.68,-7.34 11,-10.65 6.22,-7.09 10.51,-13.62 13.04,-18.48 2.63,-4.8 3.57,-7.83 3.57,-7.83"
           style="fill:#29202e;fill-opacity:1;fill-rule:nonzero;stroke:none"
           id="path1094" />
        <path
           d="m 2396.67,1256.07 c 0,0 -2.69,1.49 -7.4,4.1 -2.29,1.25 -5.06,2.77 -8.25,4.52 -3.12,1.65 -6.64,3.51 -10.48,5.54 -3.98,1.71 -7.94,3.99 -12.38,5.73 -2.16,0.96 -4.37,1.94 -6.62,2.95 -2.28,0.83 -4.61,1.68 -6.98,2.54 -4.6,2.04 -9.62,2.79 -14.39,4.48 -4.96,0.51 -9.83,2.4 -14.78,2.2 l -7.37,0.6 c -2.42,-0.29 -4.85,-0.37 -7.27,-0.5 -4.93,0.2 -9.5,-1.63 -14.25,-2.21 -4.73,-0.75 -8.98,-3.04 -13.43,-4.22 l -3.28,-1.02 -3,-1.51 c -2.03,-0.95 -4,-1.87 -5.89,-2.75 -3.75,-1.86 -7.6,-3.21 -10.49,-5.23 -2.99,-1.87 -5.82,-3.34 -8.14,-4.61 -4.68,-2.53 -7.67,-3.85 -7.67,-3.85 0,0 1.19,2.84 3.82,7.6 1.33,2.36 2.93,5.32 5.04,8.52 1.86,3.44 4.81,6.58 8.16,9.99 3.46,3.26 6.58,7.75 11.48,10.59 4.78,2.92 9.51,6.88 15.45,9.08 2.93,1.19 5.99,2.26 9.1,3.35 3.06,1.31 6.35,1.87 9.71,2.25 3.35,0.46 6.74,0.98 10.16,1.3 3.41,-0.04 6.83,-0.29 10.25,-0.48 6.94,-0.14 13.35,-2.44 19.79,-4 3.08,-1.11 6.03,-2.45 8.96,-3.73 2.97,-1.19 5.77,-2.58 8.31,-4.29 2.6,-1.59 5.18,-3.1 7.59,-4.72 2.27,-1.8 4.48,-3.55 6.64,-5.26 4.37,-3.29 7.69,-7.34 11,-10.65 6.22,-7.09 10.51,-13.62 13.04,-18.48 2.63,-4.8 3.57,-7.83 3.57,-7.83"
           style="fill:#29202e;fill-opacity:1;fill-rule:nonzero;stroke:none"
           id="path1096" />
        <path
           d="m 2386.46,1132.9 c 0,0 -0.7,2.76 -2.27,7.38 -1.57,4.62 -4.01,11.12 -7.82,18.24 -3.86,7.06 -9.25,14.74 -16.76,20.34 -3.71,2.83 -7.96,5.08 -12.57,6.48 -2.27,0.8 -4.59,1.55 -7.1,1.71 -2.45,0.33 -4.87,0.85 -7.45,0.6 -0.91,-0.04 -1.91,-0.02 -2.9,0 -1.62,0.04 -3.22,0.08 -4.36,-0.14 -2.6,-0.49 -5.86,-0.62 -7.87,-1.42 -4.06,-1.32 -8.69,-2.87 -12.17,-5.78 -3.74,-2.56 -6.63,-6.07 -9.23,-9.55 -2.34,-3.69 -4.34,-7.45 -5.81,-11.18 -2.9,-7.45 -4.37,-14.25 -5.23,-19.04 -0.85,-4.8 -1.1,-7.64 -1.1,-7.64 0,0 -0.76,2.75 -1.27,7.73 -0.46,4.96 -0.76,12.22 1.02,20.9 0.86,4.34 2.35,9 4.68,13.72 2.54,4.56 5.61,9.52 10.32,13.25 4.42,4.01 9.93,6.96 16.33,8.87 3.18,1.08 5.57,1.11 8.42,1.73 3.64,0.64 6.26,0.32 9.45,0.48 3.04,0.18 6.12,-0.46 9.18,-0.97 3.08,-0.33 6.03,-1.31 8.94,-2.4 3,-0.83 5.66,-2.39 8.25,-3.98 2.71,-1.39 4.9,-3.43 7.15,-5.28 8.76,-7.78 13.63,-17.47 16.35,-25.73 2.79,-8.33 3.58,-15.52 3.87,-20.49 0.25,-5 -0.05,-7.83 -0.05,-7.83"
           style="fill:#29202e;fill-opacity:1;fill-rule:nonzero;stroke:none"
           id="path1098" />
        <path
           d="m 2675.72,1137.57 c 0,0 -0.7,2.76 -2.27,7.38 -1.57,4.61 -4.01,11.12 -7.82,18.24 -3.86,7.05 -9.25,14.74 -16.76,20.33 -3.71,2.83 -7.96,5.08 -12.57,6.49 -2.28,0.8 -4.59,1.55 -7.1,1.71 -2.45,0.33 -4.88,0.84 -7.45,0.59 -2.38,-0.1 -5.41,0.21 -7.26,-0.14 -2.6,-0.49 -5.86,-0.62 -7.87,-1.41 -4.06,-1.32 -8.69,-2.87 -12.18,-5.78 -3.74,-2.56 -6.62,-6.07 -9.22,-9.55 -2.34,-3.69 -4.35,-7.45 -5.81,-11.18 -2.9,-7.46 -4.37,-14.25 -5.23,-19.04 -0.85,-4.8 -1.1,-7.64 -1.1,-7.64 0,0 -0.76,2.74 -1.27,7.72 -0.47,4.96 -0.76,12.23 1.02,20.9 0.86,4.34 2.35,9.01 4.68,13.72 2.54,4.57 5.61,9.52 10.32,13.25 4.42,4.02 9.93,6.97 16.33,8.87 3.17,1.09 5.57,1.12 8.42,1.73 3.64,0.64 6.26,0.32 9.45,0.49 3.04,0.17 6.12,-0.47 9.18,-0.97 3.08,-0.33 6.03,-1.31 8.94,-2.41 2.99,-0.83 5.66,-2.38 8.25,-3.98 2.71,-1.38 4.9,-3.43 7.15,-5.28 8.76,-7.77 13.63,-17.47 16.35,-25.73 2.79,-8.32 3.58,-15.52 3.87,-20.49 0.25,-4.99 -0.05,-7.82 -0.05,-7.82"
           style="fill:#29202e;fill-opacity:1;fill-rule:nonzero;stroke:none"
           id="path1100" />
        <path
           d="m 1955.98,1174.46 c 0,0 1.23,3.84 3.53,11.03 1.21,3.58 2.35,8.16 4.84,13.09 2.37,4.96 4.54,11.02 8.57,16.92 6.88,12.54 18.32,25.97 32.42,39.78 14.02,13.84 30.75,28.42 40.81,48.9 8.16,15.72 10.74,35.04 10.73,55.15 0.01,-20.11 -2.57,-39.43 -10.73,-55.15 -10.06,-20.48 -26.79,-35.06 -40.81,-48.9 -14.1,-13.81 -25.54,-27.24 -32.42,-39.78 -4.03,-5.9 -6.2,-11.96 -8.57,-16.92 -2.49,-4.93 -3.63,-9.51 -4.84,-13.09 -2.3,-7.19 -3.53,-11.03 -3.53,-11.03 v 0 m 96.99,237.42 c 0,2.78 0.04,5.56 0.11,8.34 0.32,14.84 1.75,29.93 4.07,45.26 2.4,15.3 5.8,30.87 11.55,46.29 1.54,3.84 2.86,7.74 4.88,11.49 1.85,3.78 3.61,7.57 6.33,11.49 l 3.83,5.77 3.83,4.52 1.93,2.25 0.72,0.84 0.97,1.03 1.08,1.01 4.33,4.06 c 0.1,0.08 0.19,0.16 0.29,0.25 -0.1,-0.09 -0.19,-0.17 -0.29,-0.25 l -4.33,-4.06 -1.08,-1.01 -0.97,-1.03 -0.24,-0.28 -0.48,-0.56 -1.93,-2.25 -3.83,-4.52 -3.83,-5.77 c -2.72,-3.92 -4.48,-7.71 -6.33,-11.49 -2.02,-3.75 -3.34,-7.65 -4.88,-11.49 -5.75,-15.42 -9.15,-30.99 -11.55,-46.29 -2.32,-15.33 -3.75,-30.42 -4.07,-45.26 -0.07,-2.78 -0.11,-5.56 -0.11,-8.34 m 56.77,128.19 c 7.18,6.29 15.66,12.07 24.52,17.13 0,-0.02 0,-0.04 0,-0.06 -8.85,-5.05 -17.35,-10.79 -24.52,-17.07 m -12.61,14.62 c 0.01,0.01 0.02,0.02 0.03,0.02 -0.01,0 -0.02,-0.01 -0.03,-0.02"
           style="fill:#b9b6ba;fill-opacity:1;fill-rule:nonzero;stroke:none"
           id="path1102" />
        <path
           d="m 2650.39,1592.82 c 0,0 113.33,-3.34 150,-143.33 36.66,-140 -3.34,-166.67 -3.34,-280 0,0 0,-70 -16.66,-93.34 l -23.34,230 c 0,0 -156.66,83.34 -106.66,286.67"
           style="fill:#a1444b;fill-opacity:1;fill-rule:nonzero;stroke:none"
           id="path1104" />
        <path
           d="m 2253.48,1159.72 c -4.82,-10.63 -11.9,-19.84 -20.13,-29.06 -8.06,-9.29 -18.31,-17.83 -27.62,-30.34 -2.46,-2.74 -4.29,-6.68 -6.34,-10.1 -2.22,-3.36 -3.4,-7.44 -4.68,-11.41 l -1.83,-5.97 -0.62,-6.06 c -0.16,-3.97 -1.17,-8.24 -0.45,-11.94 0.16,-1.55 0.32,-3.11 0.48,-4.66 -18.21,77.37 32.37,72.81 66.09,121.27 l -1.18,-3.84 -3.72,-7.89 m 192.45,620.68 c -18.92,2.75 -39.26,4.12 -60.69,0 -14.31,-2.58 -28.9,-7.59 -42.3,-15.51 -13.53,-7.78 -25.26,-18.7 -35.57,-30.51 -20.64,-23.84 -36.2,-51.17 -54.94,-75.58 -18.42,-24.63 -41.39,-45.51 -69.02,-58.44 -6.98,-3.48 -13.58,-5.87 -21.51,-8.93 -7.47,-2.86 -14.92,-5.63 -22.79,-9.55 -15.41,-7.52 -29.41,-16.06 -42.51,-27.65 l -4.33,-4.06 -1.08,-1.01 -0.97,-1.03 -0.24,-0.28 -0.48,-0.56 -1.93,-2.25 -3.83,-4.52 -3.83,-5.77 c -2.72,-3.92 -4.48,-7.71 -6.33,-11.49 -2.02,-3.75 -3.34,-7.65 -4.88,-11.49 -5.75,-15.42 -9.15,-30.99 -11.55,-46.29 -2.32,-15.33 -3.75,-30.42 -4.07,-45.26 -0.09,-3.71 -0.13,-7.41 -0.1,-11.12 l 0.06,-2.84 0.19,-3.34 0.63,-5.3 c 0.83,-7.04 1.65,-14 2.45,-20.87 1.6,-26.17 0.33,-52.35 -10.16,-72.57 -10.06,-20.48 -26.79,-35.06 -40.81,-48.9 -14.1,-13.81 -25.54,-27.24 -32.42,-39.78 -4.03,-5.9 -6.2,-11.96 -8.57,-16.92 -2.49,-4.93 -3.63,-9.51 -4.84,-13.09 -2.3,-7.19 -3.53,-11.03 -3.53,-11.03 0,0 1.58,3.7 4.54,10.64 2.72,6.99 7.9,16.82 15.67,28.3 7.55,11.72 19.4,23.8 34.19,36.4 14.56,12.54 33.43,26.4 45.96,49.08 3.36,5.45 5.24,11.76 7.95,17.84 1.51,6.38 3.61,12.88 4.68,19.58 0.73,6.72 1.88,13.56 2.11,20.55 0.03,7.01 0.06,14.12 0.1,21.34 -0.56,6.89 -1.13,13.87 -1.7,20.94 l -0.43,5.32 c -0.12,1.64 0,0.68 -0.02,2.01 l 0.04,2.54 c 0.1,3.47 0.26,6.98 0.48,10.53 0.92,14.15 2.4,28.64 4.97,43.07 2.58,14.41 6.13,28.88 11.54,42.44 1.43,3.33 2.67,6.81 4.46,9.89 1.65,3.2 3.28,6.48 5.14,8.96 l 2.6,4.1 3.84,4.46 1.94,2.24 0.49,0.55 0.06,0.08 0.79,0.73 4.36,4.02 c 8.15,7.14 17.97,13.62 28.13,19.13 -4.6,-2.96 -9,-5.99 -13.02,-9.13 -2.11,-1.58 -4.16,-3.26 -6.18,-5 l -2.33,-1.98 c -2.69,-2.45 -5.28,-5.04 -7.77,-7.77 -36.23,-38.74 -31.96,-136.62 -31.52,-139.17 26.67,-153.33 -66.66,-123.33 -96.66,-233.33 -30,-110 118.43,-181.39 83.33,-220 -66.67,-73.332 -100,23.328 -100,23.328 -13.33,-56.66 46.67,-140 120,-130 69.41,9.473 144.72,63.762 118.67,176.952 l 0.23,-0.55 7.76,-18.562 c 2.32,-5.847 5.15,-11.59 7.09,-17.547 l 5.47,-18.019 3.58,-18.352 c 0.37,-6.148 1.27,-12.371 1.3,-18.55 -0.55,-6.11 0.06,-12.461 -1.35,-18.469 -1,-6.102 -1.98,-12.242 -4.16,-18.051 -1.52,-6.059 -4.25,-11.641 -6.83,-17.352 -5.71,-11.066 -12.92,-21.66 -22.07,-30.578 -8.71,-9.39 -19.22,-17.121 -30.3,-23.929 -11.13,-6.832 -23.2,-12.063 -35.78,-16.442 12.9,2.66 25.97,6.102 38.22,11.762 12.14,5.707 24.09,12.48 34.45,21.48 10.67,8.637 19.66,19.391 27.17,31.149 3.46,6.058 7.16,12.082 9.44,18.762 2.93,6.449 4.6,13.277 6.23,20.16 2.05,6.82 2.01,13.898 3.07,20.898 0.48,7.008 0.05,14.031 0.07,21.09 -0.7,6.941 -1.67,13.879 -2.65,20.82 -1.49,6.789 -3.3,13.5 -4.97,20.262 -1.83,6.707 -4.5,13.059 -6.73,19.618 l -6.6,18.44 c -1.06,3.09 -2.33,6.28 -3.24,9.28 l -1.87,8.49 c -1.69,5.63 -1.86,11.2 -2.34,16.75 0.03,10.88 2.83,19.77 9.72,28.34 6.69,8.65 17.06,17.08 26.77,27.37 4.97,4.8 9.58,10.76 14.03,16.45 3.96,6.24 8.49,12.17 11.36,19.03 l 4.79,10.04 3.42,10.43 c 1.05,3.49 2.38,6.96 3.17,10.48 l 1.96,10.59 1.9,10.61 0.74,10.54 1.25,20.1 1.09,19.81 c 0.39,6.54 0.32,13.46 1.51,19.33 1.97,12.19 2.96,24.49 6.62,36.56 1.74,5.97 2.57,12.33 5.02,18 l 6.1,16.52 6,8.68 7.5,8.56 c 2.86,2.41 5.58,5.02 8.49,7.39 3.19,1.99 6.19,4.27 9.48,6.14 3.48,1.57 6.8,3.43 10.37,4.88 l 11.11,3.67 11.72,2.44 c 3.97,0.64 8.09,0.89 12.13,1.37 l 26.72,2.93 13.17,1.55 c 4.44,0.65 9.11,1.93 13.64,2.88 9.05,2.27 18.41,3.64 27.1,6.72 l 26.01,9.27 3.38,1.7 c 133.5,28.22 159.87,144.78 159.87,144.78 19.29,80.66 -66.25,216.92 -217.79,227.58"
           style="fill:#7a3134;fill-opacity:1;fill-rule:nonzero;stroke:none"
           id="path1106" />
        <path
           d="m 2124.85,1550.07 c 0.05,0.04 0.1,0.08 0.14,0.11 -0.04,-0.03 -0.09,-0.07 -0.14,-0.11"
           style="fill:#b9b6ba;fill-opacity:1;fill-rule:nonzero;stroke:none"
           id="path1108" />
        <path
           d="m 2238.44,884.34 v 0 c 1.86,5.09 3.14,10.371 4.4,15.672 2.05,6.82 2.01,13.898 3.07,20.898 0.17,2.52 0.23,5.039 0.23,7.559 0,-2.52 -0.06,-5.039 -0.23,-7.559 -1.06,-7 -1.02,-14.078 -3.07,-20.898 -1.26,-5.301 -2.54,-10.582 -4.4,-15.672 M 2206,946.738 v 0 c 1.09,7.172 1.67,14.711 1.67,22.633 0,-7.922 -0.58,-15.461 -1.67,-22.633 m 85.31,233.602 1.49,8.05 1.9,10.61 0.74,10.54 1.22,19.61 v 0 l -1.22,-19.61 -0.74,-10.54 -1.9,-10.61 -1.49,-8.05 v 0"
           style="fill:#d27176;fill-opacity:1;fill-rule:nonzero;stroke:none"
           id="path1110" />
        <path
           d="m 2127.33,796.699 c 12.58,4.379 24.65,9.61 35.78,16.442 11.08,6.808 21.59,14.539 30.3,23.929 9.15,8.918 16.36,19.512 22.07,30.578 2.58,5.711 5.31,11.293 6.83,17.352 2.18,5.809 3.16,11.949 4.16,18.051 1.41,6.008 0.8,12.359 1.35,18.469 v 0 0 c -0.03,6.179 -0.93,12.402 -1.3,18.55 l -3.58,18.352 -5.47,18.019 c -1.94,5.957 -4.77,11.7 -7.09,17.547 l -7.76,18.562 -0.23,0.55 v 0 c 3.62,-15.702 5.28,-30.26 5.28,-43.729 0,-7.922 -0.58,-15.461 -1.67,-22.633 -10.44,-68.558 -68.16,-103.207 -122.28,-110.59 -4.08,-0.546 -8.1,-0.816 -12.09,-0.816 -60.87,0 -109.73,62.539 -109.78,114.047 0,5.762 0.6,11.391 1.87,16.769 0,0 17.52,-50.808 52.56,-50.808 13.29,0 29.11,7.32 47.44,27.48 3.74,4.11 5.39,8.59 5.41,13.45 0.1,36.562 -92.78,94.54 -92.77,176.93 0,9.54 1.24,19.41 4.03,29.62 26.31,96.46 101.32,85.26 101.4,184.46 0.01,13.91 -1.46,30.01 -4.74,48.87 -0.09,0.56 -0.37,5.63 -0.37,13.64 -0.01,28.74 3.55,95.22 31.89,125.53 2.49,2.73 5.08,5.32 7.77,7.77 l 2.33,1.98 c 2.02,1.74 4.07,3.42 6.18,5 v 0 c 0.05,0.04 0.1,0.08 0.14,0.11 2.88,2.24 6.1,4.36 9.28,6.5 1.89,-88.11 26.8,-173.41 87.02,-249.62 22.57,-28.55 47.9,-54.91 75.37,-77.91 l -1.22,-19.61 -0.74,-10.54 -1.9,-10.61 -1.49,-8.05 -0.47,-2.54 c -0.79,-3.52 -2.12,-6.99 -3.17,-10.48 l -3.42,-10.43 -1.87,-3.92 -2.92,-6.12 c -2.87,-6.86 -7.4,-12.79 -11.36,-19.03 -4.45,-5.69 -9.06,-11.65 -14.03,-16.45 -9.71,-10.29 -20.08,-18.72 -26.77,-27.37 -6.89,-8.57 -9.69,-17.46 -9.72,-28.34 v 0 0 c 0.48,-5.55 0.65,-11.12 2.34,-16.75 l 1.87,-8.49 c 0.91,-3 2.18,-6.19 3.24,-9.28 l 6.6,-18.44 c 2.23,-6.559 4.9,-12.911 6.73,-19.618 1.67,-6.762 3.48,-13.473 4.97,-20.262 0.98,-6.941 1.95,-13.879 2.65,-20.82 0,-0.219 0,-0.441 0,-0.66 0,-4.301 0.16,-8.59 0.16,-12.871 0,-2.52 -0.06,-5.039 -0.23,-7.559 -1.06,-7 -1.02,-14.078 -3.07,-20.898 -1.26,-5.301 -2.54,-10.582 -4.4,-15.672 -0.55,-1.52 -1.16,-3.012 -1.83,-4.488 -2.28,-6.68 -5.98,-12.704 -9.44,-18.762 -7.51,-11.758 -16.5,-22.512 -27.17,-31.149 -10.36,-9 -22.31,-15.773 -34.45,-21.48 -12.25,-5.66 -25.32,-9.102 -38.22,-11.762 m 64.96,253.481 v 0 c -0.16,1.55 -0.32,3.11 -0.48,4.66 -0.19,0.95 -0.26,1.95 -0.26,2.96 0,2.92 0.59,6.03 0.71,8.98 l 0.62,6.06 1.83,5.97 c 1.28,3.97 2.46,8.05 4.68,11.41 2.05,3.42 3.88,7.36 6.34,10.1 9.31,12.51 19.56,21.05 27.62,30.34 8.23,9.22 15.31,18.43 20.13,29.06 l 3.72,7.89 1.18,3.84 v 0 c -28.82,-41.41 -69.94,-44.1 -69.93,-92.29 0,-8.2 1.19,-17.72 3.84,-28.98 v 0"
           style="fill:#5f2b30;fill-opacity:1;fill-rule:nonzero;stroke:none"
           id="path1112" />
      </g>
    </g>
  </g>
</svg>
