<?xml version="1.0" encoding="UTF-8" standalone="no"?>
<!-- Created with Inkscape (http://www.inkscape.org/) -->

<svg
   width="52.841728mm"
   height="61.457977mm"
   viewBox="0 0 199.71677 232.28212"
   version="1.1"
   id="svg5"
   xmlns="http://www.w3.org/2000/svg"
   xmlns:svg="http://www.w3.org/2000/svg">
  <defs
     id="defs2">
    <clipPath
       clipPathUnits="userSpaceOnUse"
       id="clipPath846">
      <path
         d="m 6126.52,576.512 c -59.38,-61.024 -152.19,-100.34 -256.58,-100.34 -104.39,0 -197.21,39.316 -256.58,100.34 C 5458.38,533.359 5077.34,457.281 5125.11,0 h 731.04 27.57 731.04 c 47.78,457.281 -333.27,533.359 -488.24,576.512"
         id="path844" />
    </clipPath>
    <clipPath
       clipPathUnits="userSpaceOnUse"
       id="clipPath1014">
      <path
         d="m 4376.88,594.449 c -33.69,18.082 -50.83,62.852 -59.21,111.063 -46.93,-10.481 -97.76,-16.25 -150.88,-16.25 -52.06,0 -101.94,5.519 -148.1,15.597 -8.42,-47.961 -25.56,-92.41 -59.1,-110.41 C 3872.12,547.52 3355.22,524.059 3410.88,0 h 743.34 28.04 743.33 c 55.67,524.059 -461.23,547.52 -548.71,594.449"
         id="path1012" />
    </clipPath>
    <clipPath
       clipPathUnits="userSpaceOnUse"
       id="clipPath846-3">
      <path
         d="m 6126.52,576.512 c -59.38,-61.024 -152.19,-100.34 -256.58,-100.34 -104.39,0 -197.21,39.316 -256.58,100.34 C 5458.38,533.359 5077.34,457.281 5125.11,0 h 731.04 27.57 731.04 c 47.78,457.281 -333.27,533.359 -488.24,576.512"
         id="path844-6" />
    </clipPath>
    <clipPath
       clipPathUnits="userSpaceOnUse"
       id="clipPath1014-7">
      <path
         d="m 4376.88,594.449 c -33.69,18.082 -50.83,62.852 -59.21,111.063 -46.93,-10.481 -97.76,-16.25 -150.88,-16.25 -52.06,0 -101.94,5.519 -148.1,15.597 -8.42,-47.961 -25.56,-92.41 -59.1,-110.41 C 3872.12,547.52 3355.22,524.059 3410.88,0 h 743.34 28.04 743.33 c 55.67,524.059 -461.23,547.52 -548.71,594.449"
         id="path1012-5" />
    </clipPath>
    <clipPath
       clipPathUnits="userSpaceOnUse"
       id="clipPath846-3-3">
      <path
         d="m 6126.52,576.512 c -59.38,-61.024 -152.19,-100.34 -256.58,-100.34 -104.39,0 -197.21,39.316 -256.58,100.34 C 5458.38,533.359 5077.34,457.281 5125.11,0 h 731.04 27.57 731.04 c 47.78,457.281 -333.27,533.359 -488.24,576.512"
         id="path844-6-5" />
    </clipPath>
    <clipPath
       clipPathUnits="userSpaceOnUse"
       id="clipPath1014-7-6">
      <path
         d="m 4376.88,594.449 c -33.69,18.082 -50.83,62.852 -59.21,111.063 -46.93,-10.481 -97.76,-16.25 -150.88,-16.25 -52.06,0 -101.94,5.519 -148.1,15.597 -8.42,-47.961 -25.56,-92.41 -59.1,-110.41 C 3872.12,547.52 3355.22,524.059 3410.88,0 h 743.34 28.04 743.33 c 55.67,524.059 -461.23,547.52 -548.71,594.449"
         id="path1012-5-2" />
    </clipPath>
    <clipPath
       clipPathUnits="userSpaceOnUse"
       id="clipPath846-3-3-9">
      <path
         d="m 6126.52,576.512 c -59.38,-61.024 -152.19,-100.34 -256.58,-100.34 -104.39,0 -197.21,39.316 -256.58,100.34 C 5458.38,533.359 5077.34,457.281 5125.11,0 h 731.04 27.57 731.04 c 47.78,457.281 -333.27,533.359 -488.24,576.512"
         id="path844-6-5-1" />
    </clipPath>
    <clipPath
       clipPathUnits="userSpaceOnUse"
       id="clipPath1014-7-6-2">
      <path
         d="m 4376.88,594.449 c -33.69,18.082 -50.83,62.852 -59.21,111.063 -46.93,-10.481 -97.76,-16.25 -150.88,-16.25 -52.06,0 -101.94,5.519 -148.1,15.597 -8.42,-47.961 -25.56,-92.41 -59.1,-110.41 C 3872.12,547.52 3355.22,524.059 3410.88,0 h 743.34 28.04 743.33 c 55.67,524.059 -461.23,547.52 -548.71,594.449"
         id="path1012-5-2-7" />
    </clipPath>
    <clipPath
       clipPathUnits="userSpaceOnUse"
       id="clipPath846-3-3-9-0">
      <path
         d="m 6126.52,576.512 c -59.38,-61.024 -152.19,-100.34 -256.58,-100.34 -104.39,0 -197.21,39.316 -256.58,100.34 C 5458.38,533.359 5077.34,457.281 5125.11,0 h 731.04 27.57 731.04 c 47.78,457.281 -333.27,533.359 -488.24,576.512"
         id="path844-6-5-1-9" />
    </clipPath>
    <clipPath
       clipPathUnits="userSpaceOnUse"
       id="clipPath1014-7-6-2-3">
      <path
         d="m 4376.88,594.449 c -33.69,18.082 -50.83,62.852 -59.21,111.063 -46.93,-10.481 -97.76,-16.25 -150.88,-16.25 -52.06,0 -101.94,5.519 -148.1,15.597 -8.42,-47.961 -25.56,-92.41 -59.1,-110.41 C 3872.12,547.52 3355.22,524.059 3410.88,0 h 743.34 28.04 743.33 c 55.67,524.059 -461.23,547.52 -548.71,594.449"
         id="path1012-5-2-7-6" />
    </clipPath>
    <clipPath
       clipPathUnits="userSpaceOnUse"
       id="clipPath846-3-3-9-0-0">
      <path
         d="m 6126.52,576.512 c -59.38,-61.024 -152.19,-100.34 -256.58,-100.34 -104.39,0 -197.21,39.316 -256.58,100.34 C 5458.38,533.359 5077.34,457.281 5125.11,0 h 731.04 27.57 731.04 c 47.78,457.281 -333.27,533.359 -488.24,576.512"
         id="path844-6-5-1-9-6" />
    </clipPath>
    <clipPath
       clipPathUnits="userSpaceOnUse"
       id="clipPath1014-7-6-2-3-2">
      <path
         d="m 4376.88,594.449 c -33.69,18.082 -50.83,62.852 -59.21,111.063 -46.93,-10.481 -97.76,-16.25 -150.88,-16.25 -52.06,0 -101.94,5.519 -148.1,15.597 -8.42,-47.961 -25.56,-92.41 -59.1,-110.41 C 3872.12,547.52 3355.22,524.059 3410.88,0 h 743.34 28.04 743.33 c 55.67,524.059 -461.23,547.52 -548.71,594.449"
         id="path1012-5-2-7-6-6" />
    </clipPath>
    <clipPath
       clipPathUnits="userSpaceOnUse"
       id="clipPath846-3-3-9-0-0-1">
      <path
         d="m 6126.52,576.512 c -59.38,-61.024 -152.19,-100.34 -256.58,-100.34 -104.39,0 -197.21,39.316 -256.58,100.34 C 5458.38,533.359 5077.34,457.281 5125.11,0 h 731.04 27.57 731.04 c 47.78,457.281 -333.27,533.359 -488.24,576.512"
         id="path844-6-5-1-9-6-8" />
    </clipPath>
  </defs>
  <g
     id="layer1"
     transform="translate(-211.73654,-445.95784)">
    <g
       id="g832"
       transform="matrix(0.1333333,0,0,-0.13333333,-7.1594478,676.05763)">
      <g
         id="g2053"
         transform="translate(-3479.2774,-16.36753)">
        <path
           d="m 6072.43,586.031 c -84.82,46.258 -61.69,269.91 -61.69,269.91 l -127.03,-8.191 v 8.16 l -13.59,-4.078 -13.59,4.078 v -8.16 l -127.03,8.191 c 0,0 23.13,-223.652 -61.69,-269.91 C 5582.99,539.762 5081.78,516.629 5135.76,0 h 720.77 27.18 720.77 c 53.98,516.629 -447.23,539.762 -532.05,586.031"
           style="fill:#f78e92;fill-opacity:1;fill-rule:nonzero;stroke:none"
           id="path834" />
        <path
           d="m 5711.69,643.719 c 101.46,15.121 202.86,30.73 304.19,46.812 -14.25,77.11 -5.14,165.41 -5.14,165.41 l -127.03,-8.191 v 8.16 l -13.59,-4.078 -13.59,4.078 v -8.16 l -127.03,8.191 c 0,0 13.39,-129.953 -17.81,-212.222"
           style="fill:#e07375;fill-opacity:1;fill-rule:nonzero;stroke:none"
           id="path836" />
        <path
           d="m 6126.51,576.512 c -59.37,-61.024 -152.18,-100.34 -256.57,-100.34 -104.39,0 -197.21,39.316 -256.58,100.34 C 5458.38,533.359 5077.34,457.281 5125.11,0 h 731.04 27.57 731.04 c 47.78,457.281 -333.27,533.359 -488.25,576.512"
           style="fill:#5b94c0;fill-opacity:1;fill-rule:nonzero;stroke:none"
           id="path838" />
        <g
           id="g840">
          <g
             id="g842"
             clip-path="url(#clipPath846-3-3-9-0-0-1)">
            <path
               d="m 6318.3,536.359 c 13.14,-19.711 26.28,-39.429 39.43,-59.14 1.04,1.73 2.08,3.461 3.12,5.191 -24.97,-5.262 -49.94,-10.519 -74.91,-15.769 1.69,-1.282 3.37,-2.551 5.06,-3.821 11.83,24.969 23.66,49.942 35.49,74.91 2.21,4.661 -6.64,4.969 -8.42,1.219 -11.82,-24.969 -23.65,-49.937 -35.48,-74.91 -1.54,-3.258 2.84,-4.289 5.07,-3.82 24.97,5.261 49.94,10.511 74.91,15.769 2.17,0.453 4.63,2.942 3.13,5.192 -13.15,19.718 -26.29,39.429 -39.43,59.14 -2.36,3.532 -10.63,0.02 -7.97,-3.961"
               style="fill:#29202e;fill-opacity:1;fill-rule:nonzero;stroke:none"
               id="path848" />
            <path
               d="m 6171.93,536.539 c 13.14,-19.707 26.28,-39.43 39.42,-59.141 1.12,1.442 2.24,2.883 3.36,4.321 -24.97,-5.258 -49.94,-10.508 -74.91,-15.77 1.6,-0.929 3.19,-1.859 4.79,-2.777 11.83,24.969 23.65,49.937 35.48,74.91 1.96,4.137 -6.83,3.469 -8.22,0.52 -11.83,-24.973 -23.66,-49.942 -35.49,-74.911 -1.45,-3.062 2.94,-3.171 4.79,-2.781 24.97,5.25 49.94,10.512 74.91,15.77 1.73,0.359 4.75,2.23 3.36,4.32 -13.14,19.711 -26.28,39.43 -39.43,59.141 -1.86,2.789 -10.29,-0.262 -8.06,-3.602"
               style="fill:#29202e;fill-opacity:1;fill-rule:nonzero;stroke:none"
               id="path850" />
            <path
               d="m 6025.56,536.699 c 13.14,-19.711 26.29,-39.429 39.43,-59.14 1.18,1.191 2.37,2.371 3.56,3.562 -24.97,-5.25 -49.94,-10.512 -74.91,-15.769 1.62,-0.43 3.24,-0.872 4.86,-1.301 11.83,24.969 23.66,49.937 35.49,74.91 1.07,2.269 -7.47,1.371 -8.7,-1.242 -11.83,-24.969 -23.66,-49.938 -35.49,-74.91 -1.03,-2.168 4.25,-1.438 4.87,-1.309 24.97,5.262 49.94,10.52 74.91,15.77 1.33,0.281 4.79,1.718 3.56,3.57 -13.14,19.711 -26.29,39.43 -39.43,59.14 -1.45,2.18 -9.94,-0.601 -8.15,-3.281"
               style="fill:#29202e;fill-opacity:1;fill-rule:nonzero;stroke:none"
               id="path852" />
            <path
               d="m 5878.94,537.172 c 13.15,-19.711 26.29,-39.434 39.43,-59.141 1.7,1.051 3.39,2.09 5.09,3.141 -24.97,-5.262 -49.94,-10.512 -74.92,-15.774 1.21,-0.429 2.42,-0.867 3.62,-1.296 11.83,24.968 23.66,49.937 35.49,74.91 0.93,1.968 -7.51,1.117 -8.67,-1.34 -11.83,-24.973 -23.66,-49.942 -35.49,-74.91 -0.77,-1.641 3.03,-1.434 3.62,-1.301 24.97,5.25 49.94,10.508 74.92,15.769 0.6,0.122 6.13,1.571 5.08,3.141 -13.14,19.707 -26.28,39.43 -39.43,59.141 -1.65,2.476 -9.77,-0.793 -8.74,-2.34"
               style="fill:#29202e;fill-opacity:1;fill-rule:nonzero;stroke:none"
               id="path854" />
            <path
               d="m 5732.97,536.488 c 13.14,-19.707 26.28,-39.418 39.43,-59.136 1.1,1.519 2.2,3.027 3.3,4.546 -24.98,-5.257 -49.95,-10.519 -74.92,-15.777 1.62,-1.012 3.24,-2.031 4.86,-3.039 11.83,24.969 23.66,49.938 35.49,74.906 2.03,4.293 -6.79,3.852 -8.28,0.703 -11.83,-24.972 -23.66,-49.941 -35.48,-74.91 -1.48,-3.133 2.92,-3.461 4.86,-3.051 24.97,5.258 49.94,10.52 74.91,15.77 1.85,0.391 4.73,2.398 3.3,4.551 -13.14,19.711 -26.29,39.418 -39.43,59.14 -1.98,2.969 -10.38,-0.179 -8.04,-3.703"
               style="fill:#29202e;fill-opacity:1;fill-rule:nonzero;stroke:none"
               id="path856" />
            <path
               d="m 5586.3,537.172 c 13.14,-19.711 26.28,-39.434 39.43,-59.141 1.7,1 3.41,2.008 5.11,3.02 -24.97,-5.262 -49.94,-10.512 -74.91,-15.77 1.19,-0.383 2.39,-0.769 3.58,-1.152 11.83,24.973 23.66,49.941 35.48,74.922 0.84,1.758 -7.52,0.969 -8.65,-1.41 -11.83,-24.969 -23.66,-49.95 -35.48,-74.922 -0.75,-1.571 3.03,-1.258 3.57,-1.137 24.97,5.25 49.95,10.508 74.92,15.77 0.56,0.117 6.09,1.546 5.11,3.019 -13.14,19.707 -26.28,39.43 -39.42,59.141 -1.58,2.367 -9.66,-0.961 -8.74,-2.34"
               style="fill:#29202e;fill-opacity:1;fill-rule:nonzero;stroke:none"
               id="path858" />
            <path
               d="m 5440.3,536.57 c 13.15,-19.718 26.29,-39.429 39.43,-59.148 1.13,1.406 2.26,2.808 3.39,4.207 -24.97,-5.258 -49.94,-10.508 -74.91,-15.77 1.58,-0.879 3.17,-1.769 4.75,-2.648 11.83,24.969 23.66,49.937 35.49,74.91 1.92,4.059 -6.86,3.277 -8.21,0.438 -11.83,-24.969 -23.65,-49.938 -35.48,-74.918 -1.44,-3.02 2.96,-3.02 4.75,-2.641 24.97,5.25 49.94,10.512 74.91,15.77 1.68,0.351 4.77,2.152 3.39,4.199 -13.14,19.722 -26.28,39.429 -39.43,59.152 -1.79,2.688 -10.24,-0.301 -8.08,-3.551"
               style="fill:#29202e;fill-opacity:1;fill-rule:nonzero;stroke:none"
               id="path860" />
            <path
               d="m 5293.96,536.66 c 13.14,-19.711 26.28,-39.43 39.42,-59.14 1.17,1.25 2.34,2.5 3.51,3.75 -24.97,-5.258 -49.94,-10.508 -74.91,-15.77 1.64,-0.5 3.28,-1 4.92,-1.488 11.82,24.968 23.65,49.937 35.48,74.91 1.17,2.476 -7.43,1.558 -8.72,-1.16 -11.83,-24.973 -23.66,-49.942 -35.48,-74.91 -1.08,-2.27 4.23,-1.641 4.91,-1.5 24.97,5.257 49.94,10.519 74.91,15.777 1.44,0.301 4.79,1.832 3.51,3.75 -13.14,19.711 -26.28,39.43 -39.42,59.141 -1.55,2.32 -10.04,-0.5 -8.13,-3.36"
               style="fill:#29202e;fill-opacity:1;fill-rule:nonzero;stroke:none"
               id="path862" />
            <path
               d="m 5147.68,536.488 c 13.14,-19.718 26.28,-39.429 39.43,-59.148 1.09,1.531 2.19,3.058 3.28,4.59 -24.97,-5.25 -49.94,-10.508 -74.91,-15.77 1.63,-1.031 3.25,-2.07 4.88,-3.101 11.82,24.972 23.65,49.941 35.48,74.91 2.05,4.32 -6.77,3.929 -8.28,0.742 -11.83,-24.973 -23.66,-49.941 -35.49,-74.91 -1.48,-3.141 2.91,-3.52 4.87,-3.11 24.98,5.258 49.95,10.52 74.92,15.778 1.87,0.39 4.72,2.429 3.29,4.582 -13.15,19.719 -26.29,39.429 -39.43,59.148 -2.01,3.012 -10.41,-0.16 -8.04,-3.711"
               style="fill:#29202e;fill-opacity:1;fill-rule:nonzero;stroke:none"
               id="path864" />
            <path
               d="m 6464.24,537.172 c 13.14,-19.711 26.28,-39.434 39.42,-59.141 1.74,0.91 3.47,1.821 5.2,2.731 -24.97,-5.262 -49.94,-10.524 -74.91,-15.782 1.16,-0.25 2.32,-0.511 3.47,-0.769 11.83,24.969 23.66,49.937 35.49,74.918 0.6,1.25 -7.57,0.621 -8.61,-1.57 -11.83,-24.969 -23.66,-49.95 -35.49,-74.918 -0.66,-1.391 3.06,-0.86 3.48,-0.77 24.97,5.258 49.94,10.508 74.92,15.77 0.45,0.097 5.99,1.527 5.19,2.73 -13.14,19.707 -26.28,39.43 -39.43,59.141 -1.4,2.109 -9.38,-1.371 -8.73,-2.34"
               style="fill:#29202e;fill-opacity:1;fill-rule:nonzero;stroke:none"
               id="path866" />
            <path
               d="m 6403.89,410.16 c 13.14,-19.719 26.29,-39.43 39.43,-59.148 1.04,1.726 2.08,3.468 3.12,5.199 -24.97,-5.262 -49.94,-10.52 -74.91,-15.781 1.69,-1.27 3.38,-2.539 5.07,-3.809 11.82,24.969 23.65,49.938 35.48,74.91 2.21,4.66 -6.63,4.969 -8.41,1.219 -11.83,-24.969 -23.66,-49.941 -35.49,-74.918 -1.54,-3.254 2.84,-4.281 5.07,-3.812 24.97,5.25 49.94,10.511 74.91,15.769 2.17,0.449 4.63,2.93 3.13,5.191 -13.14,19.711 -26.29,39.43 -39.43,59.141 -2.35,3.527 -10.62,0.02 -7.97,-3.961"
               style="fill:#29202e;fill-opacity:1;fill-rule:nonzero;stroke:none"
               id="path868" />
            <path
               d="m 6257.52,410.34 c 13.14,-19.719 26.28,-39.43 39.43,-59.141 1.12,1.442 2.24,2.883 3.36,4.321 -24.98,-5.258 -49.95,-10.52 -74.92,-15.77 1.6,-0.93 3.19,-1.859 4.79,-2.789 11.83,24.98 23.66,49.949 35.49,74.918 1.96,4.141 -6.84,3.461 -8.23,0.519 -11.83,-24.968 -23.66,-49.937 -35.49,-74.91 -1.45,-3.066 2.95,-3.168 4.79,-2.777 24.97,5.25 49.95,10.508 74.92,15.769 1.73,0.36 4.75,2.231 3.35,4.321 -13.14,19.711 -26.28,39.418 -39.42,59.14 -1.86,2.778 -10.3,-0.261 -8.07,-3.601"
               style="fill:#29202e;fill-opacity:1;fill-rule:nonzero;stroke:none"
               id="path870" />
            <path
               d="m 6111.15,410.5 c 13.15,-19.719 26.29,-39.43 39.43,-59.148 1.19,1.187 2.37,2.378 3.56,3.57 -24.97,-5.262 -49.94,-10.512 -74.91,-15.774 1.62,-0.437 3.24,-0.867 4.86,-1.308 11.83,24.969 23.66,49.941 35.49,74.922 1.07,2.258 -7.47,1.367 -8.7,-1.242 -11.83,-24.969 -23.66,-49.938 -35.49,-74.911 -1.02,-2.168 4.25,-1.437 4.87,-1.308 24.97,5.258 49.94,10.508 74.91,15.769 1.34,0.282 4.8,1.719 3.56,3.571 -13.14,19.711 -26.28,39.418 -39.43,59.14 -1.44,2.18 -9.93,-0.601 -8.15,-3.281"
               style="fill:#29202e;fill-opacity:1;fill-rule:nonzero;stroke:none"
               id="path872" />
            <path
               d="m 5964.54,410.969 c 13.14,-19.719 26.28,-39.43 39.42,-59.149 1.7,1.051 3.4,2.102 5.09,3.149 -24.97,-5.258 -49.94,-10.52 -74.91,-15.77 1.2,-0.437 2.41,-0.871 3.62,-1.301 11.82,24.973 23.65,49.942 35.48,74.911 0.93,1.972 -7.5,1.121 -8.67,-1.34 -11.83,-24.969 -23.66,-49.949 -35.48,-74.918 -0.78,-1.629 3.02,-1.422 3.61,-1.301 24.98,5.262 49.95,10.52 74.92,15.77 0.61,0.128 6.13,1.57 5.08,3.148 -13.14,19.711 -26.28,39.422 -39.42,59.141 -1.65,2.472 -9.77,-0.797 -8.74,-2.34"
               style="fill:#29202e;fill-opacity:1;fill-rule:nonzero;stroke:none"
               id="path874" />
            <path
               d="m 5818.56,410.289 c 13.14,-19.707 26.29,-39.43 39.43,-59.141 1.1,1.512 2.2,3.032 3.3,4.543 -24.97,-5.25 -49.94,-10.511 -74.91,-15.769 1.61,-1.012 3.23,-2.031 4.85,-3.051 11.83,24.981 23.66,49.949 35.49,74.918 2.03,4.289 -6.78,3.852 -8.27,0.699 -11.83,-24.968 -23.66,-49.937 -35.49,-74.91 -1.48,-3.129 2.92,-3.457 4.86,-3.047 24.97,5.258 49.94,10.508 74.91,15.77 1.85,0.39 4.73,2.398 3.3,4.539 -13.14,19.719 -26.28,39.43 -39.42,59.14 -1.99,2.981 -10.39,-0.171 -8.05,-3.691"
               style="fill:#29202e;fill-opacity:1;fill-rule:nonzero;stroke:none"
               id="path876" />
            <path
               d="m 5671.89,410.969 c 13.14,-19.719 26.29,-39.43 39.43,-59.149 1.7,1.012 3.41,2.02 5.12,3.032 -24.97,-5.262 -49.95,-10.52 -74.92,-15.77 1.2,-0.391 2.39,-0.773 3.58,-1.152 11.83,24.968 23.66,49.941 35.49,74.91 0.84,1.769 -7.53,0.969 -8.66,-1.41 -11.83,-24.969 -23.65,-49.942 -35.48,-74.91 -0.75,-1.571 3.04,-1.258 3.58,-1.149 24.97,5.258 49.94,10.52 74.91,15.77 0.56,0.121 6.1,1.558 5.12,3.027 -13.15,19.711 -26.29,39.422 -39.43,59.141 -1.58,2.371 -9.66,-0.957 -8.74,-2.34"
               style="fill:#29202e;fill-opacity:1;fill-rule:nonzero;stroke:none"
               id="path878" />
            <path
               d="m 5525.9,410.359 c 13.14,-19.711 26.28,-39.429 39.43,-59.14 1.13,1.402 2.25,2.801 3.38,4.211 -24.97,-5.258 -49.94,-10.52 -74.91,-15.77 1.59,-0.89 3.17,-1.769 4.75,-2.648 11.83,24.968 23.66,49.937 35.49,74.91 1.92,4.058 -6.86,3.277 -8.2,0.43 -11.83,-24.973 -23.66,-49.942 -35.49,-74.911 -1.43,-3.031 2.96,-3.019 4.75,-2.652 24.98,5.262 49.95,10.52 74.92,15.781 1.67,0.352 4.76,2.141 3.39,4.2 -13.15,19.718 -26.29,39.429 -39.43,59.14 -1.8,2.699 -10.25,-0.301 -8.08,-3.551"
               style="fill:#29202e;fill-opacity:1;fill-rule:nonzero;stroke:none"
               id="path880" />
            <path
               d="m 5379.55,410.461 c 13.14,-19.723 26.28,-39.43 39.43,-59.141 1.17,1.25 2.34,2.5 3.51,3.75 -24.97,-5.261 -49.94,-10.519 -74.92,-15.769 1.64,-0.5 3.28,-1 4.92,-1.5 11.83,24.969 23.66,49.937 35.48,74.918 1.18,2.472 -7.43,1.562 -8.72,-1.16 -11.83,-24.969 -23.65,-49.938 -35.48,-74.911 -1.08,-2.269 4.23,-1.636 4.91,-1.5 24.98,5.262 49.95,10.524 74.92,15.774 1.43,0.297 4.79,1.84 3.51,3.758 -13.14,19.711 -26.29,39.422 -39.43,59.14 -1.55,2.321 -10.04,-0.5 -8.13,-3.359"
               style="fill:#29202e;fill-opacity:1;fill-rule:nonzero;stroke:none"
               id="path882" />
            <path
               d="m 5233.27,410.281 c 13.15,-19.711 26.29,-39.429 39.43,-59.14 1.1,1.531 2.19,3.058 3.29,4.589 -24.97,-5.261 -49.95,-10.511 -74.92,-15.769 1.63,-1.039 3.25,-2.07 4.88,-3.102 11.83,24.973 23.66,49.942 35.48,74.911 2.05,4.32 -6.77,3.929 -8.28,0.742 -11.83,-24.973 -23.66,-49.953 -35.49,-74.922 -1.48,-3.129 2.91,-3.508 4.88,-3.102 24.97,5.262 49.94,10.524 74.91,15.774 1.87,0.398 4.72,2.437 3.29,4.59 -13.14,19.718 -26.29,39.429 -39.43,59.136 -2.01,3.024 -10.4,-0.148 -8.04,-3.707"
               style="fill:#29202e;fill-opacity:1;fill-rule:nonzero;stroke:none"
               id="path884" />
            <path
               d="m 6549.83,410.969 c 13.14,-19.719 26.28,-39.43 39.43,-59.149 1.73,0.91 3.46,1.821 5.19,2.731 -24.97,-5.25 -49.94,-10.512 -74.91,-15.77 1.16,-0.25 2.32,-0.511 3.48,-0.769 11.83,24.968 23.65,49.937 35.48,74.906 0.6,1.262 -7.57,0.621 -8.61,-1.566 -11.83,-24.973 -23.65,-49.942 -35.48,-74.911 -0.66,-1.39 3.05,-0.859 3.48,-0.769 24.97,5.25 49.94,10.508 74.91,15.769 0.46,0.09 5.99,1.528 5.2,2.727 -13.15,19.711 -26.29,39.422 -39.43,59.141 -1.41,2.109 -9.38,-1.379 -8.74,-2.34"
               style="fill:#29202e;fill-opacity:1;fill-rule:nonzero;stroke:none"
               id="path886" />
            <path
               d="m 6318.3,283.949 c 13.14,-19.711 26.28,-39.418 39.43,-59.14 1.04,1.73 2.08,3.461 3.12,5.191 -24.97,-5.25 -49.94,-10.512 -74.91,-15.77 1.69,-1.269 3.37,-2.539 5.06,-3.82 11.83,24.969 23.66,49.949 35.49,74.922 2.21,4.656 -6.64,4.969 -8.42,1.219 -11.82,-24.981 -23.65,-49.949 -35.48,-74.922 -1.54,-3.258 2.84,-4.289 5.07,-3.82 24.97,5.261 49.94,10.519 74.91,15.769 2.17,0.461 4.63,2.942 3.13,5.192 -13.15,19.718 -26.29,39.429 -39.43,59.148 -2.36,3.531 -10.63,0.023 -7.97,-3.969"
               style="fill:#29202e;fill-opacity:1;fill-rule:nonzero;stroke:none"
               id="path888" />
            <path
               d="m 6171.93,284.141 c 13.14,-19.719 26.28,-39.43 39.42,-59.153 1.12,1.442 2.24,2.883 3.36,4.321 -24.97,-5.25 -49.94,-10.508 -74.91,-15.77 1.6,-0.93 3.19,-1.848 4.79,-2.777 11.83,24.968 23.65,49.937 35.48,74.91 1.96,4.137 -6.83,3.469 -8.22,0.527 -11.83,-24.98 -23.66,-49.949 -35.49,-74.918 -1.45,-3.062 2.94,-3.172 4.79,-2.781 24.97,5.262 49.94,10.52 74.91,15.77 1.73,0.371 4.75,2.23 3.36,4.32 -13.14,19.719 -26.28,39.43 -39.43,59.14 -1.86,2.79 -10.29,-0.25 -8.06,-3.589"
               style="fill:#29202e;fill-opacity:1;fill-rule:nonzero;stroke:none"
               id="path890" />
            <path
               d="m 6025.56,284.289 c 13.14,-19.711 26.29,-39.418 39.43,-59.141 1.18,1.192 2.37,2.383 3.56,3.571 -24.97,-5.258 -49.94,-10.52 -74.91,-15.77 1.62,-0.437 3.24,-0.871 4.86,-1.308 11.83,24.968 23.66,49.941 35.49,74.91 1.07,2.269 -7.47,1.379 -8.7,-1.231 -11.83,-24.968 -23.66,-49.941 -35.49,-74.922 -1.03,-2.16 4.25,-1.429 4.87,-1.296 24.97,5.25 49.94,10.507 74.91,15.769 1.33,0.277 4.79,1.719 3.56,3.559 -13.14,19.718 -26.29,39.429 -39.43,59.148 -1.45,2.172 -9.94,-0.598 -8.15,-3.289"
               style="fill:#29202e;fill-opacity:1;fill-rule:nonzero;stroke:none"
               id="path892" />
            <path
               d="m 5878.94,284.762 c 13.15,-19.711 26.29,-39.422 39.43,-59.141 1.7,1.047 3.39,2.098 5.09,3.141 -24.97,-5.25 -49.94,-10.512 -74.92,-15.774 1.21,-0.429 2.42,-0.859 3.62,-1.297 11.83,24.969 23.66,49.95 35.49,74.918 0.93,1.961 -7.51,1.121 -8.67,-1.339 -11.83,-24.981 -23.66,-49.95 -35.49,-74.918 -0.77,-1.641 3.03,-1.422 3.62,-1.301 24.97,5.258 49.94,10.508 74.92,15.769 0.6,0.129 6.13,1.571 5.08,3.141 -13.14,19.719 -26.28,39.43 -39.43,59.148 -1.65,2.469 -9.77,-0.8 -8.74,-2.347"
               style="fill:#29202e;fill-opacity:1;fill-rule:nonzero;stroke:none"
               id="path894" />
            <path
               d="m 5732.97,284.09 c 13.14,-19.711 26.28,-39.43 39.43,-59.141 1.1,1.512 2.2,3.031 3.3,4.539 -24.98,-5.258 -49.95,-10.508 -74.92,-15.769 1.62,-1.02 3.24,-2.028 4.86,-3.047 11.83,24.969 23.66,49.937 35.49,74.91 2.03,4.297 -6.79,3.859 -8.28,0.707 -11.83,-24.98 -23.66,-49.949 -35.48,-74.918 -1.48,-3.121 2.92,-3.453 4.86,-3.043 24.97,5.25 49.94,10.512 74.91,15.774 1.85,0.386 4.73,2.398 3.3,4.539 -13.14,19.711 -26.29,39.429 -39.43,59.14 -1.98,2.981 -10.38,-0.172 -8.04,-3.691"
               style="fill:#29202e;fill-opacity:1;fill-rule:nonzero;stroke:none"
               id="path896" />
            <path
               d="m 5586.3,284.762 c 13.14,-19.711 26.28,-39.422 39.43,-59.141 1.7,1.008 3.41,2.02 5.11,3.02 -24.97,-5.25 -49.94,-10.512 -74.91,-15.77 1.19,-0.383 2.39,-0.762 3.58,-1.141 11.83,24.969 23.66,49.938 35.48,74.911 0.84,1.769 -7.52,0.968 -8.65,-1.411 -11.83,-24.968 -23.66,-49.941 -35.48,-74.91 -0.75,-1.582 3.03,-1.261 3.57,-1.152 24.97,5.262 49.95,10.512 74.92,15.773 0.56,0.118 6.09,1.547 5.11,3.02 -13.14,19.719 -26.28,39.43 -39.42,59.148 -1.58,2.371 -9.66,-0.968 -8.74,-2.347"
               style="fill:#29202e;fill-opacity:1;fill-rule:nonzero;stroke:none"
               id="path898" />
            <path
               d="m 5440.3,284.16 c 13.15,-19.711 26.29,-39.43 39.43,-59.14 1.13,1.402 2.26,2.8 3.39,4.199 -24.97,-5.25 -49.94,-10.508 -74.91,-15.77 1.58,-0.879 3.17,-1.758 4.75,-2.64 11.83,24.972 23.66,49.941 35.49,74.91 1.92,4.062 -6.86,3.281 -8.21,0.429 -11.83,-24.968 -23.65,-49.937 -35.48,-74.91 -1.44,-3.027 2.96,-3.027 4.75,-2.648 24.97,5.262 49.94,10.519 74.91,15.769 1.68,0.352 4.77,2.153 3.39,4.211 -13.14,19.711 -26.28,39.43 -39.43,59.141 -1.79,2.687 -10.24,-0.301 -8.08,-3.551"
               style="fill:#29202e;fill-opacity:1;fill-rule:nonzero;stroke:none"
               id="path900" />
            <path
               d="m 5293.96,284.262 c 13.14,-19.723 26.28,-39.434 39.42,-59.153 1.17,1.25 2.34,2.5 3.51,3.762 -24.97,-5.262 -49.94,-10.519 -74.91,-15.769 1.64,-0.5 3.28,-1 4.92,-1.5 11.82,24.968 23.65,49.937 35.48,74.91 1.17,2.476 -7.43,1.558 -8.72,-1.153 -11.83,-24.968 -23.66,-49.949 -35.48,-74.918 -1.08,-2.261 4.23,-1.632 4.91,-1.492 24.97,5.262 49.94,10.512 74.91,15.77 1.44,0.301 4.79,1.84 3.51,3.75 -13.14,19.722 -26.28,39.429 -39.42,59.152 -1.55,2.32 -10.04,-0.512 -8.13,-3.359"
               style="fill:#29202e;fill-opacity:1;fill-rule:nonzero;stroke:none"
               id="path902" />
            <path
               d="m 5147.68,284.082 c 13.14,-19.711 26.28,-39.434 39.43,-59.141 1.09,1.528 2.19,3.059 3.28,4.59 -24.97,-5.261 -49.94,-10.519 -74.91,-15.769 1.63,-1.043 3.25,-2.071 4.88,-3.114 11.82,24.973 23.65,49.954 35.48,74.922 2.05,4.321 -6.77,3.93 -8.28,0.739 -11.83,-24.981 -23.66,-49.95 -35.49,-74.918 -1.48,-3.141 2.91,-3.52 4.87,-3.102 24.98,5.262 49.95,10.512 74.92,15.77 1.87,0.39 4.72,2.441 3.29,4.589 -13.15,19.711 -26.29,39.434 -39.43,59.141 -2.01,3.02 -10.41,-0.16 -8.04,-3.707"
               style="fill:#29202e;fill-opacity:1;fill-rule:nonzero;stroke:none"
               id="path904" />
            <path
               d="m 6464.24,284.762 c 13.14,-19.711 26.28,-39.422 39.42,-59.141 1.74,0.91 3.47,1.82 5.2,2.731 -24.97,-5.262 -49.94,-10.512 -74.91,-15.774 1.16,-0.258 2.32,-0.508 3.47,-0.769 11.83,24.972 23.66,49.941 35.49,74.91 0.6,1.261 -7.57,0.621 -8.61,-1.571 -11.83,-24.968 -23.66,-49.937 -35.49,-74.91 -0.66,-1.386 3.06,-0.859 3.48,-0.777 24.97,5.258 49.94,10.519 74.92,15.777 0.45,0.094 5.99,1.532 5.19,2.723 -13.14,19.719 -26.28,39.43 -39.43,59.148 -1.4,2.11 -9.38,-1.379 -8.73,-2.347"
               style="fill:#29202e;fill-opacity:1;fill-rule:nonzero;stroke:none"
               id="path906" />
            <path
               d="m 6318.3,31.5508 c 13.14,-19.7188 26.28,-39.42971 39.43,-59.1406 1.04,1.7304 2.08,3.4609 3.12,5.1914 -24.97,-5.2618 -49.94,-10.5196 -74.91,-15.7696 1.69,-1.2812 3.37,-2.5508 5.06,-3.8203 11.83,24.9688 23.66,49.93752 35.49,74.9063 2.21,4.6601 -6.64,4.9726 -8.42,1.2226 -11.82,-24.96872 -23.65,-49.9414 -35.48,-74.9101 -1.54,-3.2618 2.84,-4.2891 5.07,-3.8203 24.97,5.25 49.94,10.5117 74.91,15.7695 2.17,0.4492 4.63,2.9297 3.13,5.1914 -13.15,19.71093 -26.29,39.4297 -39.43,59.1406 -2.36,3.5274 -10.63,0.0196 -7.97,-3.9609"
               style="fill:#29202e;fill-opacity:1;fill-rule:nonzero;stroke:none"
               id="path908" />
            <path
               d="m 6171.93,31.7305 c 13.14,-19.711 26.28,-39.42972 39.42,-59.1407 1.12,1.4414 2.24,2.8789 3.36,4.3204 -24.97,-5.2618 -49.94,-10.5196 -74.91,-15.7696 1.6,-0.9297 3.19,-1.8594 4.79,-2.7812 11.83,24.9726 23.65,49.94138 35.48,74.9101 1.96,4.1407 -6.83,3.4688 -8.22,0.5196 -11.83,-24.96879 -23.66,-49.9375 -35.49,-74.9102 -1.45,-3.0586 2.94,-3.168 4.79,-2.7773 24.97,5.25 49.94,10.5078 74.91,15.7695 1.73,0.3594 4.75,2.2305 3.36,4.3203 -13.14,19.70704 -26.28,39.4297 -39.43,59.1406 -1.86,2.7891 -10.29,-0.2617 -8.06,-3.6015"
               style="fill:#29202e;fill-opacity:1;fill-rule:nonzero;stroke:none"
               id="path910" />
            <path
               d="m 6025.56,31.8906 c 13.14,-19.7187 26.29,-39.42966 39.43,-59.1406 1.18,1.1914 2.37,2.3711 3.56,3.5586 -24.97,-5.25 -49.94,-10.5078 -74.91,-15.7695 1.62,-0.4297 3.24,-0.8672 4.86,-1.3086 11.83,24.9687 23.66,49.94919 35.49,74.9179 1.07,2.2735 -7.47,1.3711 -8.7,-1.2382 C 6013.46,7.94141 6001.63,-17.0313 5989.8,-42 c -1.03,-2.168 4.25,-1.4414 4.87,-1.3086 24.97,5.2578 49.94,10.5195 74.91,15.7695 1.33,0.2813 4.79,1.7188 3.56,3.5703 -13.14,19.70708 -26.29,39.4297 -39.43,59.1407 -1.45,2.1797 -9.94,-0.6016 -8.15,-3.2813"
               style="fill:#29202e;fill-opacity:1;fill-rule:nonzero;stroke:none"
               id="path912" />
            <path
               d="m 5878.94,32.3594 c 13.15,-19.7188 26.29,-39.42971 39.43,-59.1407 1.7,1.043 3.39,2.0899 5.09,3.1407 -24.97,-5.2578 -49.94,-10.5196 -74.92,-15.7696 1.21,-0.4414 2.42,-0.8711 3.62,-1.3007 11.83,24.9726 23.66,49.94137 35.49,74.9101 0.93,1.9727 -7.51,1.1211 -8.67,-1.3398 -11.83,-24.96877 -23.66,-49.9375 -35.49,-74.918 -0.77,-1.6328 3.03,-1.4219 3.62,-1.3008 24.97,5.2578 49.94,10.5196 74.92,15.7813 0.6,0.1172 6.13,1.5586 5.08,3.1367 -13.14,19.71093 -26.28,39.4297 -39.43,59.1406 -1.65,2.4727 -9.77,-0.789 -8.74,-2.3398"
               style="fill:#29202e;fill-opacity:1;fill-rule:nonzero;stroke:none"
               id="path914" />
            <path
               d="m 5732.97,31.6797 c 13.14,-19.7109 26.28,-39.41798 39.43,-59.1406 1.1,1.5195 2.2,3.0312 3.3,4.5429 -24.98,-5.25 -49.95,-10.5117 -74.92,-15.7734 1.62,-1.0078 3.24,-2.0274 4.86,-3.0391 11.83,24.9688 23.66,49.94144 35.49,74.9102 2.03,4.2891 -6.79,3.8516 -8.28,0.6992 -11.83,-24.96874 -23.66,-49.9375 -35.48,-74.9102 -1.48,-3.1289 2.92,-3.457 4.86,-3.0468 24.97,5.2578 49.94,10.5078 74.91,15.7695 1.85,0.3906 4.73,2.3984 3.3,4.5391 -13.14,19.71872 -26.29,39.4297 -39.43,59.1484 -1.98,2.9727 -10.38,-0.1797 -8.04,-3.6992"
               style="fill:#29202e;fill-opacity:1;fill-rule:nonzero;stroke:none"
               id="path916" />
            <path
               d="m 5586.3,32.3594 c 13.14,-19.7188 26.28,-39.42971 39.43,-59.1407 1.7,1 3.41,2.0118 5.11,3.0196 -24.97,-5.2578 -49.94,-10.5078 -74.91,-15.7696 1.19,-0.3789 2.39,-0.7695 3.58,-1.1484 11.83,24.9688 23.66,49.94142 35.48,74.918 0.84,1.7617 -7.52,0.9726 -8.65,-1.4063 -11.83,-24.98044 -23.66,-49.9531 -35.48,-74.9218 -0.75,-1.5704 3.03,-1.2618 3.57,-1.1407 24.97,5.25 49.95,10.5117 74.92,15.7696 0.56,0.1093 6.09,1.5507 5.11,3.0195 -13.14,19.71093 -26.28,39.4297 -39.42,59.1406 -1.58,2.3711 -9.66,-0.9609 -8.74,-2.3398"
               style="fill:#29202e;fill-opacity:1;fill-rule:nonzero;stroke:none"
               id="path918" />
            <path
               d="m 5440.3,31.75 c 13.15,-19.7109 26.29,-39.41797 39.43,-59.1406 1.13,1.4023 2.26,2.8125 3.39,4.2109 -24.97,-5.2617 -49.94,-10.5195 -74.91,-15.7695 1.58,-0.8789 3.17,-1.7696 4.75,-2.6524 11.83,24.9727 23.66,49.94144 35.49,74.9102 1.92,4.0625 -6.86,3.2812 -8.21,0.4414 -11.83,-24.98047 -23.65,-49.9492 -35.48,-74.9219 -1.44,-3.0195 2.96,-3.0195 4.75,-2.6484 24.97,5.2617 49.94,10.5195 74.91,15.7812 1.68,0.3477 4.77,2.1407 3.39,4.1993 -13.14,19.71871 -26.28,39.4296 -39.43,59.1484 -1.79,2.6914 -10.24,-0.2969 -8.08,-3.5586"
               style="fill:#29202e;fill-opacity:1;fill-rule:nonzero;stroke:none"
               id="path920" />
            <path
               d="m 5293.96,31.8516 c 13.14,-19.711 26.28,-39.42973 39.42,-59.1407 1.17,1.25 2.34,2.5 3.51,3.75 -24.97,-5.2617 -49.94,-10.5117 -74.91,-15.7695 1.64,-0.5 3.28,-1 4.92,-1.5 11.82,24.9688 23.65,49.94923 35.48,74.918 1.17,2.4804 -7.43,1.5625 -8.72,-1.1602 -11.83,-24.96873 -23.66,-49.9375 -35.48,-74.9101 -1.08,-2.2696 4.23,-1.6407 4.91,-1.5 24.97,5.2617 49.94,10.5195 74.91,15.7695 1.44,0.3125 4.79,1.8398 3.51,3.7617 -13.14,19.71095 -26.28,39.4297 -39.42,59.1406 -1.55,2.3204 -10.04,-0.5 -8.13,-3.3593"
               style="fill:#29202e;fill-opacity:1;fill-rule:nonzero;stroke:none"
               id="path922" />
            <path
               d="m 5147.68,31.668 c 13.14,-19.7071 26.28,-39.418 39.43,-59.1368 1.09,1.5274 2.19,3.0586 3.28,4.5899 -24.97,-5.2617 -49.94,-10.5117 -74.91,-15.7695 1.63,-1.0313 3.25,-2.0704 4.88,-3.1016 11.82,24.9687 23.65,49.94141 35.48,74.9102 2.05,4.3203 -6.77,3.9296 -8.28,0.7382 -11.83,-24.96871 -23.66,-49.9375 -35.49,-74.9179 -1.48,-3.1289 2.91,-3.5118 4.87,-3.1016 24.98,5.2617 49.95,10.5195 74.92,15.7695 1.87,0.4024 4.72,2.4414 3.29,4.5899 -13.15,19.72264 -26.29,39.4336 -39.43,59.1523 -2.01,3.0078 -10.41,-0.1601 -8.04,-3.7226"
               style="fill:#29202e;fill-opacity:1;fill-rule:nonzero;stroke:none"
               id="path924" />
            <path
               d="m 6464.24,32.3594 c 13.14,-19.7188 26.28,-39.42971 39.42,-59.1407 1.74,0.9102 3.47,1.8204 5.2,2.7305 -24.97,-5.2578 -49.94,-10.5195 -74.91,-15.7773 1.16,-0.25 2.32,-0.5117 3.47,-0.7735 11.83,24.9727 23.66,49.94144 35.49,74.9219 0.6,1.25 -7.57,0.6211 -8.61,-1.582 -11.83,-24.96877 -23.66,-49.9375 -35.49,-74.9063 -0.66,-1.3906 3.06,-0.8633 3.48,-0.7734 24.97,5.2617 49.94,10.5117 74.92,15.7734 0.45,0.0977 5.99,1.5274 5.19,2.7266 -13.14,19.71093 -26.28,39.4297 -39.43,59.1406 -1.4,2.1094 -9.38,-1.3711 -8.73,-2.3398"
               style="fill:#29202e;fill-opacity:1;fill-rule:nonzero;stroke:none"
               id="path926" />
            <path
               d="m 6403.89,157.75 c 13.14,-19.711 26.29,-39.43 39.43,-59.1406 1.04,1.7306 2.08,3.4606 3.12,5.1916 -24.97,-5.2619 -49.94,-10.5119 -74.91,-15.7697 1.69,-1.2696 3.38,-2.5508 5.07,-3.8204 11.82,24.9691 23.65,49.9371 35.48,74.9101 2.21,4.66 -6.63,4.981 -8.41,1.219 -11.83,-24.969 -23.66,-49.942 -35.49,-74.9103 -1.54,-3.2578 2.84,-4.2891 5.07,-3.8203 24.97,5.2617 49.94,10.5117 74.91,15.7695 2.17,0.4609 4.63,2.9411 3.13,5.1911 -13.14,19.719 -26.29,39.43 -39.43,59.149 -2.35,3.531 -10.62,0.011 -7.97,-3.969"
               style="fill:#29202e;fill-opacity:1;fill-rule:nonzero;stroke:none"
               id="path928" />
            <path
               d="m 6257.52,157.93 c 13.14,-19.711 26.28,-39.418 39.43,-59.1409 1.12,1.4409 2.24,2.8789 3.36,4.3199 -24.98,-5.2574 -49.95,-10.5074 -74.92,-15.7692 1.6,-0.9296 3.19,-1.8515 4.79,-2.7812 11.83,24.9724 23.66,49.9414 35.49,74.9104 1.96,4.14 -6.84,3.472 -8.23,0.519 -11.83,-24.968 -23.66,-49.937 -35.49,-74.9099 -1.45,-3.0586 2.95,-3.1679 4.79,-2.7773 24.97,5.2578 49.95,10.5078 74.92,15.7695 1.73,0.3594 4.75,2.2307 3.35,4.3207 -13.14,19.711 -26.28,39.429 -39.42,59.14 -1.86,2.789 -10.3,-0.25 -8.07,-3.601"
               style="fill:#29202e;fill-opacity:1;fill-rule:nonzero;stroke:none"
               id="path930" />
            <path
               d="m 6111.15,158.09 c 13.15,-19.711 26.29,-39.43 39.43,-59.1408 1.19,1.1918 2.37,2.3788 3.56,3.5708 -24.97,-5.2583 -49.94,-10.52 -74.91,-15.7817 1.62,-0.4297 3.24,-0.8672 4.86,-1.2969 11.83,24.9686 23.66,49.9376 35.49,74.9106 1.07,2.269 -7.47,1.367 -8.7,-1.231 -11.83,-24.973 -23.66,-49.953 -35.49,-74.9218 -1.02,-2.1679 4.25,-1.4375 4.87,-1.3086 24.97,5.2578 49.94,10.5196 74.91,15.7813 1.34,0.2773 4.8,1.7071 3.56,3.5581 -13.14,19.719 -26.28,39.43 -39.43,59.141 -1.44,2.18 -9.93,-0.601 -8.15,-3.281"
               style="fill:#29202e;fill-opacity:1;fill-rule:nonzero;stroke:none"
               id="path932" />
            <path
               d="m 5964.54,158.559 c 13.14,-19.707 26.28,-39.43 39.42,-59.1371 1.7,1.0471 3.4,2.0981 5.09,3.1371 -24.97,-5.2582 -49.94,-10.5082 -74.91,-15.7699 1.2,-0.4297 2.41,-0.8672 3.62,-1.3008 11.82,24.9727 23.65,49.9417 35.48,74.9097 0.93,1.973 -7.5,1.133 -8.67,-1.339 -11.83,-24.969 -23.66,-49.938 -35.48,-74.9106 -0.78,-1.6367 3.02,-1.4296 3.61,-1.2968 24.98,5.25 49.95,10.5078 74.92,15.7695 0.61,0.1289 6.13,1.5699 5.08,3.1409 -13.14,19.718 -26.28,39.429 -39.42,59.136 -1.65,2.481 -9.77,-0.789 -8.74,-2.339"
               style="fill:#29202e;fill-opacity:1;fill-rule:nonzero;stroke:none"
               id="path934" />
            <path
               d="m 5818.56,157.891 c 13.14,-19.719 26.29,-39.43 39.43,-59.141 1.1,1.512 2.2,3.02 3.3,4.539 -24.97,-5.2577 -49.94,-10.5195 -74.91,-15.7695 1.61,-1.0195 3.23,-2.0312 4.85,-3.0507 11.83,24.9722 23.66,49.9412 35.49,74.9102 2.03,4.293 -6.78,3.851 -8.27,0.699 -11.83,-24.969 -23.66,-49.937 -35.49,-74.9061 -1.48,-3.1328 2.92,-3.461 4.86,-3.0508 24.97,5.2578 49.94,10.5195 74.91,15.7695 1.85,0.3907 4.73,2.4104 3.3,4.5504 -13.14,19.707 -26.28,39.43 -39.42,59.141 -1.99,2.969 -10.39,-0.184 -8.05,-3.691"
               style="fill:#29202e;fill-opacity:1;fill-rule:nonzero;stroke:none"
               id="path936" />
            <path
               d="m 5671.89,158.559 c 13.14,-19.707 26.29,-39.43 39.43,-59.1371 1.7,1.0081 3.41,2.0081 5.12,3.0191 -24.97,-5.2613 -49.95,-10.5113 -74.92,-15.773 1.2,-0.3789 2.39,-0.7578 3.58,-1.1485 11.83,24.9685 23.66,49.9495 35.49,74.9215 0.84,1.77 -7.53,0.969 -8.66,-1.41 -11.83,-24.972 -23.65,-49.941 -35.48,-74.9216 -0.75,-1.5703 3.04,-1.2578 3.58,-1.1406 24.97,5.2617 49.94,10.5117 74.91,15.7695 0.56,0.1211 6.1,1.5507 5.12,3.0237 -13.15,19.718 -26.29,39.429 -39.43,59.136 -1.58,2.372 -9.66,-0.957 -8.74,-2.339"
               style="fill:#29202e;fill-opacity:1;fill-rule:nonzero;stroke:none"
               id="path938" />
            <path
               d="m 5525.9,157.961 c 13.14,-19.723 26.28,-39.43 39.43,-59.1524 1.13,1.4104 2.25,2.8124 3.38,4.2114 -24.97,-5.2583 -49.94,-10.5083 -74.91,-15.77 1.59,-0.8789 3.17,-1.7617 4.75,-2.6484 11.83,24.9684 23.66,49.9494 35.49,74.9184 1.92,4.058 -6.86,3.269 -8.2,0.429 -11.83,-24.969 -23.66,-49.937 -35.49,-74.9099 -1.43,-3.0274 2.96,-3.0274 4.75,-2.6485 24.98,5.25 49.95,10.5078 74.92,15.7696 1.67,0.3515 4.76,2.1488 3.39,4.2108 -13.15,19.707 -26.29,39.418 -39.43,59.141 -1.8,2.687 -10.25,-0.301 -8.08,-3.551"
               style="fill:#29202e;fill-opacity:1;fill-rule:nonzero;stroke:none"
               id="path940" />
            <path
               d="m 5379.55,158.051 c 13.14,-19.711 26.28,-39.422 39.43,-59.1408 1.17,1.2498 2.34,2.4998 3.51,3.7498 -24.97,-5.2498 -49.94,-10.5116 -74.92,-15.7694 1.64,-0.5 3.28,-0.9922 4.92,-1.4922 11.83,24.9726 23.66,49.9416 35.48,74.9106 1.18,2.48 -7.43,1.562 -8.72,-1.161 -11.83,-24.968 -23.65,-49.937 -35.48,-74.9097 -1.08,-2.2578 4.23,-1.6367 4.91,-1.4883 24.98,5.25 49.95,10.5117 74.92,15.7695 1.43,0.3008 4.79,1.8325 3.51,3.7505 -13.14,19.718 -26.29,39.429 -39.43,59.14 -1.55,2.328 -10.04,-0.5 -8.13,-3.359"
               style="fill:#29202e;fill-opacity:1;fill-rule:nonzero;stroke:none"
               id="path942" />
            <path
               d="m 5233.27,157.879 c 13.15,-19.719 26.29,-39.43 39.43,-59.1485 1.1,1.5395 2.19,3.0585 3.29,4.5895 -24.97,-5.2497 -49.95,-10.5114 -74.92,-15.7692 1.63,-1.0313 3.25,-2.0703 4.88,-3.1016 11.83,24.9728 23.66,49.9418 35.48,74.9098 2.05,4.321 -6.77,3.93 -8.28,0.743 -11.83,-24.973 -23.66,-49.942 -35.49,-74.9106 -1.48,-3.1406 2.91,-3.5234 4.88,-3.1133 24.97,5.2617 49.94,10.5235 74.91,15.7813 1.87,0.3906 4.72,2.4416 3.29,4.5896 -13.14,19.711 -26.29,39.422 -39.43,59.141 -2.01,3.012 -10.4,-0.16 -8.04,-3.711"
               style="fill:#29202e;fill-opacity:1;fill-rule:nonzero;stroke:none"
               id="path944" />
            <path
               d="m 6549.83,158.559 c 13.14,-19.707 26.28,-39.43 39.43,-59.1371 1.73,0.9101 3.46,1.8161 5.19,2.7261 -24.97,-5.2574 -49.94,-10.5191 -74.91,-15.7691 1.16,-0.2578 2.32,-0.5195 3.48,-0.7695 11.83,24.9726 23.65,49.9416 35.48,74.9106 0.6,1.25 -7.57,0.621 -8.61,-1.571 -11.83,-24.969 -23.65,-49.937 -35.48,-74.9177 -0.66,-1.3907 3.05,-0.8594 3.48,-0.7696 24.97,5.2578 49.94,10.5196 74.91,15.7696 0.46,0.0976 5.99,1.5277 5.2,2.7307 -13.15,19.718 -26.29,39.429 -39.43,59.136 -1.41,2.122 -9.38,-1.367 -8.74,-2.339"
               style="fill:#29202e;fill-opacity:1;fill-rule:nonzero;stroke:none"
               id="path946" />
          </g>
        </g>
        <path
           d="m 5747.9,886.328 c 0,0 -128.01,31.641 -239.88,-15.359 -111.86,-46.989 -96.24,270.461 -87.5,281.581 8.74,11.12 215.26,136.62 215.26,136.62 L 5747.9,886.328"
           style="fill:#d6ac92;fill-opacity:1;fill-rule:nonzero;stroke:none"
           id="path948" />
        <path
           d="m 5969.44,890.73 c 0,0 129.67,23.969 238.54,-29.601 108.87,-53.559 112.16,264.261 104.1,275.881 -8.06,11.62 -206.74,149.18 -206.74,149.18 l -135.9,-395.46"
           style="fill:#d6ac92;fill-opacity:1;fill-rule:nonzero;stroke:none"
           id="path950" />
        <path
           d="m 5621.75,1183.3 c -24.99,77.53 -84.17,59.58 -89.71,57.71 -5.81,-0.68 -66.98,-9.76 -56.41,-90.54 10.63,-81.25 57.78,-125.29 101.98,-112.35 45.5,7.21 69.28,67.18 44.14,145.18"
           style="fill:#e07375;fill-opacity:1;fill-rule:nonzero;stroke:none"
           id="path952" />
        <path
           d="m 6120.77,1183.3 c 24.99,77.53 84.17,59.58 89.71,57.71 5.81,-0.68 66.98,-9.76 56.41,-90.54 -10.63,-81.25 -57.77,-125.29 -101.98,-112.35 -45.5,7.21 -69.28,67.18 -44.14,145.18"
           style="fill:#e07375;fill-opacity:1;fill-rule:nonzero;stroke:none"
           id="path954" />
        <path
           d="m 5561.12,1300.75 c 30.97,339.91 289.38,320.87 313.75,318.31 24.37,2.56 282.78,21.6 313.75,-318.31 31.15,-341.93 -121.15,-565.238 -313.75,-552.961 -192.6,-12.277 -344.9,211.031 -313.75,552.961"
           style="fill:#f78e92;fill-opacity:1;fill-rule:nonzero;stroke:none"
           id="path956" />
        <path
           d="m 5520.41,1214.55 88.74,-68.3 215.95,-10.76 2.28,2.52 0.03,0.04 c 0.56,0.61 7.54,8.04 18.68,15.15 11.14,7.14 26.3,13.85 43.29,13.83 16.68,-0.06 35.54,-6.15 56,-26.01 l 2.04,-1.99 198.79,-3.43 84.71,68.7 -9.03,11.14 -80.66,-65.41 -190.72,3.29 -0.12,-7.17 5,5.14 c -22.51,22.04 -45.59,30.14 -66.01,30.08 -21.47,-0.02 -39.54,-8.56 -52.22,-16.87 -12.7,-8.34 -20.15,-16.58 -20.43,-16.88 l 5.32,-4.8 0.36,7.16 -208.06,10.37 -85.19,65.56 -8.74,-11.36"
           style="fill:#704e61;fill-opacity:1;fill-rule:nonzero;stroke:none"
           id="path958" />
        <path
           d="m 5613.59,1152.28 c 0,-58.06 47.06,-105.12 105.12,-105.12 58.06,0 105.12,47.06 105.12,105.12 0,58.05 -47.06,105.12 -105.12,105.12 -58.06,0 -105.12,-47.07 -105.12,-105.12"
           style="fill:#93c8d9;fill-opacity:1;fill-rule:nonzero;stroke:none"
           id="path960" />
        <path
           d="m 5613.59,1152.28 h -6.7 c 0.01,-61.76 50.06,-111.81 111.82,-111.82 61.75,0.01 111.81,50.06 111.81,111.82 0,61.75 -50.06,111.81 -111.81,111.81 -61.76,0 -111.81,-50.06 -111.82,-111.81 h 6.7 6.69 c 0,27.2 11.01,51.76 28.83,69.6 17.83,17.82 42.4,28.82 69.6,28.83 27.2,-0.01 51.76,-11.01 69.6,-28.83 17.82,-17.84 28.82,-42.4 28.83,-69.6 -0.01,-27.21 -11.01,-51.77 -28.83,-69.6 -17.84,-17.83 -42.4,-28.83 -69.6,-28.83 -27.2,0 -51.77,11 -69.6,28.83 -17.82,17.83 -28.83,42.39 -28.83,69.6 h -6.69"
           style="fill:#704e61;fill-opacity:1;fill-rule:nonzero;stroke:none"
           id="path962" />
        <path
           d="m 5938.5,1152.28 c 0,-58.06 47.06,-105.12 105.12,-105.12 58.06,0 105.12,47.06 105.12,105.12 0,58.05 -47.06,105.12 -105.12,105.12 -58.06,0 -105.12,-47.07 -105.12,-105.12"
           style="fill:#93c8d9;fill-opacity:1;fill-rule:nonzero;stroke:none"
           id="path964" />
        <path
           d="m 5938.5,1152.28 h -6.69 c 0,-61.76 50.05,-111.81 111.81,-111.82 61.76,0.01 111.81,50.06 111.81,111.82 0,61.75 -50.05,111.81 -111.81,111.81 -61.76,0 -111.81,-50.06 -111.81,-111.81 h 6.69 6.69 c 0.01,27.2 11.01,51.76 28.83,69.6 17.83,17.82 42.4,28.82 69.6,28.83 27.2,-0.01 51.77,-11.01 69.6,-28.83 17.82,-17.84 28.83,-42.4 28.83,-69.6 0,-27.21 -11.01,-51.77 -28.83,-69.6 -17.83,-17.83 -42.4,-28.83 -69.6,-28.83 -27.2,0 -51.77,11 -69.6,28.83 -17.82,17.83 -28.82,42.39 -28.83,69.6 h -6.69"
           style="fill:#704e61;fill-opacity:1;fill-rule:nonzero;stroke:none"
           id="path966" />
        <path
           d="m 5919.43,1132.49 c 4.26,-7.85 7.55,-15.91 10.52,-24.03 2.94,-8.13 5.43,-16.35 7.65,-24.63 1.18,-4.12 2,-8.32 3.02,-12.48 1.05,-4.15 1.83,-8.36 2.59,-12.58 1.68,-8.39 2.86,-16.88 3.81,-25.43 l 0.45,-4 -2.17,-1.98 c -6.93,-6.35 -14.05,-12.51 -21.29,-18.56 -7.36,-5.95 -14.67,-11.929 -22.58,-17.339 5.13,8.09 10.85,15.609 16.52,23.179 5.79,7.45 11.69,14.79 17.79,21.95 l -1.72,-5.98 c -2.57,8.21 -4.9,16.46 -6.74,24.82 -1,4.16 -1.97,8.33 -2.68,12.56 -0.74,4.21 -1.67,8.39 -2.26,12.64 -1.29,8.47 -2.31,17 -2.89,25.63 -0.55,8.63 -0.77,17.33 -0.02,26.23"
           style="fill:#e07375;fill-opacity:1;fill-rule:nonzero;stroke:none"
           id="path968" />
        <path
           d="M 6006.61,930.398 C 5945.09,870.59 5840.88,873.91 5761.95,927.199"
           style="fill:#ffffff;fill-opacity:1;fill-rule:nonzero;stroke:none"
           id="path970" />
        <path
           d="m 6118.56,1247.74 c 0,0 -2.69,1.49 -7.4,4.1 -2.29,1.25 -5.07,2.77 -8.25,4.52 -3.12,1.65 -6.64,3.51 -10.49,5.54 -3.97,1.7 -7.94,3.99 -12.38,5.73 -2.15,0.96 -4.36,1.94 -6.62,2.95 -2.27,0.83 -4.6,1.67 -6.97,2.54 -4.6,2.04 -9.62,2.79 -14.4,4.48 -4.95,0.51 -9.82,2.39 -14.77,2.2 l -7.37,0.6 c -2.42,-0.29 -4.85,-0.37 -7.28,-0.51 -4.92,0.21 -9.49,-1.62 -14.24,-2.21 -4.73,-0.75 -8.98,-3.04 -13.43,-4.21 l -3.29,-1.02 -2.99,-1.51 c -2.03,-0.96 -4,-1.87 -5.89,-2.76 -3.75,-1.86 -7.6,-3.2 -10.5,-5.22 -2.98,-1.87 -5.81,-3.34 -8.14,-4.62 -4.67,-2.52 -7.66,-3.85 -7.66,-3.85 0,0 1.18,2.85 3.82,7.6 1.33,2.37 2.93,5.33 5.04,8.53 1.86,3.44 4.81,6.58 8.16,9.99 3.46,3.25 6.58,7.75 11.48,10.59 4.78,2.92 9.51,6.88 15.45,9.08 2.93,1.19 5.99,2.25 9.1,3.35 3.05,1.3 6.34,1.86 9.71,2.25 3.35,0.46 6.74,0.98 10.16,1.29 3.4,-0.04 6.83,-0.28 10.25,-0.47 6.94,-0.14 13.35,-2.44 19.78,-4.01 3.09,-1.11 6.04,-2.45 8.97,-3.72 2.97,-1.2 5.76,-2.58 8.31,-4.29 2.6,-1.6 5.17,-3.1 7.59,-4.73 2.26,-1.79 4.48,-3.54 6.64,-5.25 4.37,-3.3 7.69,-7.35 11,-10.65 6.22,-7.09 10.51,-13.62 13.04,-18.48 2.63,-4.8 3.57,-7.83 3.57,-7.83"
           style="fill:#29202e;fill-opacity:1;fill-rule:nonzero;stroke:none"
           id="path972" />
        <path
           d="m 5796.67,1247.74 c 0,0 -2.69,1.49 -7.4,4.1 -2.29,1.25 -5.07,2.77 -8.25,4.52 -3.12,1.65 -6.64,3.51 -10.49,5.54 -3.97,1.7 -7.93,3.99 -12.38,5.73 -2.15,0.96 -4.36,1.94 -6.61,2.95 -2.28,0.83 -4.61,1.67 -6.98,2.54 -4.6,2.04 -9.62,2.79 -14.4,4.48 -4.95,0.51 -9.82,2.39 -14.77,2.2 l -7.37,0.6 c -2.42,-0.29 -4.85,-0.37 -7.27,-0.51 -4.93,0.21 -9.5,-1.62 -14.25,-2.21 -4.73,-0.75 -8.98,-3.04 -13.43,-4.21 l -3.28,-1.02 -3,-1.51 c -2.03,-0.96 -4,-1.87 -5.89,-2.76 -3.75,-1.86 -7.6,-3.2 -10.49,-5.22 -2.99,-1.87 -5.82,-3.34 -8.14,-4.62 -4.67,-2.52 -7.67,-3.85 -7.67,-3.85 0,0 1.19,2.85 3.82,7.6 1.33,2.37 2.93,5.33 5.04,8.53 1.86,3.44 4.81,6.58 8.16,9.99 3.46,3.25 6.58,7.75 11.48,10.59 4.78,2.92 9.51,6.88 15.45,9.08 2.93,1.19 5.99,2.25 9.1,3.35 3.05,1.3 6.34,1.86 9.71,2.25 3.35,0.46 6.75,0.98 10.16,1.29 3.41,-0.04 6.83,-0.28 10.25,-0.47 6.94,-0.14 13.35,-2.44 19.78,-4.01 3.09,-1.11 6.04,-2.45 8.97,-3.72 2.97,-1.2 5.77,-2.58 8.31,-4.29 2.6,-1.6 5.17,-3.1 7.59,-4.73 2.27,-1.79 4.48,-3.54 6.64,-5.25 4.38,-3.3 7.69,-7.35 11,-10.65 6.22,-7.09 10.51,-13.62 13.04,-18.48 2.63,-4.8 3.57,-7.83 3.57,-7.83"
           style="fill:#29202e;fill-opacity:1;fill-rule:nonzero;stroke:none"
           id="path974" />
        <path
           d="m 5786.46,1124.57 c 0,0 -0.7,2.76 -2.27,7.38 -1.57,4.61 -4.01,11.12 -7.82,18.24 -3.86,7.06 -9.25,14.74 -16.76,20.34 -3.71,2.83 -7.96,5.08 -12.57,6.48 -2.27,0.8 -4.59,1.55 -7.1,1.71 -2.45,0.33 -4.87,0.85 -7.45,0.59 -2.38,-0.09 -5.41,0.21 -7.26,-0.13 -2.6,-0.5 -5.86,-0.63 -7.87,-1.42 -4.06,-1.32 -8.69,-2.87 -12.18,-5.78 -3.73,-2.56 -6.62,-6.07 -9.22,-9.55 -2.34,-3.69 -4.34,-7.45 -5.81,-11.18 -2.9,-7.45 -4.37,-14.25 -5.23,-19.04 -0.85,-4.8 -1.1,-7.64 -1.1,-7.64 0,0 -0.76,2.74 -1.27,7.72 -0.47,4.96 -0.76,12.23 1.02,20.91 0.86,4.34 2.35,9 4.68,13.71 2.54,4.57 5.61,9.52 10.32,13.25 4.42,4.02 9.93,6.97 16.33,8.87 3.18,1.09 5.57,1.12 8.42,1.74 3.64,0.63 6.26,0.31 9.45,0.48 3.04,0.17 6.13,-0.47 9.18,-0.97 3.08,-0.33 6.04,-1.31 8.94,-2.41 3,-0.83 5.66,-2.38 8.25,-3.98 2.71,-1.38 4.9,-3.42 7.15,-5.28 8.76,-7.77 13.63,-17.47 16.35,-25.73 2.79,-8.32 3.58,-15.52 3.87,-20.49 0.25,-4.99 -0.05,-7.82 -0.05,-7.82"
           style="fill:#29202e;fill-opacity:1;fill-rule:nonzero;stroke:none"
           id="path976" />
        <path
           d="m 6075.72,1129.23 c 0,0 -0.7,2.77 -2.27,7.39 -1.57,4.61 -4.01,11.11 -7.82,18.23 -3.86,7.06 -9.25,14.74 -16.77,20.34 -3.7,2.83 -7.95,5.08 -12.56,6.49 -2.27,0.8 -4.59,1.54 -7.1,1.71 -2.45,0.32 -4.88,0.84 -7.45,0.59 -2.38,-0.1 -5.42,0.21 -7.26,-0.14 -2.6,-0.49 -5.86,-0.62 -7.87,-1.41 -4.06,-1.33 -8.69,-2.87 -12.18,-5.78 -3.74,-2.56 -6.62,-6.07 -9.22,-9.56 -2.34,-3.68 -4.34,-7.45 -5.81,-11.17 -2.9,-7.46 -4.37,-14.26 -5.23,-19.04 -0.85,-4.81 -1.1,-7.65 -1.1,-7.65 0,0 -0.76,2.75 -1.27,7.73 -0.47,4.96 -0.76,12.22 1.02,20.9 0.86,4.34 2.35,9.01 4.68,13.72 2.54,4.56 5.61,9.52 10.32,13.25 4.42,4.02 9.93,6.97 16.33,8.87 3.18,1.08 5.57,1.12 8.42,1.73 3.64,0.64 6.25,0.32 9.45,0.48 3.04,0.18 6.12,-0.46 9.17,-0.96 3.09,-0.34 6.04,-1.31 8.95,-2.41 2.99,-0.83 5.66,-2.38 8.25,-3.98 2.71,-1.39 4.9,-3.43 7.15,-5.28 8.76,-7.78 13.63,-17.47 16.35,-25.73 2.79,-8.32 3.58,-15.52 3.87,-20.49 0.25,-5 -0.05,-7.83 -0.05,-7.83"
           style="fill:#29202e;fill-opacity:1;fill-rule:nonzero;stroke:none"
           id="path978" />
        <path
           d="m 5573.72,1659.47 c 0,0 96.67,123.34 290,43.34 110,70 193.33,36.66 273.33,-23.34 l -256.66,-130 -306.67,110"
           style="fill:#fcd0b0;fill-opacity:1;fill-rule:nonzero;stroke:none"
           id="path980" />
        <path
           d="m 5222.03,941.629 c 0,0 -1.12,3.312 -3.21,9.519 -2.2,6.18 -5.03,15.364 -8.13,27.293 -1.44,5.981 -2.75,12.649 -4.34,19.918 -1.27,7.311 -2.43,15.281 -3.56,23.831 -1.4,17.14 -2.76,36.85 0.57,58.16 3.28,21.11 8.69,44.39 20.68,66.32 2.37,5.8 6.24,10.83 9.47,16.34 3.34,5.45 6.71,11 11,15.93 4.09,5.07 8.11,10.35 12.48,15.36 4.73,4.67 9.51,9.39 14.33,14.14 4.64,4.98 10.1,9.03 15.44,13.33 5.42,4.17 10.6,8.82 16.34,12.67 11.7,7.29 22.95,15.91 35.69,21.88 12.21,6.4 24.52,12.85 36.88,19.33 10.94,6.74 21.91,14.08 31.48,23.28 19.76,17.56 34.43,40.22 45.36,64.31 10.64,24.3 18.37,49.78 24.66,74.96 6.25,25.21 11.93,49.95 18.32,73.32 6.3,23.39 13.8,45.32 22.84,64.69 8.89,19.45 19.67,36.08 30.78,49.41 11.33,13.2 22.7,23.18 32.63,30.51 10.01,7.23 18.41,12.08 24.33,14.93 5.84,2.97 8.96,4.57 8.96,4.57 0,0 -2.93,-1.92 -8.41,-5.51 -5.59,-3.37 -13.17,-9.29 -22.44,-17.02 -9.13,-7.95 -19.35,-18.53 -29.18,-32.04 -9.59,-13.69 -18.53,-30.31 -26.12,-49.38 -7.54,-19.11 -13.56,-40.65 -18.91,-63.81 -4.98,-23.45 -10.24,-48.18 -15.67,-73.77 -5.91,-25.68 -12.72,-52.58 -24.14,-78.69 -11.49,-25.96 -27.51,-51.39 -49.51,-71.21 -10.68,-10.09 -23.08,-18.36 -35.91,-25.97 -12.33,-6.33 -24.61,-12.64 -36.8,-18.89 l -8.95,-4.59 c -2.92,-1.61 -5.65,-3.52 -8.49,-5.21 -5.65,-3.48 -11.26,-6.94 -16.85,-10.38 -5.53,-3.51 -10.45,-7.75 -15.66,-11.54 -5.13,-3.91 -10.41,-7.59 -14.81,-12.13 -4.61,-4.32 -9.19,-8.61 -13.72,-12.86 -4.07,-4.67 -8.09,-9.29 -12.08,-13.87 -4.22,-4.42 -7.51,-9.42 -10.81,-14.34 -3.19,-4.98 -7.05,-9.52 -9.43,-14.8 -2.69,-5.12 -5.34,-10.18 -7.96,-15.15 -2.05,-5.24 -4.08,-10.4 -6.07,-15.48 -2.28,-5 -3.36,-10.29 -4.83,-15.36 -1.35,-5.11 -3.02,-10.07 -3.64,-15.14 -0.85,-5.04 -1.69,-9.98 -2.51,-14.8 -0.41,-4.89 -0.82,-9.66 -1.22,-14.32 -1.19,-9.32 -0.45,-18.27 -0.73,-26.67 0.43,-8.38 0.94,-16.27 1.61,-23.54 0.98,-7.25 1.88,-13.922 2.69,-19.93 2.24,-11.921 3.77,-21.429 5.38,-27.789 1.42,-6.402 2.17,-9.812 2.17,-9.812"
           style="fill:#fcd0b0;fill-opacity:1;fill-rule:nonzero;stroke:none"
           id="path982" />
        <path
           d="m 5885.8,1506.36 c 0,0 -3.18,1.47 -9.34,3.55 -6.17,2.05 -15.29,4.91 -27.08,7.07 -11.74,2.08 -26.33,3.55 -42.2,1.26 -15.81,-2.29 -32.54,-9.65 -44.96,-23.78 -1.56,-1.74 -3.13,-3.5 -4.72,-5.28 -1.26,-2.08 -2.53,-4.18 -3.81,-6.3 -1.28,-2.11 -2.57,-4.23 -3.87,-6.37 -1.28,-2.16 -1.99,-4.74 -3.03,-7.11 -0.97,-2.41 -1.96,-4.83 -2.95,-7.28 l -1.4,-3.3 -1.22,-4.17 c -1.58,-5.55 -3.39,-11.27 -4.85,-16.92 -5.44,-21.64 -8.18,-46.56 -11.6,-72.36 -3.41,-25.85 -7.32,-53.98 -18.02,-81.22 -10.43,-27.21 -26.76,-52.85 -46.69,-74.28 -4.95,-5.38 -10.43,-10.17 -15.63,-15.26 -5.13,-5.2 -10.75,-9.71 -16.39,-14.15 -5.63,-4.43 -11.1,-9.12 -16.85,-13.29 -5.84,-4.01 -11.67,-8.01 -17.47,-11.99 -12.41,-8.46 -21.59,-14.43 -28.35,-22.77 -7.12,-8.47 -11.64,-18.61 -13.77,-29.67 -4.05,-22.27 -0.16,-46.64 5.22,-69.13 5.5,-22.61 12.28,-44.149 17.99,-64.29 5.89,-20.109 10.61,-39 13.28,-56.121 2.81,-17.09 3.15,-32.5 1.29,-44.918 -1.71,-12.5 -6.04,-21.531 -9.05,-27.332 -3.58,-5.57 -5.59,-8.371 -5.59,-8.371 0,0 1.45,3.152 4.17,9.043 2.11,6.117 4.53,15.258 4.72,27.117 0.22,11.852 -2.1,26.153 -6.4,42.16 -4.36,16.032 -10.88,33.731 -18.21,53.153 -7.4,19.418 -16.03,40.389 -23.09,63.889 -6.92,23.3 -13.79,49.67 -9.48,79.17 2.18,14.58 8.08,29.68 17.79,42.11 2.45,3.08 4.78,6.21 7.96,9.03 2.89,2.7 6.27,6.2 8.79,7.87 l 8.86,6.48 8.13,5.74 c 5.43,3.82 10.89,7.66 16.36,11.5 5.35,3.99 10.31,8.39 15.51,12.57 5.2,4.18 10.36,8.41 14.91,13.19 4.66,4.67 9.62,9.13 14.05,13.97 18.15,19.09 32.41,41.03 41.89,64.77 9.5,23.77 14.76,49.17 18.88,74.78 4.16,25.72 8.54,50.82 16.25,75.17 1.89,5.81 3.98,11.22 5.91,16.72 l 1.47,4.09 c 0.89,2.11 1.41,2.99 2.13,4.53 1.37,2.76 2.73,5.49 4.07,8.2 1.45,2.66 2.52,5.43 4.24,7.91 1.77,2.44 3.53,4.87 5.26,7.27 1.75,2.37 3.49,4.72 5.2,7.04 2.12,2.03 4.22,4.05 6.3,6.04 16.6,16.18 38.06,22.62 55.73,23.14 17.92,0.77 32.89,-3.02 44.66,-6.69 11.85,-3.68 20.43,-8.27 26.28,-11.19 5.81,-3.05 8.72,-4.99 8.72,-4.99"
           style="fill:#fcd0b0;fill-opacity:1;fill-rule:nonzero;stroke:none"
           id="path984" />
        <path
           d="m 5597.73,1679.47 c -166.66,-103.33 -46.66,-336.66 -220,-433.33 -173.33,-96.67 -156.66,-230 -120,-326.671 13.03,-34.34 49.22,-53.071 90.43,-63 -12.74,50.09 -22.89,121.39 -4.44,189.671 0,0 -13.17,-116.421 26.44,-194.12 21.22,-3.52 42.89,-5.168 62.79,-5.7 -5.09,20.211 -8.66,45.489 -5.9,73.149 0,0 7.2,-35.938 22.3,-73.348 37.34,0.02 65.05,3.348 65.05,3.348 66.67,80 -96.67,263.341 26.67,326.671 182.06,93.49 140,186.67 190,290 50,103.33 142.65,33.33 142.65,33.33 16.67,196.67 -109.32,283.34 -275.99,180"
           style="fill:#fcd0b0;fill-opacity:1;fill-rule:nonzero;stroke:none"
           id="path986" />
        <path
           d="m 6512.76,941.629 c 0,0 0.75,3.41 2.16,9.812 1.62,6.36 3.15,15.868 5.39,27.789 0.81,6.008 1.71,12.68 2.69,19.93 0.67,7.27 1.17,15.16 1.61,23.54 -0.29,8.4 0.45,17.35 -0.74,26.67 -0.39,4.66 -0.8,9.43 -1.22,14.32 -0.82,4.82 -1.65,9.76 -2.51,14.8 -0.61,5.07 -2.28,10.03 -3.63,15.14 -1.48,5.07 -2.56,10.36 -4.83,15.36 -1.99,5.08 -4.02,10.24 -6.08,15.48 -2.61,4.97 -5.26,10.03 -7.95,15.15 -2.38,5.28 -6.24,9.82 -9.43,14.8 -3.3,4.92 -6.6,9.92 -10.82,14.34 -3.98,4.58 -8.01,9.2 -12.07,13.87 -4.53,4.25 -9.11,8.54 -13.72,12.86 -4.41,4.54 -9.69,8.22 -14.81,12.13 -5.22,3.79 -10.13,8.03 -15.67,11.54 -5.58,3.44 -11.2,6.9 -16.84,10.38 -2.85,1.69 -5.57,3.6 -8.49,5.21 l -8.95,4.59 c -12.19,6.25 -24.48,12.56 -36.81,18.89 -12.83,7.61 -25.22,15.88 -35.91,25.97 -21.99,19.82 -38.02,45.25 -49.51,71.21 -11.42,26.11 -18.23,53.01 -24.13,78.69 -5.44,25.59 -10.69,50.32 -15.67,73.77 -5.35,23.16 -11.37,44.7 -18.91,63.81 -7.59,19.07 -16.54,35.69 -26.13,49.38 -9.82,13.51 -20.04,24.09 -29.17,32.04 -9.27,7.73 -16.86,13.65 -22.45,17.02 -5.48,3.59 -8.4,5.51 -8.4,5.51 0,0 3.11,-1.6 8.95,-4.57 5.93,-2.85 14.32,-7.7 24.33,-14.93 9.94,-7.33 21.31,-17.31 32.63,-30.51 11.11,-13.33 21.9,-29.96 30.79,-49.41 9.04,-19.37 16.54,-41.3 22.83,-64.69 6.39,-23.37 12.08,-48.11 18.33,-73.32 6.29,-25.18 14.02,-50.66 24.66,-74.96 10.92,-24.09 25.59,-46.75 45.35,-64.31 9.57,-9.2 20.54,-16.54 31.48,-23.28 12.36,-6.48 24.68,-12.93 36.89,-19.33 12.73,-5.97 23.98,-14.59 35.69,-21.88 5.74,-3.85 10.92,-8.5 16.34,-12.67 5.33,-4.3 10.8,-8.35 15.44,-13.33 4.81,-4.75 9.59,-9.47 14.32,-14.14 4.38,-5.01 8.4,-10.29 12.49,-15.36 4.29,-4.93 7.66,-10.48 11,-15.93 3.23,-5.51 7.09,-10.54 9.47,-16.34 11.98,-21.93 17.4,-45.21 20.67,-66.32 3.34,-21.31 1.97,-41.02 0.57,-58.16 -1.12,-8.55 -2.29,-16.52 -3.55,-23.831 -1.59,-7.269 -2.9,-13.937 -4.34,-19.918 -3.11,-11.929 -5.94,-21.113 -8.14,-27.293 -2.09,-6.207 -3.2,-9.519 -3.2,-9.519"
           style="fill:#fcd0b0;fill-opacity:1;fill-rule:nonzero;stroke:none"
           id="path988" />
        <path
           d="m 5848.99,1506.36 c 0,0 2.9,1.94 8.72,4.99 5.84,2.92 14.43,7.51 26.27,11.19 11.78,3.67 26.74,7.46 44.67,6.69 17.67,-0.52 39.13,-6.96 55.73,-23.14 2.08,-1.99 4.17,-4.01 6.29,-6.04 1.72,-2.32 3.45,-4.67 5.2,-7.04 1.74,-2.4 3.49,-4.83 5.26,-7.27 1.72,-2.48 2.8,-5.25 4.24,-7.91 1.35,-2.71 2.71,-5.44 4.08,-8.2 0.72,-1.54 1.23,-2.42 2.13,-4.53 l 1.47,-4.09 c 1.93,-5.5 4.02,-10.91 5.91,-16.72 7.7,-24.35 12.08,-49.45 16.25,-75.17 4.11,-25.61 9.38,-51.01 18.87,-74.78 9.49,-23.74 23.74,-45.68 41.89,-64.77 4.44,-4.84 9.4,-9.3 14.05,-13.97 4.55,-4.78 9.72,-9.01 14.92,-13.19 5.19,-4.18 10.16,-8.58 15.5,-12.57 5.48,-3.84 10.93,-7.68 16.36,-11.5 l 8.14,-5.74 8.85,-6.48 c 2.53,-1.67 5.9,-5.17 8.8,-7.87 3.17,-2.82 5.51,-5.95 7.95,-9.03 9.72,-12.43 15.62,-27.53 17.8,-42.11 4.3,-29.5 -2.57,-55.87 -9.49,-79.17 -7.05,-23.5 -15.69,-44.471 -23.09,-63.901 -7.33,-19.41 -13.84,-37.109 -18.21,-53.141 -4.29,-16.007 -6.62,-30.308 -6.4,-42.16 0.2,-11.859 2.61,-21 4.73,-27.117 2.72,-5.891 4.17,-9.043 4.17,-9.043 0,0 -2.02,2.801 -5.6,8.371 -3.01,5.801 -7.34,14.832 -9.05,27.332 -1.86,12.418 -1.51,27.828 1.3,44.918 2.67,17.121 7.39,36.012 13.27,56.121 5.71,20.141 12.49,41.68 17.99,64.29 5.38,22.49 9.27,46.86 5.22,69.13 -2.12,11.06 -6.65,21.2 -13.77,29.67 -6.75,8.34 -15.94,14.31 -28.35,22.77 -5.8,3.98 -11.62,7.98 -17.47,11.99 -5.74,4.17 -11.21,8.86 -16.85,13.29 -5.64,4.44 -11.25,8.95 -16.38,14.15 -5.2,5.09 -10.68,9.88 -15.64,15.26 -19.93,21.43 -36.25,47.07 -46.69,74.28 -10.7,27.24 -14.61,55.37 -18.01,81.22 -3.42,25.8 -6.16,50.72 -11.61,72.36 -1.46,5.65 -3.27,11.37 -4.85,16.92 l -1.21,4.17 -1.41,3.3 c -0.99,2.45 -1.97,4.87 -2.95,7.28 -1.03,2.37 -1.75,4.95 -3.02,7.11 -1.3,2.14 -2.6,4.26 -3.88,6.37 -1.27,2.12 -2.54,4.22 -3.8,6.3 -1.59,1.78 -3.17,3.54 -4.73,5.28 -12.41,14.13 -29.15,21.49 -44.95,23.78 -15.87,2.29 -30.47,0.82 -42.21,-1.26 -11.79,-2.16 -20.91,-5.02 -27.07,-7.07 -6.17,-2.08 -9.34,-3.55 -9.34,-3.55"
           style="fill:#fcd0b0;fill-opacity:1;fill-rule:nonzero;stroke:none"
           id="path990" />
        <path
           d="m 6357.05,1246.14 c -173.33,96.67 -53.33,330 -220,433.33 -166.66,103.34 -280,16.67 -263.33,-180 0,0 80,70 130,-33.33 50,-103.33 7.93,-196.51 190,-290 123.33,-63.33 -40,-246.671 26.67,-326.671 0,0 52.94,-6.387 111.21,-1.508 10.92,27.828 22.66,67.91 28.79,121.508 0,0 9.6,-57.821 -7.76,-119.239 15.17,2.008 30.28,4.93 44.59,9.032 5.64,16.097 10.49,33.25 13.17,50.207 0,0 1.31,-19.731 -1.48,-46.52 31.54,10.949 57.53,28.551 68.14,56.52 36.67,96.671 53.34,230.001 -120,326.671"
           style="fill:#fcd0b0;fill-opacity:1;fill-rule:nonzero;stroke:none"
           id="path992" />
      </g>
    </g>
  </g>
</svg>
