<?xml version="1.0" encoding="UTF-8" standalone="no"?>
<!-- Created with Inkscape (http://www.inkscape.org/) -->

<svg
   width="53.730648mm"
   height="59.047867mm"
   viewBox="0 0 203.07647 223.17304"
   version="1.1"
   id="svg5"
   xmlns="http://www.w3.org/2000/svg"
   xmlns:svg="http://www.w3.org/2000/svg">
  <defs
     id="defs2">
    <clipPath
       clipPathUnits="userSpaceOnUse"
       id="clipPath846">
      <path
         d="m 6126.52,576.512 c -59.38,-61.024 -152.19,-100.34 -256.58,-100.34 -104.39,0 -197.21,39.316 -256.58,100.34 C 5458.38,533.359 5077.34,457.281 5125.11,0 h 731.04 27.57 731.04 c 47.78,457.281 -333.27,533.359 -488.24,576.512"
         id="path844" />
    </clipPath>
    <clipPath
       clipPathUnits="userSpaceOnUse"
       id="clipPath1014">
      <path
         d="m 4376.88,594.449 c -33.69,18.082 -50.83,62.852 -59.21,111.063 -46.93,-10.481 -97.76,-16.25 -150.88,-16.25 -52.06,0 -101.94,5.519 -148.1,15.597 -8.42,-47.961 -25.56,-92.41 -59.1,-110.41 C 3872.12,547.52 3355.22,524.059 3410.88,0 h 743.34 28.04 743.33 c 55.67,524.059 -461.23,547.52 -548.71,594.449"
         id="path1012" />
    </clipPath>
    <clipPath
       clipPathUnits="userSpaceOnUse"
       id="clipPath846-3">
      <path
         d="m 6126.52,576.512 c -59.38,-61.024 -152.19,-100.34 -256.58,-100.34 -104.39,0 -197.21,39.316 -256.58,100.34 C 5458.38,533.359 5077.34,457.281 5125.11,0 h 731.04 27.57 731.04 c 47.78,457.281 -333.27,533.359 -488.24,576.512"
         id="path844-6" />
    </clipPath>
    <clipPath
       clipPathUnits="userSpaceOnUse"
       id="clipPath1014-7">
      <path
         d="m 4376.88,594.449 c -33.69,18.082 -50.83,62.852 -59.21,111.063 -46.93,-10.481 -97.76,-16.25 -150.88,-16.25 -52.06,0 -101.94,5.519 -148.1,15.597 -8.42,-47.961 -25.56,-92.41 -59.1,-110.41 C 3872.12,547.52 3355.22,524.059 3410.88,0 h 743.34 28.04 743.33 c 55.67,524.059 -461.23,547.52 -548.71,594.449"
         id="path1012-5" />
    </clipPath>
    <clipPath
       clipPathUnits="userSpaceOnUse"
       id="clipPath846-3-3">
      <path
         d="m 6126.52,576.512 c -59.38,-61.024 -152.19,-100.34 -256.58,-100.34 -104.39,0 -197.21,39.316 -256.58,100.34 C 5458.38,533.359 5077.34,457.281 5125.11,0 h 731.04 27.57 731.04 c 47.78,457.281 -333.27,533.359 -488.24,576.512"
         id="path844-6-5" />
    </clipPath>
    <clipPath
       clipPathUnits="userSpaceOnUse"
       id="clipPath1014-7-6">
      <path
         d="m 4376.88,594.449 c -33.69,18.082 -50.83,62.852 -59.21,111.063 -46.93,-10.481 -97.76,-16.25 -150.88,-16.25 -52.06,0 -101.94,5.519 -148.1,15.597 -8.42,-47.961 -25.56,-92.41 -59.1,-110.41 C 3872.12,547.52 3355.22,524.059 3410.88,0 h 743.34 28.04 743.33 c 55.67,524.059 -461.23,547.52 -548.71,594.449"
         id="path1012-5-2" />
    </clipPath>
    <clipPath
       clipPathUnits="userSpaceOnUse"
       id="clipPath846-3-3-9">
      <path
         d="m 6126.52,576.512 c -59.38,-61.024 -152.19,-100.34 -256.58,-100.34 -104.39,0 -197.21,39.316 -256.58,100.34 C 5458.38,533.359 5077.34,457.281 5125.11,0 h 731.04 27.57 731.04 c 47.78,457.281 -333.27,533.359 -488.24,576.512"
         id="path844-6-5-1" />
    </clipPath>
    <clipPath
       clipPathUnits="userSpaceOnUse"
       id="clipPath1014-7-6-2">
      <path
         d="m 4376.88,594.449 c -33.69,18.082 -50.83,62.852 -59.21,111.063 -46.93,-10.481 -97.76,-16.25 -150.88,-16.25 -52.06,0 -101.94,5.519 -148.1,15.597 -8.42,-47.961 -25.56,-92.41 -59.1,-110.41 C 3872.12,547.52 3355.22,524.059 3410.88,0 h 743.34 28.04 743.33 c 55.67,524.059 -461.23,547.52 -548.71,594.449"
         id="path1012-5-2-7" />
    </clipPath>
    <clipPath
       clipPathUnits="userSpaceOnUse"
       id="clipPath846-3-3-9-0">
      <path
         d="m 6126.52,576.512 c -59.38,-61.024 -152.19,-100.34 -256.58,-100.34 -104.39,0 -197.21,39.316 -256.58,100.34 C 5458.38,533.359 5077.34,457.281 5125.11,0 h 731.04 27.57 731.04 c 47.78,457.281 -333.27,533.359 -488.24,576.512"
         id="path844-6-5-1-9" />
    </clipPath>
    <clipPath
       clipPathUnits="userSpaceOnUse"
       id="clipPath1014-7-6-2-3">
      <path
         d="m 4376.88,594.449 c -33.69,18.082 -50.83,62.852 -59.21,111.063 -46.93,-10.481 -97.76,-16.25 -150.88,-16.25 -52.06,0 -101.94,5.519 -148.1,15.597 -8.42,-47.961 -25.56,-92.41 -59.1,-110.41 C 3872.12,547.52 3355.22,524.059 3410.88,0 h 743.34 28.04 743.33 c 55.67,524.059 -461.23,547.52 -548.71,594.449"
         id="path1012-5-2-7-6" />
    </clipPath>
    <clipPath
       clipPathUnits="userSpaceOnUse"
       id="clipPath846-3-3-9-0-0">
      <path
         d="m 6126.52,576.512 c -59.38,-61.024 -152.19,-100.34 -256.58,-100.34 -104.39,0 -197.21,39.316 -256.58,100.34 C 5458.38,533.359 5077.34,457.281 5125.11,0 h 731.04 27.57 731.04 c 47.78,457.281 -333.27,533.359 -488.24,576.512"
         id="path844-6-5-1-9-6" />
    </clipPath>
    <clipPath
       clipPathUnits="userSpaceOnUse"
       id="clipPath1014-7-6-2-3-2">
      <path
         d="m 4376.88,594.449 c -33.69,18.082 -50.83,62.852 -59.21,111.063 -46.93,-10.481 -97.76,-16.25 -150.88,-16.25 -52.06,0 -101.94,5.519 -148.1,15.597 -8.42,-47.961 -25.56,-92.41 -59.1,-110.41 C 3872.12,547.52 3355.22,524.059 3410.88,0 h 743.34 28.04 743.33 c 55.67,524.059 -461.23,547.52 -548.71,594.449"
         id="path1012-5-2-7-6-6" />
    </clipPath>
  </defs>
  <g
     id="layer1"
     transform="translate(-217.17738,-400.53999)">
    <g
       id="g832"
       transform="matrix(0.1333333,0,0,-0.13333333,-7.1594478,676.05763)">
      <g
         id="g1973"
         transform="translate(-1724.1721,392.5845)">
        <path
           d="m 3887.84,1076.63 c 0,0 -81.25,18.06 -93.29,-51.16 -12.04,-69.22 36.11,-84.271 36.11,-84.271 0,0 -72.23,81.261 -123.39,24.082 -51.17,-57.191 33.1,-105.34 33.1,-105.34 0,0 -93.29,51.161 -111.35,-12.043 -18.06,-63.199 57.18,-102.328 57.18,-102.328 0,0 -81.26,6.02 -78.25,-30.09 3.01,-36.121 81.26,-6.019 81.26,-6.019 0,0 -114.36,-21.07 -96.31,-111.359 18.06,-90.282 108.35,-39.122 108.35,-39.122 0,0 -69.22,-36.121 -51.16,-150.48 18.05,-114.359 532.69,117.371 532.69,117.371 l 9.03,309.988 -303.97,240.771"
           style="fill:#29202e;fill-opacity:1;fill-rule:nonzero;stroke:none"
           id="path994" />
        <path
           d="m 4481.81,1076.63 c 0,0 81.26,18.06 93.3,-51.16 12.04,-69.22 -36.12,-84.271 -36.12,-84.271 0,0 72.23,81.261 123.4,24.082 51.16,-57.191 -33.11,-105.34 -33.11,-105.34 0,0 93.3,51.161 111.36,-12.043 18.06,-63.199 -57.19,-102.328 -57.19,-102.328 0,0 81.26,6.02 78.26,-30.09 -3.01,-36.121 -81.27,-6.019 -81.27,-6.019 0,0 114.37,-21.07 96.31,-111.359 -18.05,-90.282 -108.34,-39.122 -108.34,-39.122 0,0 69.22,-36.121 51.16,-150.48 -18.06,-114.359 -532.7,117.371 -532.7,117.371 l -9.03,309.988 303.97,240.771"
           style="fill:#29202e;fill-opacity:1;fill-rule:nonzero;stroke:none"
           id="path996" />
        <path
           d="m 3887.84,1076.63 c 0,0 -81.25,18.06 -93.29,-51.16 -12.04,-69.22 36.11,-84.271 36.11,-84.271 0,0 -72.23,81.261 -123.39,24.082 -51.17,-57.191 33.1,-105.34 33.1,-105.34 0,0 -93.29,51.161 -111.35,-12.043 -18.06,-63.199 57.18,-102.328 57.18,-102.328 0,0 -81.26,6.02 -78.25,-30.09 3.01,-36.121 81.26,-6.019 81.26,-6.019 0,0 -114.36,-21.07 -96.31,-111.359 18.06,-90.282 108.35,-39.122 108.35,-39.122 0,0 -69.22,-36.121 -51.16,-150.48 18.05,-114.359 532.69,117.371 532.69,117.371 l 9.03,309.988 -303.97,240.771"
           style="fill:#1e1922;fill-opacity:1;fill-rule:nonzero;stroke:none"
           id="path998" />
        <path
           d="m 4481.81,1076.63 c 0,0 81.26,18.06 93.3,-51.16 12.04,-69.22 -36.12,-84.271 -36.12,-84.271 0,0 72.23,81.261 123.4,24.082 51.16,-57.191 -33.11,-105.34 -33.11,-105.34 0,0 93.3,51.161 111.36,-12.043 18.06,-63.199 -57.19,-102.328 -57.19,-102.328 0,0 81.26,6.02 78.26,-30.09 -3.01,-36.121 -81.27,-6.019 -81.27,-6.019 0,0 114.37,-21.07 96.31,-111.359 -18.05,-90.282 -108.34,-39.122 -108.34,-39.122 0,0 69.22,-36.121 51.16,-150.48 -18.06,-114.359 -532.7,117.371 -532.7,117.371 l -9.03,309.988 303.97,240.771"
           style="fill:#1e1922;fill-opacity:1;fill-rule:nonzero;stroke:none"
           id="path1000" />
        <path
           d="m 4372.43,586.031 c -84.82,46.258 -61.69,269.91 -61.69,269.91 l -127.03,-8.191 v 8.16 l -13.59,-4.078 -13.6,4.078 v -8.16 l -127.02,8.191 c 0,0 23.13,-223.652 -61.69,-269.91 C 3882.99,539.762 3381.78,516.629 3435.76,0 h 720.76 27.19 720.77 c 53.98,516.629 -447.23,539.762 -532.05,586.031"
           style="fill:#a1444b;fill-opacity:1;fill-rule:nonzero;stroke:none"
           id="path1002" />
        <path
           d="m 4011.69,643.719 c 101.46,15.121 202.86,30.73 304.19,46.812 -14.25,77.11 -5.14,165.41 -5.14,165.41 l -127.03,-8.191 v 8.16 l -13.59,-4.078 -13.6,4.078 v -8.16 l -127.03,8.191 c 0,0 13.4,-129.953 -17.8,-212.222"
           style="fill:#7a3134;fill-opacity:1;fill-rule:nonzero;stroke:none"
           id="path1004" />
        <path
           d="m 4376.88,594.449 c -33.69,18.082 -50.83,62.852 -59.21,111.063 -46.93,-10.481 -97.76,-16.25 -150.88,-16.25 -52.06,0 -101.94,5.519 -148.1,15.597 -8.42,-47.961 -25.56,-92.41 -59.1,-110.41 C 3872.12,547.52 3355.22,524.059 3410.88,0 h 743.34 28.04 743.33 c 55.67,524.059 -461.23,547.52 -548.71,594.449"
           style="fill:#f2515a;fill-opacity:1;fill-rule:nonzero;stroke:none"
           id="path1006" />
        <g
           id="g1008">
          <g
             id="g1010"
             clip-path="url(#clipPath1014-7-6-2-3-2)">
            <path
               d="M 4348.88,619.922 H 3987.6 c 6.42,8.949 11.81,19.297 16.33,30.59 h 328.62 c 4.52,-11.293 9.91,-21.641 16.33,-30.59"
               style="fill:#fccfd7;fill-opacity:1;fill-rule:nonzero;stroke:none"
               id="path1016" />
            <path
               d="M 4561.78,538.828 H 3774.7 c 38.73,12.84 75.12,22.461 105.83,30.582 h 575.41 c 30.71,-8.121 67.1,-17.742 105.84,-30.582"
               style="fill:#fccfd7;fill-opacity:1;fill-rule:nonzero;stroke:none"
               id="path1018" />
            <path
               d="M 4734.53,457.73 H 3601.94 c 16.85,11.231 34.16,21.391 51.65,30.59 h 1029.29 c 17.49,-9.199 34.81,-19.359 51.65,-30.59"
               style="fill:#fccfd7;fill-opacity:1;fill-rule:nonzero;stroke:none"
               id="path1020" />
            <path
               d="M 4827.48,376.641 H 3508.99 c 9.33,10.8 19.1,20.968 29.25,30.578 h 1259.99 c 10.15,-9.61 19.92,-19.778 29.25,-30.578"
               style="fill:#fccfd7;fill-opacity:1;fill-rule:nonzero;stroke:none"
               id="path1022" />
            <path
               d="m 4881.87,295.539 v 0 c -5.37,10.609 -11.11,20.813 -17.19,30.59 v 0 c 6.09,-9.801 11.82,-19.957 17.19,-30.59 m -350.76,0 h -1076.5 c 5.37,10.633 11.09,20.789 17.18,30.59 h 1175.04 c -38.61,-10.051 -77.18,-20.258 -115.72,-30.59"
               style="fill:#fccfd7;fill-opacity:1;fill-rule:nonzero;stroke:none"
               id="path1024" />
            <path
               d="m 4912.66,214.449 v 0 c -2.82,10.512 -5.96,20.711 -9.4,30.582 v 0 c 3.44,-9.883 6.58,-20.07 9.4,-30.582 m -676.51,0 h -812.33 c 2.82,10.512 5.95,20.699 9.39,30.582 h 912.71 c -36.6,-10.133 -73.2,-20.34 -109.77,-30.582"
               style="fill:#fccfd7;fill-opacity:1;fill-rule:nonzero;stroke:none"
               id="path1026" />
            <path
               d="m 4927.1,133.352 v 0 c -1.01,10.449 -2.29,20.648 -3.83,30.589 v 0 c 1.54,-9.941 2.82,-20.14 3.83,-30.589 m -978.89,0 h -538.84 c 1.01,10.449 2.29,20.648 3.84,30.589 h 643.48 c -36.17,-10.211 -72.31,-20.41 -108.48,-30.589"
               style="fill:#fccfd7;fill-opacity:1;fill-rule:nonzero;stroke:none"
               id="path1028" />
            <path
               d="m 4929.34,52.2617 v 0 c 0.37,10.3985 0.5,20.5977 0.4,30.5781 v 0 c 0.02,-2.2578 0.03,-4.5195 0.03,-6.8085 0,-7.793 -0.14,-15.7227 -0.43,-23.7696 m -1273.15,0 h -249.06 c -0.29,8.0469 -0.43,15.9766 -0.43,23.7696 0,2.289 0.01,4.5507 0.03,6.8085 h 360.79 c -37.1,-10.2812 -74.18,-20.4687 -111.33,-30.5781"
               style="fill:#fccfd7;fill-opacity:1;fill-rule:nonzero;stroke:none"
               id="path1030" />
          </g>
        </g>
        <path
           d="M 4904.48,0 H 3460.11 v 0 h 1444.37 v 0"
           style="fill:#76353c;fill-opacity:1;fill-rule:nonzero;stroke:none"
           id="path1032" />
        <path
           d="M 4925.59,0 H 3460.11 c 65.45,17.0195 130.82,34.4883 196.08,52.2617 H 4929.34 C 4928.74,35.4102 4927.5,18.0117 4925.59,0 m 4.15,82.8398 H 3767.52 c 60.26,16.6915 120.5,33.5702 180.69,50.5122 h 978.89 c 1.56,-16.204 2.46,-33.032 2.64,-50.5122 m -6.47,81.1012 h -866.58 c 59.81,16.868 119.62,33.75 179.46,50.508 h 676.51 c 4.31,-16.07 7.87,-32.89 10.61,-50.508 m -20.01,81.09 h -557.34 c 61.67,17.078 123.39,33.949 185.19,50.508 h 350.76 c 8.02,-15.859 15.19,-32.68 21.39,-50.508 m -38.58,81.098 h -217.85 c 61.24,15.941 122.57,31.492 184.04,46.543 12.13,-14.41 23.46,-29.891 33.81,-46.543"
           style="fill:#d9464a;fill-opacity:1;fill-rule:nonzero;stroke:none"
           id="path1034" />
        <path
           d="m 4881.87,295.539 h -350.76 c 38.54,10.332 77.11,20.539 115.72,30.59 h 217.85 c 6.08,-9.777 11.82,-19.981 17.19,-30.59"
           style="fill:#bc989f;fill-opacity:1;fill-rule:nonzero;stroke:none"
           id="path1036" />
        <path
           d="m 4912.66,214.449 h -676.51 c 36.57,10.242 73.17,20.449 109.77,30.582 h 557.34 c 3.44,-9.871 6.58,-20.07 9.4,-30.582"
           style="fill:#bc989f;fill-opacity:1;fill-rule:nonzero;stroke:none"
           id="path1038" />
        <path
           d="m 4927.1,133.352 h -978.89 c 36.17,10.179 72.31,20.378 108.48,30.589 h 866.58 c 1.54,-9.941 2.82,-20.14 3.83,-30.589"
           style="fill:#bc989f;fill-opacity:1;fill-rule:nonzero;stroke:none"
           id="path1040" />
        <path
           d="M 4929.34,52.2617 H 3656.19 c 37.15,10.1094 74.23,20.2969 111.33,30.5781 h 1162.22 c 0.1,-9.9804 -0.03,-20.1796 -0.4,-30.5781"
           style="fill:#bc989f;fill-opacity:1;fill-rule:nonzero;stroke:none"
           id="path1042" />
        <path
           d="m 3921.75,1183.3 c -24.99,77.53 -84.17,59.58 -89.71,57.71 -5.81,-0.68 -66.98,-9.76 -56.41,-90.54 10.63,-81.25 57.78,-125.29 101.98,-112.35 45.5,7.21 69.28,67.18 44.14,145.18"
           style="fill:#7a3134;fill-opacity:1;fill-rule:nonzero;stroke:none"
           id="path1044" />
        <path
           d="m 4420.77,1183.3 c 24.99,77.53 84.17,59.58 89.71,57.71 5.81,-0.68 66.98,-9.76 56.41,-90.54 -10.63,-81.25 -57.77,-125.29 -101.98,-112.35 -45.5,7.21 -69.28,67.18 -44.14,145.18"
           style="fill:#7a3134;fill-opacity:1;fill-rule:nonzero;stroke:none"
           id="path1046" />
        <path
           d="m 3861.12,1300.75 c 30.97,339.91 289.38,320.87 313.75,318.31 24.37,2.56 282.78,21.6 313.75,-318.31 31.15,-341.93 -121.15,-565.238 -313.75,-552.961 -192.6,-12.277 -344.9,211.031 -313.75,552.961"
           style="fill:#a1444b;fill-opacity:1;fill-rule:nonzero;stroke:none"
           id="path1048" />
        <path
           d="m 4219.43,1140.82 c 4.26,-7.85 7.55,-15.9 10.52,-24.03 2.94,-8.12 5.43,-16.35 7.65,-24.62 1.18,-4.13 2,-8.33 3.02,-12.49 1.05,-4.15 1.84,-8.36 2.6,-12.57 1.67,-8.39 2.85,-16.89 3.8,-25.44 l 0.45,-3.99 -2.17,-1.99 c -6.93,-6.34 -14.05,-12.51 -21.29,-18.56 -7.36,-5.94 -14.67,-11.93 -22.58,-17.341 5.13,8.091 10.85,15.611 16.52,23.181 5.79,7.45 11.69,14.79 17.79,21.95 l -1.72,-5.98 c -2.57,8.21 -4.9,16.47 -6.74,24.82 -1,4.17 -1.97,8.34 -2.68,12.56 -0.74,4.22 -1.67,8.39 -2.26,12.64 -1.29,8.48 -2.31,17.01 -2.89,25.63 -0.55,8.63 -0.77,17.33 -0.02,26.23"
           style="fill:#7a3134;fill-opacity:1;fill-rule:nonzero;stroke:none"
           id="path1050" />
        <path
           d="m 4306.61,938.73 c -61.52,-59.8 -165.73,-56.492 -244.66,-3.191"
           style="fill:#ffffff;fill-opacity:1;fill-rule:nonzero;stroke:none"
           id="path1052" />
        <path
           d="m 4418.56,1256.07 c 0,0 -2.69,1.49 -7.4,4.1 -2.29,1.25 -5.07,2.77 -8.25,4.52 -3.12,1.65 -6.64,3.51 -10.49,5.54 -3.97,1.71 -7.94,3.99 -12.38,5.73 -2.15,0.96 -4.36,1.94 -6.62,2.95 -2.27,0.83 -4.6,1.68 -6.97,2.54 -4.6,2.04 -9.62,2.79 -14.4,4.48 -4.95,0.51 -9.82,2.4 -14.77,2.2 l -7.37,0.6 c -2.42,-0.29 -4.85,-0.37 -7.28,-0.5 -4.92,0.2 -9.49,-1.63 -14.24,-2.21 -4.73,-0.75 -8.98,-3.04 -13.43,-4.22 l -3.29,-1.02 -2.99,-1.51 c -2.03,-0.95 -4,-1.87 -5.89,-2.75 -3.75,-1.86 -7.6,-3.21 -10.5,-5.23 -2.98,-1.87 -5.81,-3.34 -8.14,-4.61 -4.67,-2.53 -7.66,-3.85 -7.66,-3.85 0,0 1.18,2.84 3.82,7.6 1.33,2.36 2.93,5.32 5.04,8.52 1.86,3.44 4.81,6.58 8.16,9.99 3.46,3.26 6.58,7.75 11.48,10.59 4.78,2.93 9.51,6.88 15.45,9.08 2.93,1.19 5.99,2.26 9.1,3.35 3.05,1.31 6.34,1.87 9.71,2.25 3.35,0.46 6.74,0.98 10.16,1.3 3.4,-0.04 6.83,-0.29 10.25,-0.48 6.94,-0.14 13.35,-2.44 19.78,-4 3.09,-1.11 6.04,-2.45 8.97,-3.73 2.97,-1.2 5.76,-2.58 8.31,-4.28 2.59,-1.61 5.17,-3.11 7.59,-4.73 2.26,-1.8 4.48,-3.55 6.64,-5.26 4.37,-3.29 7.68,-7.34 11,-10.65 6.22,-7.09 10.51,-13.62 13.04,-18.48 2.63,-4.8 3.57,-7.83 3.57,-7.83"
           style="fill:#29202e;fill-opacity:1;fill-rule:nonzero;stroke:none"
           id="path1054" />
        <path
           d="m 4096.67,1256.07 c 0,0 -2.69,1.49 -7.4,4.1 -2.29,1.25 -5.06,2.77 -8.25,4.52 -3.12,1.65 -6.64,3.51 -10.49,5.54 -3.97,1.71 -7.93,3.99 -12.38,5.73 -2.15,0.96 -4.36,1.94 -6.61,2.95 -2.28,0.83 -4.61,1.68 -6.98,2.54 -4.6,2.04 -9.62,2.79 -14.39,4.48 -4.96,0.51 -9.83,2.4 -14.78,2.2 l -7.37,0.6 c -2.42,-0.29 -4.85,-0.37 -7.28,-0.5 -4.92,0.2 -9.49,-1.63 -14.24,-2.21 -4.73,-0.75 -8.98,-3.04 -13.43,-4.22 l -3.28,-1.02 -3,-1.51 c -2.03,-0.95 -4,-1.87 -5.89,-2.75 -3.75,-1.86 -7.6,-3.21 -10.5,-5.23 -2.98,-1.87 -5.81,-3.34 -8.13,-4.61 -4.68,-2.53 -7.67,-3.85 -7.67,-3.85 0,0 1.19,2.84 3.82,7.6 1.33,2.36 2.93,5.32 5.04,8.52 1.86,3.44 4.81,6.58 8.16,9.99 3.46,3.26 6.58,7.75 11.48,10.59 4.78,2.93 9.51,6.88 15.45,9.08 2.93,1.19 5.99,2.26 9.1,3.35 3.05,1.31 6.35,1.87 9.71,2.25 3.35,0.46 6.74,0.98 10.16,1.3 3.41,-0.04 6.83,-0.29 10.25,-0.48 6.94,-0.14 13.35,-2.44 19.78,-4 3.09,-1.11 6.04,-2.45 8.97,-3.73 2.97,-1.2 5.77,-2.58 8.31,-4.28 2.6,-1.61 5.17,-3.11 7.59,-4.73 2.27,-1.8 4.48,-3.55 6.64,-5.26 4.38,-3.29 7.69,-7.34 11,-10.65 6.22,-7.09 10.51,-13.62 13.04,-18.48 2.63,-4.8 3.57,-7.83 3.57,-7.83"
           style="fill:#29202e;fill-opacity:1;fill-rule:nonzero;stroke:none"
           id="path1056" />
        <path
           d="m 4086.46,1132.9 c 0,0 -0.7,2.76 -2.27,7.38 -1.57,4.62 -4.01,11.12 -7.82,18.24 -3.86,7.06 -9.25,14.74 -16.76,20.34 -3.71,2.83 -7.96,5.08 -12.57,6.49 -2.27,0.79 -4.59,1.54 -7.1,1.7 -2.45,0.33 -4.87,0.85 -7.45,0.59 -2.38,-0.09 -5.41,0.22 -7.26,-0.13 -2.6,-0.5 -5.86,-0.62 -7.87,-1.42 -4.06,-1.32 -8.69,-2.87 -12.18,-5.78 -3.73,-2.56 -6.62,-6.07 -9.22,-9.55 -2.34,-3.69 -4.34,-7.45 -5.81,-11.18 -2.9,-7.45 -4.37,-14.25 -5.23,-19.04 -0.85,-4.8 -1.1,-7.64 -1.1,-7.64 0,0 -0.76,2.75 -1.27,7.73 -0.46,4.96 -0.76,12.22 1.02,20.9 0.86,4.34 2.35,9 4.68,13.72 2.54,4.56 5.61,9.52 10.32,13.25 4.42,4.01 9.93,6.97 16.33,8.87 3.18,1.08 5.58,1.11 8.42,1.73 3.64,0.64 6.26,0.32 9.45,0.48 3.05,0.18 6.12,-0.46 9.18,-0.97 3.08,-0.33 6.03,-1.31 8.94,-2.4 3,-0.83 5.66,-2.38 8.25,-3.98 2.71,-1.39 4.91,-3.43 7.15,-5.28 8.76,-7.78 13.63,-17.48 16.35,-25.73 2.79,-8.33 3.58,-15.52 3.87,-20.49 0.25,-5 -0.05,-7.83 -0.05,-7.83"
           style="fill:#29202e;fill-opacity:1;fill-rule:nonzero;stroke:none"
           id="path1058" />
        <path
           d="m 4375.72,1137.57 c 0,0 -0.7,2.76 -2.27,7.38 -1.57,4.61 -4.01,11.12 -7.82,18.24 -3.86,7.05 -9.25,14.74 -16.77,20.33 -3.7,2.83 -7.95,5.08 -12.56,6.49 -2.28,0.8 -4.59,1.55 -7.1,1.71 -2.45,0.33 -4.88,0.84 -7.45,0.59 -2.38,-0.1 -5.41,0.21 -7.26,-0.14 -2.6,-0.49 -5.86,-0.62 -7.87,-1.41 -4.06,-1.32 -8.69,-2.87 -12.18,-5.78 -3.74,-2.56 -6.62,-6.07 -9.22,-9.55 -2.34,-3.69 -4.35,-7.45 -5.81,-11.18 -2.9,-7.46 -4.37,-14.25 -5.23,-19.04 -0.85,-4.8 -1.1,-7.64 -1.1,-7.64 0,0 -0.76,2.74 -1.27,7.72 -0.47,4.96 -0.76,12.23 1.02,20.9 0.86,4.34 2.34,9.01 4.68,13.72 2.54,4.57 5.61,9.52 10.32,13.25 4.42,4.02 9.93,6.97 16.33,8.87 3.17,1.09 5.57,1.12 8.42,1.73 3.64,0.64 6.26,0.32 9.45,0.49 3.04,0.17 6.12,-0.47 9.18,-0.97 3.08,-0.33 6.03,-1.31 8.94,-2.41 2.99,-0.83 5.66,-2.38 8.25,-3.98 2.71,-1.38 4.9,-3.43 7.15,-5.28 8.76,-7.77 13.63,-17.47 16.35,-25.73 2.79,-8.32 3.58,-15.52 3.87,-20.49 0.25,-4.99 -0.05,-7.82 -0.05,-7.82"
           style="fill:#29202e;fill-opacity:1;fill-rule:nonzero;stroke:none"
           id="path1060" />
        <path
           d="m 4184.88,1619.06 c 0,0 15.96,-208.36 -300.05,-295.64 0,0 9.03,-105.34 -18.05,-204.66 0,0 -102.33,147.48 -54.18,322.03 48.16,174.56 292.13,314.4 372.28,178.27"
           style="fill:#29202e;fill-opacity:1;fill-rule:nonzero;stroke:none"
           id="path1062" />
        <path
           d="m 4159.98,1619.06 c 0,0 -5.96,-208.36 310.05,-295.64 0,0 -15.05,-132.42 12.04,-231.74 0,0 108.34,174.56 60.19,349.11 -48.15,174.56 -302.13,314.4 -382.28,178.27"
           style="fill:#29202e;fill-opacity:1;fill-rule:nonzero;stroke:none"
           id="path1064" />
        <path
           d="m 3932.58,1338.48 c -46.11,32.14 -87.15,73.53 -114.65,119.21 -1.97,-5.59 -3.76,-11.22 -5.33,-16.9 -48.15,-174.55 54.18,-322.03 54.18,-322.03 27.08,99.32 18.05,204.66 18.05,204.66 16.91,4.67 32.68,9.75 47.75,15.06"
           style="fill:#1e1922;fill-opacity:1;fill-rule:nonzero;stroke:none"
           id="path1066" />
      </g>
    </g>
  </g>
</svg>
