<?xml version="1.0" encoding="UTF-8" standalone="no"?>
<!-- Created with Inkscape (http://www.inkscape.org/) -->

<svg
   width="52.466465mm"
   height="63.330063mm"
   viewBox="0 0 198.29846 239.35772"
   version="1.1"
   id="svg5"
   xmlns="http://www.w3.org/2000/svg"
   xmlns:svg="http://www.w3.org/2000/svg">
  <defs
     id="defs2">
    <clipPath
       clipPathUnits="userSpaceOnUse"
       id="clipPath846">
      <path
         d="m 6126.52,576.512 c -59.38,-61.024 -152.19,-100.34 -256.58,-100.34 -104.39,0 -197.21,39.316 -256.58,100.34 C 5458.38,533.359 5077.34,457.281 5125.11,0 h 731.04 27.57 731.04 c 47.78,457.281 -333.27,533.359 -488.24,576.512"
         id="path844" />
    </clipPath>
    <clipPath
       clipPathUnits="userSpaceOnUse"
       id="clipPath1014">
      <path
         d="m 4376.88,594.449 c -33.69,18.082 -50.83,62.852 -59.21,111.063 -46.93,-10.481 -97.76,-16.25 -150.88,-16.25 -52.06,0 -101.94,5.519 -148.1,15.597 -8.42,-47.961 -25.56,-92.41 -59.1,-110.41 C 3872.12,547.52 3355.22,524.059 3410.88,0 h 743.34 28.04 743.33 c 55.67,524.059 -461.23,547.52 -548.71,594.449"
         id="path1012" />
    </clipPath>
    <clipPath
       clipPathUnits="userSpaceOnUse"
       id="clipPath846-3">
      <path
         d="m 6126.52,576.512 c -59.38,-61.024 -152.19,-100.34 -256.58,-100.34 -104.39,0 -197.21,39.316 -256.58,100.34 C 5458.38,533.359 5077.34,457.281 5125.11,0 h 731.04 27.57 731.04 c 47.78,457.281 -333.27,533.359 -488.24,576.512"
         id="path844-6" />
    </clipPath>
    <clipPath
       clipPathUnits="userSpaceOnUse"
       id="clipPath1014-7">
      <path
         d="m 4376.88,594.449 c -33.69,18.082 -50.83,62.852 -59.21,111.063 -46.93,-10.481 -97.76,-16.25 -150.88,-16.25 -52.06,0 -101.94,5.519 -148.1,15.597 -8.42,-47.961 -25.56,-92.41 -59.1,-110.41 C 3872.12,547.52 3355.22,524.059 3410.88,0 h 743.34 28.04 743.33 c 55.67,524.059 -461.23,547.52 -548.71,594.449"
         id="path1012-5" />
    </clipPath>
    <clipPath
       clipPathUnits="userSpaceOnUse"
       id="clipPath846-3-3">
      <path
         d="m 6126.52,576.512 c -59.38,-61.024 -152.19,-100.34 -256.58,-100.34 -104.39,0 -197.21,39.316 -256.58,100.34 C 5458.38,533.359 5077.34,457.281 5125.11,0 h 731.04 27.57 731.04 c 47.78,457.281 -333.27,533.359 -488.24,576.512"
         id="path844-6-5" />
    </clipPath>
    <clipPath
       clipPathUnits="userSpaceOnUse"
       id="clipPath1014-7-6">
      <path
         d="m 4376.88,594.449 c -33.69,18.082 -50.83,62.852 -59.21,111.063 -46.93,-10.481 -97.76,-16.25 -150.88,-16.25 -52.06,0 -101.94,5.519 -148.1,15.597 -8.42,-47.961 -25.56,-92.41 -59.1,-110.41 C 3872.12,547.52 3355.22,524.059 3410.88,0 h 743.34 28.04 743.33 c 55.67,524.059 -461.23,547.52 -548.71,594.449"
         id="path1012-5-2" />
    </clipPath>
    <clipPath
       clipPathUnits="userSpaceOnUse"
       id="clipPath846-3-3-9">
      <path
         d="m 6126.52,576.512 c -59.38,-61.024 -152.19,-100.34 -256.58,-100.34 -104.39,0 -197.21,39.316 -256.58,100.34 C 5458.38,533.359 5077.34,457.281 5125.11,0 h 731.04 27.57 731.04 c 47.78,457.281 -333.27,533.359 -488.24,576.512"
         id="path844-6-5-1" />
    </clipPath>
    <clipPath
       clipPathUnits="userSpaceOnUse"
       id="clipPath1014-7-6-2">
      <path
         d="m 4376.88,594.449 c -33.69,18.082 -50.83,62.852 -59.21,111.063 -46.93,-10.481 -97.76,-16.25 -150.88,-16.25 -52.06,0 -101.94,5.519 -148.1,15.597 -8.42,-47.961 -25.56,-92.41 -59.1,-110.41 C 3872.12,547.52 3355.22,524.059 3410.88,0 h 743.34 28.04 743.33 c 55.67,524.059 -461.23,547.52 -548.71,594.449"
         id="path1012-5-2-7" />
    </clipPath>
    <clipPath
       clipPathUnits="userSpaceOnUse"
       id="clipPath846-3-3-9-0">
      <path
         d="m 6126.52,576.512 c -59.38,-61.024 -152.19,-100.34 -256.58,-100.34 -104.39,0 -197.21,39.316 -256.58,100.34 C 5458.38,533.359 5077.34,457.281 5125.11,0 h 731.04 27.57 731.04 c 47.78,457.281 -333.27,533.359 -488.24,576.512"
         id="path844-6-5-1-9" />
    </clipPath>
    <clipPath
       clipPathUnits="userSpaceOnUse"
       id="clipPath1014-7-6-2-3">
      <path
         d="m 4376.88,594.449 c -33.69,18.082 -50.83,62.852 -59.21,111.063 -46.93,-10.481 -97.76,-16.25 -150.88,-16.25 -52.06,0 -101.94,5.519 -148.1,15.597 -8.42,-47.961 -25.56,-92.41 -59.1,-110.41 C 3872.12,547.52 3355.22,524.059 3410.88,0 h 743.34 28.04 743.33 c 55.67,524.059 -461.23,547.52 -548.71,594.449"
         id="path1012-5-2-7-6" />
    </clipPath>
  </defs>
  <g
     id="layer1"
     transform="translate(-351.59197,-276.77351)">
    <g
       id="g832"
       transform="matrix(0.1333333,0,0,-0.13333333,-7.1594478,676.05763)">
      <g
         id="g2169"
         transform="translate(-730.9055,-1070.552)">
        <path
           d="m 4372.43,2856.03 c -84.82,46.26 -61.69,269.91 -61.69,269.91 l -127.03,-8.19 v 8.16 l -13.59,-4.08 -13.59,4.08 v -8.16 l -127.03,8.19 c 0,0 23.13,-223.65 -61.69,-269.91 -84.82,-46.27 -586.03,-69.4 -532.05,-586.03 h 720.77 27.18 720.77 c 53.98,516.63 -447.23,539.76 -532.05,586.03"
           style="fill:#f78e92;fill-opacity:1;fill-rule:nonzero;stroke:none"
           id="path1192" />
        <path
           d="m 4011.69,2913.72 c 101.46,15.12 202.86,30.73 304.19,46.81 -14.25,77.11 -5.14,165.41 -5.14,165.41 l -127.03,-8.19 v 8.16 l -13.59,-4.08 -13.59,4.08 v -8.16 l -127.04,8.19 c 0,0 13.4,-129.95 -17.8,-212.22"
           style="fill:#e07375;fill-opacity:1;fill-rule:nonzero;stroke:none"
           id="path1194" />
        <path
           d="m 4398.82,2860 c -42.35,23.09 -57.95,90.1 -62.94,151.8 -37.28,-14.09 -111.81,-22.31 -159.66,-22.31 -57.44,0 -130.13,11.8 -171.2,31.45 -4.17,-64.08 -19.14,-136.7 -63.59,-160.94 -85.4,-46.58 -569.99,-69.87 -515.65,-590 h 725.65 27.37 725.66 c 54.34,520.13 -420.25,543.42 -505.64,590"
           style="fill:#ef7a41;fill-opacity:1;fill-rule:nonzero;stroke:none"
           id="path1196" />
        <path
           d="m 4169.44,2739.48 c 116.6,0 221.18,38.76 292.65,100.11 -25.98,7.37 -46.6,13.65 -58.99,20.41 -42.35,23.09 -57.95,90.1 -62.94,151.8 -37.28,-14.09 -111.81,-22.31 -159.66,-22.31 -57.44,0 -130.13,11.8 -171.2,31.45 -4.17,-64.08 -19.14,-136.7 -63.6,-160.94 -13.48,-7.36 -36.94,-14.14 -66.64,-22.38 71.4,-60.22 175.02,-98.14 290.38,-98.14"
           style="fill:#f78f50;fill-opacity:1;fill-rule:nonzero;stroke:none"
           id="path1198" />
        <path
           d="m 3635.01,2324.9 76.03,71.8 71.62,-71.61 12.96,12.96 -84.22,84.22 -88.97,-84.04 12.58,-13.33"
           style="fill:#704e61;fill-opacity:1;fill-rule:nonzero;stroke:none"
           id="path1200" />
        <path
           d="m 4562.47,2327.49 87.64,69.73 72.13,-72.13 12.96,12.96 -83.7,83.7 -100.45,-79.92 11.42,-14.34"
           style="fill:#704e61;fill-opacity:1;fill-rule:nonzero;stroke:none"
           id="path1202" />
        <path
           d="m 4407.53,2327.18 82.35,69.85 71.94,-71.94 12.96,12.96 -83.88,83.89 -95.23,-80.78 11.86,-13.98"
           style="fill:#704e61;fill-opacity:1;fill-rule:nonzero;stroke:none"
           id="path1204" />
        <path
           d="m 4258.35,2324.9 76.02,71.8 71.62,-71.61 12.96,12.96 -84.21,84.22 -88.98,-84.04 12.59,-13.33"
           style="fill:#704e61;fill-opacity:1;fill-rule:nonzero;stroke:none"
           id="path1206" />
        <path
           d="m 4094.24,2326.19 84.3,71.14 78.41,-70.47 12.25,13.64 -90.29,81.14 -96.49,-81.44 11.82,-14.01"
           style="fill:#704e61;fill-opacity:1;fill-rule:nonzero;stroke:none"
           id="path1208" />
        <path
           d="m 3946.69,2324.9 76.02,71.8 71.62,-71.61 12.96,12.96 -84.22,84.22 -88.97,-84.04 12.59,-13.33"
           style="fill:#704e61;fill-opacity:1;fill-rule:nonzero;stroke:none"
           id="path1210" />
        <path
           d="m 3783.96,2326.23 82.95,71.06 77.26,-69.45 12.25,13.64 -89.22,80.2 -95.17,-81.53 11.93,-13.92"
           style="fill:#704e61;fill-opacity:1;fill-rule:nonzero;stroke:none"
           id="path1212" />
        <path
           d="m 3632.15,2404.6 78.97,74.58 74.48,-74.48 7.07,7.07 -81.35,81.35 -86.03,-81.25 6.86,-7.27"
           style="fill:#704e61;fill-opacity:1;fill-rule:nonzero;stroke:none"
           id="path1214" />
        <path
           d="m 4559.87,2407.41 90.55,72.05 74.76,-74.76 7.08,7.07 -81.08,81.07 -97.53,-77.6 6.22,-7.83"
           style="fill:#704e61;fill-opacity:1;fill-rule:nonzero;stroke:none"
           id="path1216" />
        <path
           d="m 4404.83,2407.02 85.28,72.34 74.66,-74.66 7.07,7.07 -81.18,81.17 -92.3,-78.29 6.47,-7.63"
           style="fill:#704e61;fill-opacity:1;fill-rule:nonzero;stroke:none"
           id="path1218" />
        <path
           d="m 4255.49,2404.6 78.96,74.58 74.48,-74.48 7.08,7.07 -81.36,81.35 -86.03,-81.25 6.87,-7.27"
           style="fill:#704e61;fill-opacity:1;fill-rule:nonzero;stroke:none"
           id="path1220" />
        <path
           d="m 4091.55,2406.04 87.07,73.48 81.11,-72.89 6.69,7.44 -87.59,78.71 -93.73,-79.1 6.45,-7.64"
           style="fill:#704e61;fill-opacity:1;fill-rule:nonzero;stroke:none"
           id="path1222" />
        <path
           d="m 3943.83,2404.6 78.96,74.58 74.48,-74.48 7.07,7.07 -81.35,81.35 -86.03,-81.25 6.87,-7.27"
           style="fill:#704e61;fill-opacity:1;fill-rule:nonzero;stroke:none"
           id="path1224" />
        <path
           d="m 3781.25,2406.06 85.72,73.44 79.98,-71.89 6.69,7.43 -86.51,77.76 -92.39,-79.14 6.51,-7.6"
           style="fill:#704e61;fill-opacity:1;fill-rule:nonzero;stroke:none"
           id="path1226" />
        <path
           d="m 3653.72,2456.98 c 0,106.03 -12.81,203.1 -34.04,278.32 -120.02,-77.89 -220.23,-213.27 -193.9,-465.3 h 213.72 c 9.11,56.59 14.22,120.01 14.22,186.98"
           style="fill:#f78f50;fill-opacity:1;fill-rule:nonzero;stroke:none"
           id="path1228" />
        <path
           d="m 4708.96,2739.41 c -21.94,-75.78 -35.24,-174.44 -35.24,-282.43 0,-66.97 5.11,-130.39 14.22,-186.98 h 216.52 c 26.8,256.57 -75.11,392.2 -195.5,469.41"
           style="fill:#f78f50;fill-opacity:1;fill-rule:nonzero;stroke:none"
           id="path1230" />
        <path
           d="m 3921.75,3453.3 c -24.99,77.53 -84.17,59.58 -89.71,57.71 -5.81,-0.68 -66.98,-9.76 -56.41,-90.54 10.63,-81.25 57.78,-125.29 101.98,-112.35 45.5,7.21 69.28,67.18 44.14,145.18"
           style="fill:#e07375;fill-opacity:1;fill-rule:nonzero;stroke:none"
           id="path1232" />
        <path
           d="m 4420.77,3453.3 c 24.99,77.53 84.17,59.58 89.71,57.71 5.81,-0.68 66.98,-9.76 56.41,-90.54 -10.63,-81.25 -57.77,-125.29 -101.98,-112.35 -45.5,7.21 -69.28,67.18 -44.14,145.18"
           style="fill:#e07375;fill-opacity:1;fill-rule:nonzero;stroke:none"
           id="path1234" />
        <path
           d="m 3861.12,3570.75 c 30.97,339.91 289.38,320.87 313.75,318.31 24.37,2.56 282.78,21.6 313.75,-318.31 31.15,-341.93 -121.15,-565.24 -313.75,-552.96 -192.6,-12.28 -344.9,211.03 -313.75,552.96"
           style="fill:#f78e92;fill-opacity:1;fill-rule:nonzero;stroke:none"
           id="path1236" />
        <path
           d="m 3848.72,3809.48 c 0,0 -70,-45 -20,-200 l 30,-175 25,-5 c 0,0 -10,265 75,325 85,60 -110,55 -110,55"
           style="fill:#f1424f;fill-opacity:1;fill-rule:nonzero;stroke:none"
           id="path1238" />
        <path
           d="m 4383.72,3784.48 c 0,0 -335,-195 -515,-40 -180,155 10,235 85,225 0,0 -25,85 75,95 100,10 80,-90 230,-90 150,0 225,-10 210,-135 0,0 75,45 100,-40 25,-85 -70,-365 -70,-365 l -10,-45 h -25 v 240 c 0,0 -95,-30 -80,155"
           style="fill:#f2515a;fill-opacity:1;fill-rule:nonzero;stroke:none"
           id="path1240" />
        <path
           d="m 4568.72,3799.48 c -25,85 -100,40 -100,40 8.64,71.98 -12.62,105.79 -60.8,121.55 -10.04,-72.05 -33.2,-141.65 -74.82,-202.45 31.43,14.78 50.62,25.9 50.62,25.9 -15,-185 80,-155 80,-155 v -240 h 25 l 10,45 c 0,0 95,280 70,365"
           style="fill:#f1424f;fill-opacity:1;fill-rule:nonzero;stroke:none"
           id="path1242" />
        <path
           d="m 4219.43,3530.89 c 4.3,-15.59 7.61,-31.3 10.6,-47.05 2.96,-15.74 5.46,-31.54 7.69,-47.37 1.18,-7.91 2.01,-15.86 3.03,-23.78 1.04,-7.92 1.83,-15.87 2.59,-23.83 1.67,-15.88 2.84,-31.83 3.78,-47.8 l 0.26,-4.3 -3.1,-1.91 c -10.18,-6.28 -20.51,-12.33 -30.93,-18.25 -10.51,-5.79 -20.99,-11.63 -31.93,-16.79 8.76,8.34 17.98,16.01 27.17,23.73 9.28,7.58 18.65,15.03 28.17,22.26 l -2.84,-6.2 c -2.58,15.79 -4.92,31.6 -6.76,47.47 -1,7.93 -1.97,15.86 -2.68,23.82 -0.74,7.96 -1.68,15.89 -2.25,23.86 -1.29,15.94 -2.31,31.9 -2.86,47.91 -0.53,16.02 -0.73,32.07 0.06,48.23"
           style="fill:#e07375;fill-opacity:1;fill-rule:nonzero;stroke:none"
           id="path1244" />
        <path
           d="m 4306.61,3238.75 c -61.52,-59.8 -165.73,-56.49 -244.66,-3.2"
           style="fill:#ffffff;fill-opacity:1;fill-rule:nonzero;stroke:none"
           id="path1246" />
        <path
           d="m 4418.56,3556.09 c 0,0 -2.69,1.49 -7.4,4.1 -2.29,1.25 -5.07,2.77 -8.25,4.52 -3.12,1.65 -6.64,3.51 -10.49,5.54 -3.97,1.7 -7.94,3.99 -12.38,5.73 -2.15,0.96 -4.36,1.94 -6.62,2.95 -2.27,0.83 -4.6,1.68 -6.97,2.54 -4.6,2.04 -9.62,2.79 -14.4,4.48 -4.95,0.51 -9.82,2.4 -14.77,2.2 l -7.37,0.6 c -2.42,-0.29 -4.85,-0.37 -7.28,-0.5 -4.92,0.2 -9.49,-1.63 -14.24,-2.21 -4.73,-0.75 -8.98,-3.04 -13.43,-4.22 l -3.29,-1.02 -2.99,-1.51 c -2.03,-0.95 -4,-1.87 -5.89,-2.75 -3.75,-1.86 -7.6,-3.21 -10.5,-5.23 -2.98,-1.87 -5.81,-3.34 -8.14,-4.61 -4.67,-2.53 -7.66,-3.85 -7.66,-3.85 0,0 1.18,2.84 3.82,7.6 1.33,2.36 2.93,5.32 5.04,8.52 1.86,3.44 4.81,6.58 8.16,9.99 3.46,3.25 6.58,7.75 11.48,10.59 4.78,2.92 9.51,6.88 15.45,9.08 2.93,1.19 5.99,2.26 9.1,3.35 3.05,1.31 6.34,1.87 9.71,2.25 3.35,0.46 6.74,0.98 10.16,1.3 3.4,-0.04 6.83,-0.29 10.25,-0.48 6.94,-0.14 13.35,-2.44 19.78,-4 3.09,-1.12 6.04,-2.45 8.97,-3.73 2.97,-1.19 5.76,-2.58 8.31,-4.28 2.59,-1.61 5.17,-3.11 7.59,-4.74 2.26,-1.79 4.48,-3.54 6.64,-5.25 4.37,-3.29 7.68,-7.34 11,-10.65 6.22,-7.09 10.51,-13.61 13.04,-18.48 2.63,-4.8 3.57,-7.83 3.57,-7.83"
           style="fill:#29202e;fill-opacity:1;fill-rule:nonzero;stroke:none"
           id="path1248" />
        <path
           d="m 4096.67,3556.09 c 0,0 -2.69,1.49 -7.4,4.1 -2.29,1.25 -5.06,2.77 -8.25,4.52 -3.12,1.65 -6.64,3.51 -10.49,5.54 -3.97,1.7 -7.93,3.99 -12.38,5.73 -2.15,0.96 -4.36,1.94 -6.61,2.95 -2.28,0.83 -4.61,1.68 -6.98,2.54 -4.6,2.04 -9.62,2.79 -14.39,4.48 -4.96,0.51 -9.83,2.4 -14.78,2.2 l -7.37,0.6 c -2.42,-0.29 -4.85,-0.37 -7.28,-0.5 -4.92,0.2 -9.49,-1.63 -14.24,-2.21 -4.73,-0.75 -8.98,-3.04 -13.43,-4.22 l -3.28,-1.02 -3,-1.51 c -2.03,-0.95 -4,-1.87 -5.89,-2.75 -3.75,-1.86 -7.6,-3.21 -10.5,-5.23 -2.98,-1.87 -5.81,-3.34 -8.13,-4.61 -4.68,-2.53 -7.67,-3.85 -7.67,-3.85 0,0 1.19,2.84 3.82,7.6 1.33,2.36 2.93,5.32 5.04,8.52 1.86,3.44 4.81,6.58 8.16,9.99 3.46,3.25 6.58,7.75 11.48,10.59 4.78,2.92 9.51,6.88 15.45,9.08 2.93,1.19 5.99,2.26 9.1,3.35 3.05,1.31 6.35,1.87 9.71,2.25 3.35,0.46 6.74,0.98 10.16,1.3 3.41,-0.04 6.83,-0.29 10.25,-0.48 6.94,-0.14 13.35,-2.44 19.78,-4 3.09,-1.12 6.04,-2.45 8.97,-3.73 2.97,-1.19 5.77,-2.58 8.31,-4.28 2.6,-1.61 5.17,-3.11 7.59,-4.74 2.27,-1.79 4.48,-3.54 6.64,-5.25 4.38,-3.29 7.69,-7.34 11,-10.65 6.22,-7.09 10.51,-13.61 13.04,-18.48 2.63,-4.8 3.57,-7.83 3.57,-7.83"
           style="fill:#29202e;fill-opacity:1;fill-rule:nonzero;stroke:none"
           id="path1250" />
        <path
           d="m 3830.41,3514.55 88.8,-68.35 224.69,-7.04 2.23,3.12 0.21,0.29 c 1.2,1.64 7.58,9.93 16.78,17.54 9.22,7.69 21.08,14.34 32.75,14.26 6.27,-0.03 12.68,-1.71 19.64,-6.43 6.94,-4.73 14.39,-12.65 21.83,-25.16 l 2.08,-3.51 h 232.16 l 69.73,65.37 -9.81,10.47 -65.59,-61.5 H 4243.5 v -7.17 l 6.16,3.67 c -8.21,13.81 -16.93,23.43 -26.07,29.68 -9.11,6.24 -18.69,8.94 -27.72,8.92 -18.13,-0.1 -33.24,-10.04 -43.97,-19.31 -10.73,-9.37 -17.24,-18.51 -17.45,-18.79 l 5.84,-4.17 0.22,7.17 -216.22,6.78 -85.13,65.52 -8.75,-11.36"
           style="fill:#704e61;fill-opacity:1;fill-rule:nonzero;stroke:none"
           id="path1252" />
        <path
           d="m 3915.05,3446.44 c 0,-62.2 50.42,-112.62 112.62,-112.62 62.2,0 112.62,50.42 112.62,112.62 0,62.2 -50.42,112.62 -112.62,112.62 -62.2,0 -112.62,-50.42 -112.62,-112.62"
           style="fill:#93c8d9;fill-opacity:1;fill-rule:nonzero;stroke:none"
           id="path1254" />
        <path
           d="m 3915.05,3446.44 h -7.17 c 0,-66.16 53.63,-119.78 119.79,-119.79 66.16,0.01 119.79,53.63 119.79,119.79 0,66.17 -53.63,119.79 -119.79,119.79 -66.16,0 -119.79,-53.62 -119.79,-119.79 h 7.17 7.17 c 0,29.15 11.79,55.46 30.88,74.57 19.11,19.09 45.43,30.88 74.57,30.88 29.14,0 55.46,-11.79 74.56,-30.88 19.1,-19.11 30.89,-45.42 30.89,-74.57 0,-29.14 -11.79,-55.46 -30.89,-74.56 -19.1,-19.09 -45.42,-30.88 -74.56,-30.89 -29.14,0.01 -55.46,11.8 -74.57,30.89 -19.09,19.1 -30.88,45.42 -30.88,74.56 h -7.17"
           style="fill:#704e61;fill-opacity:1;fill-rule:nonzero;stroke:none"
           id="path1256" />
        <path
           d="m 4243.5,3446.44 c 0,-62.2 50.42,-112.62 112.62,-112.62 62.2,0 112.62,50.42 112.62,112.62 0,62.2 -50.42,112.62 -112.62,112.62 -62.2,0 -112.62,-50.42 -112.62,-112.62"
           style="fill:#93c8d9;fill-opacity:1;fill-rule:nonzero;stroke:none"
           id="path1258" />
        <path
           d="m 4243.5,3446.44 h -7.17 c 0,-66.16 53.63,-119.78 119.79,-119.79 66.16,0.01 119.79,53.63 119.79,119.79 0,66.17 -53.63,119.79 -119.79,119.79 -66.16,0 -119.79,-53.62 -119.79,-119.79 h 7.17 7.17 c 0,29.15 11.79,55.46 30.89,74.57 19.1,19.09 45.42,30.88 74.56,30.88 29.14,0 55.46,-11.79 74.57,-30.88 19.09,-19.11 30.88,-45.42 30.88,-74.57 0,-29.14 -11.79,-55.46 -30.88,-74.56 -19.11,-19.09 -45.43,-30.88 -74.57,-30.89 -29.14,0.01 -55.46,11.8 -74.56,30.89 -19.1,19.1 -30.89,45.42 -30.89,74.56 h -7.17"
           style="fill:#704e61;fill-opacity:1;fill-rule:nonzero;stroke:none"
           id="path1260" />
        <path
           d="m 4086.46,3432.92 c 0,0 -0.7,2.76 -2.27,7.38 -1.57,4.62 -4.01,11.12 -7.82,18.24 -3.86,7.06 -9.25,14.74 -16.76,20.34 -3.71,2.83 -7.96,5.08 -12.57,6.48 -2.27,0.8 -4.59,1.55 -7.1,1.71 -2.45,0.33 -4.87,0.85 -7.45,0.59 -2.38,-0.09 -5.41,0.22 -7.26,-0.13 -2.6,-0.5 -5.86,-0.62 -7.87,-1.42 -4.06,-1.32 -8.69,-2.87 -12.18,-5.77 -3.73,-2.57 -6.62,-6.08 -9.22,-9.56 -2.34,-3.69 -4.34,-7.45 -5.81,-11.17 -2.9,-7.46 -4.37,-14.26 -5.23,-19.05 -0.85,-4.8 -1.1,-7.64 -1.1,-7.64 0,0 -0.76,2.74 -1.27,7.72 -0.46,4.97 -0.76,12.23 1.02,20.91 0.86,4.34 2.35,9 4.68,13.72 2.54,4.56 5.61,9.52 10.32,13.25 4.42,4.01 9.93,6.96 16.33,8.86 3.18,1.09 5.58,1.12 8.42,1.74 3.64,0.64 6.26,0.32 9.45,0.48 3.05,0.18 6.12,-0.46 9.18,-0.97 3.08,-0.33 6.03,-1.31 8.94,-2.4 3,-0.83 5.66,-2.39 8.25,-3.98 2.71,-1.39 4.91,-3.43 7.15,-5.29 8.76,-7.77 13.63,-17.47 16.35,-25.72 2.79,-8.33 3.58,-15.53 3.87,-20.5 0.25,-4.99 -0.05,-7.82 -0.05,-7.82"
           style="fill:#29202e;fill-opacity:1;fill-rule:nonzero;stroke:none"
           id="path1262" />
        <path
           d="m 4375.72,3437.59 c 0,0 -0.7,2.76 -2.27,7.38 -1.57,4.61 -4.01,11.12 -7.82,18.24 -3.86,7.06 -9.25,14.74 -16.77,20.33 -3.7,2.83 -7.95,5.09 -12.56,6.49 -2.28,0.8 -4.59,1.54 -7.1,1.71 -2.45,0.33 -4.88,0.84 -7.45,0.59 -2.38,-0.1 -5.41,0.21 -7.26,-0.13 -2.6,-0.5 -5.86,-0.63 -7.87,-1.42 -4.06,-1.33 -8.69,-2.87 -12.18,-5.78 -3.74,-2.56 -6.62,-6.07 -9.22,-9.55 -2.34,-3.69 -4.35,-7.46 -5.81,-11.18 -2.9,-7.46 -4.37,-14.25 -5.23,-19.04 -0.85,-4.8 -1.1,-7.64 -1.1,-7.64 0,0 -0.76,2.74 -1.27,7.72 -0.47,4.96 -0.76,12.23 1.02,20.9 0.86,4.34 2.34,9.01 4.68,13.72 2.54,4.57 5.61,9.52 10.32,13.25 4.42,4.02 9.93,6.97 16.33,8.87 3.17,1.08 5.57,1.12 8.42,1.73 3.64,0.64 6.26,0.32 9.45,0.49 3.04,0.17 6.12,-0.47 9.18,-0.97 3.08,-0.34 6.03,-1.31 8.94,-2.41 2.99,-0.83 5.66,-2.38 8.25,-3.98 2.71,-1.38 4.9,-3.43 7.15,-5.28 8.76,-7.77 13.63,-17.47 16.35,-25.73 2.79,-8.32 3.58,-15.52 3.87,-20.49 0.25,-5 -0.05,-7.82 -0.05,-7.82"
           style="fill:#29202e;fill-opacity:1;fill-rule:nonzero;stroke:none"
           id="path1264" />
      </g>
    </g>
  </g>
</svg>
