<?xml version="1.0" encoding="UTF-8" standalone="no"?>
<!-- Created with Inkscape (http://www.inkscape.org/) -->

<svg
   width="54.518341mm"
   height="62.271858mm"
   viewBox="0 0 206.05358 235.35821"
   version="1.1"
   id="svg5"
   xmlns="http://www.w3.org/2000/svg"
   xmlns:svg="http://www.w3.org/2000/svg">
  <defs
     id="defs2">
    <clipPath
       clipPathUnits="userSpaceOnUse"
       id="clipPath846">
      <path
         d="m 6126.52,576.512 c -59.38,-61.024 -152.19,-100.34 -256.58,-100.34 -104.39,0 -197.21,39.316 -256.58,100.34 C 5458.38,533.359 5077.34,457.281 5125.11,0 h 731.04 27.57 731.04 c 47.78,457.281 -333.27,533.359 -488.24,576.512"
         id="path844" />
    </clipPath>
    <clipPath
       clipPathUnits="userSpaceOnUse"
       id="clipPath1014">
      <path
         d="m 4376.88,594.449 c -33.69,18.082 -50.83,62.852 -59.21,111.063 -46.93,-10.481 -97.76,-16.25 -150.88,-16.25 -52.06,0 -101.94,5.519 -148.1,15.597 -8.42,-47.961 -25.56,-92.41 -59.1,-110.41 C 3872.12,547.52 3355.22,524.059 3410.88,0 h 743.34 28.04 743.33 c 55.67,524.059 -461.23,547.52 -548.71,594.449"
         id="path1012" />
    </clipPath>
    <clipPath
       clipPathUnits="userSpaceOnUse"
       id="clipPath846-3">
      <path
         d="m 6126.52,576.512 c -59.38,-61.024 -152.19,-100.34 -256.58,-100.34 -104.39,0 -197.21,39.316 -256.58,100.34 C 5458.38,533.359 5077.34,457.281 5125.11,0 h 731.04 27.57 731.04 c 47.78,457.281 -333.27,533.359 -488.24,576.512"
         id="path844-6" />
    </clipPath>
    <clipPath
       clipPathUnits="userSpaceOnUse"
       id="clipPath1014-7">
      <path
         d="m 4376.88,594.449 c -33.69,18.082 -50.83,62.852 -59.21,111.063 -46.93,-10.481 -97.76,-16.25 -150.88,-16.25 -52.06,0 -101.94,5.519 -148.1,15.597 -8.42,-47.961 -25.56,-92.41 -59.1,-110.41 C 3872.12,547.52 3355.22,524.059 3410.88,0 h 743.34 28.04 743.33 c 55.67,524.059 -461.23,547.52 -548.71,594.449"
         id="path1012-5" />
    </clipPath>
    <clipPath
       clipPathUnits="userSpaceOnUse"
       id="clipPath846-3-3">
      <path
         d="m 6126.52,576.512 c -59.38,-61.024 -152.19,-100.34 -256.58,-100.34 -104.39,0 -197.21,39.316 -256.58,100.34 C 5458.38,533.359 5077.34,457.281 5125.11,0 h 731.04 27.57 731.04 c 47.78,457.281 -333.27,533.359 -488.24,576.512"
         id="path844-6-5" />
    </clipPath>
    <clipPath
       clipPathUnits="userSpaceOnUse"
       id="clipPath1014-7-6">
      <path
         d="m 4376.88,594.449 c -33.69,18.082 -50.83,62.852 -59.21,111.063 -46.93,-10.481 -97.76,-16.25 -150.88,-16.25 -52.06,0 -101.94,5.519 -148.1,15.597 -8.42,-47.961 -25.56,-92.41 -59.1,-110.41 C 3872.12,547.52 3355.22,524.059 3410.88,0 h 743.34 28.04 743.33 c 55.67,524.059 -461.23,547.52 -548.71,594.449"
         id="path1012-5-2" />
    </clipPath>
    <clipPath
       clipPathUnits="userSpaceOnUse"
       id="clipPath846-3-3-9">
      <path
         d="m 6126.52,576.512 c -59.38,-61.024 -152.19,-100.34 -256.58,-100.34 -104.39,0 -197.21,39.316 -256.58,100.34 C 5458.38,533.359 5077.34,457.281 5125.11,0 h 731.04 27.57 731.04 c 47.78,457.281 -333.27,533.359 -488.24,576.512"
         id="path844-6-5-1" />
    </clipPath>
    <clipPath
       clipPathUnits="userSpaceOnUse"
       id="clipPath1014-7-6-2">
      <path
         d="m 4376.88,594.449 c -33.69,18.082 -50.83,62.852 -59.21,111.063 -46.93,-10.481 -97.76,-16.25 -150.88,-16.25 -52.06,0 -101.94,5.519 -148.1,15.597 -8.42,-47.961 -25.56,-92.41 -59.1,-110.41 C 3872.12,547.52 3355.22,524.059 3410.88,0 h 743.34 28.04 743.33 c 55.67,524.059 -461.23,547.52 -548.71,594.449"
         id="path1012-5-2-7" />
    </clipPath>
  </defs>
  <g
     id="layer1"
     transform="translate(-509.20549,-400.91396)">
    <g
       id="g832"
       transform="matrix(0.1333333,0,0,-0.13333333,-7.1594478,676.05763)">
      <g
         id="g2191"
         transform="translate(-1222.2459,-1971.0891)">
        <path
           d="m 6072.43,2856.03 c -84.82,46.26 -61.69,269.91 -61.69,269.91 l -127.03,-8.19 v 8.16 l -13.59,-4.08 -13.59,4.08 v -8.16 l -127.03,8.19 c 0,0 23.13,-223.65 -61.69,-269.91 -84.82,-46.27 -586.03,-69.4 -532.05,-586.03 h 720.77 27.18 720.77 c 53.98,516.63 -447.23,539.76 -532.05,586.03"
           style="fill:#f6826f;fill-opacity:1;fill-rule:nonzero;stroke:none"
           id="path1152" />
        <path
           d="m 5711.69,2913.72 c 101.46,15.12 202.86,30.73 304.19,46.81 -14.25,77.11 -5.14,165.41 -5.14,165.41 l -127.03,-8.19 v 8.16 l -13.59,-4.08 -13.59,4.08 v -8.16 l -127.03,8.19 c 0,0 13.39,-129.95 -17.81,-212.22"
           style="fill:#d86c5c;fill-opacity:1;fill-rule:nonzero;stroke:none"
           id="path1154" />
        <path
           d="m 6153.9,2830.05 c -69.05,-61.6 -170.54,-100.57 -283.78,-100.57 -113.24,0 -214.73,38.97 -283.78,100.57 -166.91,-44.92 -494.77,-137.1 -450.58,-560.05 h 720.77 27.18 720.77 c 44.19,422.95 -283.67,515.13 -450.58,560.05"
           style="fill:#f2515a;fill-opacity:1;fill-rule:nonzero;stroke:none"
           id="path1156" />
        <path
           d="m 5132.05,2357.82 c -0.56,-27.63 0.46,-56.73 3.71,-87.82 h 1468.72 c 19.18,183.56 -31.76,304.76 -109.17,386.89 -458.44,-80.06 -912.11,-184.51 -1363.26,-299.07"
           style="fill:#f1424f;fill-opacity:1;fill-rule:nonzero;stroke:none"
           id="path1158" />
        <path
           d="m 5563.72,2849.49 86.67,-580.01 h -553.34 c 0,0 -60,493.34 466.67,580.01"
           style="fill:#704e61;fill-opacity:1;fill-rule:nonzero;stroke:none"
           id="path1160" />
        <path
           d="m 5563.72,2849.49 86.67,-580.01 -233.34,366.67 93.34,126.67 -120,46.66 c 0,0 80,36.67 173.33,40.01"
           style="fill:#8b617a;fill-opacity:1;fill-rule:nonzero;stroke:none"
           id="path1162" />
        <path
           d="m 6171.65,2849.49 -86.66,-580.01 h 553.33 c 0,0 60,493.34 -466.67,580.01"
           style="fill:#704e61;fill-opacity:1;fill-rule:nonzero;stroke:none"
           id="path1164" />
        <path
           d="m 6171.65,2849.49 -86.66,-580.01 233.33,366.67 -93.33,126.67 120,46.66 c 0,0 -80,36.67 -173.34,40.01"
           style="fill:#8b617a;fill-opacity:1;fill-rule:nonzero;stroke:none"
           id="path1166" />
        <path
           d="m 5621.75,3453.3 c -24.99,77.53 -84.17,59.58 -89.71,57.71 -5.81,-0.68 -66.98,-9.76 -56.41,-90.54 10.63,-81.25 57.78,-125.29 101.98,-112.35 45.5,7.21 69.28,67.18 44.14,145.18"
           style="fill:#d86c5c;fill-opacity:1;fill-rule:nonzero;stroke:none"
           id="path1168" />
        <path
           d="m 6120.77,3453.3 c 24.99,77.53 84.17,59.58 89.71,57.71 5.81,-0.68 66.98,-9.76 56.41,-90.54 -10.63,-81.25 -57.77,-125.29 -101.98,-112.35 -45.5,7.21 -69.28,67.18 -44.14,145.18"
           style="fill:#d86c5c;fill-opacity:1;fill-rule:nonzero;stroke:none"
           id="path1170" />
        <path
           d="m 5561.12,3570.75 c 30.97,339.91 289.38,320.87 313.75,318.31 24.37,2.56 282.78,21.6 313.75,-318.31 31.15,-341.93 -121.15,-565.24 -313.75,-552.96 -192.6,-12.28 -344.9,211.03 -313.75,552.96"
           style="fill:#f6826f;fill-opacity:1;fill-rule:nonzero;stroke:none"
           id="path1172" />
        <path
           d="m 5919.43,3530.89 c 4.3,-15.59 7.61,-31.3 10.6,-47.05 2.96,-15.74 5.46,-31.54 7.69,-47.37 1.18,-7.91 2.01,-15.86 3.03,-23.78 1.04,-7.92 1.83,-15.87 2.59,-23.83 1.67,-15.88 2.84,-31.83 3.78,-47.8 l 0.26,-4.3 -3.1,-1.91 c -10.18,-6.28 -20.51,-12.33 -30.93,-18.25 -10.51,-5.79 -20.99,-11.63 -31.93,-16.79 8.76,8.34 17.98,16.01 27.17,23.73 9.28,7.58 18.65,15.03 28.17,22.26 l -2.84,-6.2 c -2.58,15.79 -4.92,31.6 -6.76,47.47 -1.01,7.93 -1.97,15.86 -2.68,23.82 -0.74,7.96 -1.68,15.89 -2.25,23.86 -1.29,15.94 -2.31,31.9 -2.86,47.91 -0.53,16.02 -0.73,32.07 0.06,48.23"
           style="fill:#a9564b;fill-opacity:1;fill-rule:nonzero;stroke:none"
           id="path1174" />
        <path
           d="m 6006.61,3238.75 c -61.52,-59.8 -157.29,-55.89 -236.22,-2.6"
           style="fill:#ffffff;fill-opacity:1;fill-rule:nonzero;stroke:none"
           id="path1176" />
        <path
           d="m 6118.56,3556.09 c 0,0 -11.94,4.47 -29.85,11.16 -4.32,1.35 -8.61,3.3 -13.35,4.63 -2.36,0.67 -4.63,1.63 -7.02,2.37 -2.45,0.56 -4.82,1.34 -7.25,2.03 -4.8,1.62 -9.83,2.2 -14.66,3.6 -4.94,0.31 -9.79,2.05 -14.65,1.8 l -7.23,0.64 c -2.38,-0.28 -4.76,-0.26 -7.15,-0.33 -4.83,0.33 -9.4,-1.12 -14.17,-1.42 -2.44,0 -4.65,-0.84 -6.95,-1.4 -2.3,-0.56 -4.55,-1.19 -6.86,-1.64 -4.75,-0.59 -8.74,-2.92 -12.98,-4.07 -4.13,-1.4 -8.36,-2.32 -11.65,-4.02 -3.42,-1.5 -6.68,-2.63 -9.35,-3.65 -5.39,-2 -8.95,-2.94 -8.95,-2.94 0,0 0.94,3.27 3.42,8.67 1.26,2.68 2.78,6.03 4.85,9.68 1.84,3.87 4.99,7.29 8.38,11.26 3.61,3.7 7.04,8.5 12.29,11.74 5.13,3.29 10.25,7.71 16.76,10.09 3.19,1.35 6.53,2.52 9.93,3.73 3.35,1.44 6.95,2.02 10.63,2.49 3.66,0.53 7.37,1.14 11.11,1.46 3.72,-0.03 7.46,-0.24 11.21,-0.44 7.58,-0.21 14.6,-2.49 21.6,-4.28 3.39,-1.1 6.58,-2.61 9.76,-4 3.2,-1.35 6.29,-2.77 9.03,-4.64 2.8,-1.77 5.58,-3.4 8.17,-5.21 2.49,-1.93 4.88,-3.81 7.12,-5.77 4.62,-3.71 8.2,-8.05 11.62,-11.78 6.43,-7.96 10.67,-15.3 13.01,-20.85 2.49,-5.44 3.18,-8.91 3.18,-8.91"
           style="fill:#29202e;fill-opacity:1;fill-rule:nonzero;stroke:none"
           id="path1178" />
        <path
           d="m 5828.18,3562.68 c 0,0 -12.59,3.63 -31.47,9.09 -4.54,1.05 -9.13,2.67 -14.12,3.68 -4.86,1.37 -9.97,2.35 -15.1,3.41 -5.1,1.22 -10.38,1.53 -15.52,2.54 -5.19,0 -10.38,1.37 -15.46,0.79 l -7.64,0.13 c -2.47,-0.45 -4.97,-0.59 -7.47,-0.83 -5.1,-0.03 -9.79,-1.75 -14.74,-2.42 -2.54,-0.19 -4.82,-1.11 -7.16,-1.87 -2.35,-0.72 -4.65,-1.51 -7.01,-2.13 -4.87,-0.93 -8.89,-3.46 -13.18,-4.94 -4.16,-1.71 -8.48,-2.86 -11.76,-4.81 -3.42,-1.73 -6.69,-3.09 -9.37,-4.3 -5.4,-2.36 -8.98,-3.54 -8.98,-3.54 0,0 0.86,3.38 3.19,9.01 1.19,2.79 2.63,6.29 4.6,10.12 1.73,4.05 4.86,7.64 8.15,11.87 3.5,3.99 6.89,8.98 12.08,12.56 2.45,1.97 5.1,3.84 7.79,5.84 2.65,2.1 5.57,3.89 8.83,5.26 6.44,2.79 13.06,6.45 20.55,7.51 3.68,0.76 7.41,1.62 11.19,2.19 3.78,0.22 7.59,0.27 11.4,0.33 7.7,0.32 15.02,-1.42 22.27,-2.71 3.56,-0.8 6.92,-2.11 10.27,-3.25 3.36,-1.13 6.65,-2.27 9.61,-3.95 6.13,-2.91 11.72,-6.19 16.59,-9.84 5.05,-3.37 9.15,-7.43 12.98,-10.94 7.35,-7.51 12.39,-14.6 15.34,-20.03 3.08,-5.31 4.14,-8.77 4.14,-8.77"
           style="fill:#29202e;fill-opacity:1;fill-rule:nonzero;stroke:none"
           id="path1180" />
        <path
           d="m 5786.46,3432.92 c 0,0 -0.7,2.76 -2.27,7.38 -1.57,4.62 -4.01,11.12 -7.82,18.24 -3.86,7.06 -9.25,14.74 -16.76,20.34 -3.71,2.83 -7.96,5.08 -12.57,6.48 -2.27,0.8 -4.59,1.55 -7.1,1.71 -2.45,0.33 -4.87,0.85 -7.45,0.59 -2.38,-0.09 -5.41,0.22 -7.26,-0.13 -2.6,-0.5 -5.86,-0.62 -7.87,-1.42 -4.06,-1.32 -8.69,-2.87 -12.18,-5.77 -3.73,-2.57 -6.62,-6.08 -9.22,-9.56 -2.34,-3.69 -4.34,-7.45 -5.81,-11.17 -2.9,-7.46 -4.37,-14.26 -5.23,-19.05 -0.85,-4.8 -1.1,-7.64 -1.1,-7.64 0,0 -0.76,2.74 -1.27,7.72 -0.47,4.97 -0.76,12.23 1.02,20.91 0.86,4.34 2.35,9 4.68,13.72 2.54,4.56 5.61,9.52 10.32,13.25 4.42,4.01 9.93,6.96 16.33,8.86 3.18,1.09 5.57,1.12 8.42,1.74 3.64,0.64 6.26,0.32 9.45,0.48 3.04,0.18 6.13,-0.46 9.18,-0.97 3.08,-0.33 6.04,-1.31 8.94,-2.4 3,-0.83 5.66,-2.39 8.25,-3.98 2.71,-1.39 4.9,-3.43 7.15,-5.29 8.76,-7.77 13.63,-17.47 16.35,-25.72 2.79,-8.33 3.58,-15.53 3.87,-20.5 0.25,-4.99 -0.05,-7.82 -0.05,-7.82"
           style="fill:#29202e;fill-opacity:1;fill-rule:nonzero;stroke:none"
           id="path1182" />
        <path
           d="m 6075.72,3437.59 c 0,0 -0.7,2.76 -2.27,7.38 -1.57,4.61 -4.01,11.12 -7.82,18.24 -3.86,7.06 -9.25,14.74 -16.77,20.33 -3.7,2.83 -7.95,5.09 -12.56,6.49 -2.27,0.8 -4.59,1.54 -7.1,1.71 -2.45,0.33 -4.88,0.84 -7.45,0.59 -2.38,-0.1 -5.42,0.21 -7.26,-0.13 -2.6,-0.5 -5.86,-0.63 -7.87,-1.42 -4.06,-1.33 -8.69,-2.87 -12.18,-5.78 -3.74,-2.56 -6.62,-6.07 -9.22,-9.55 -2.34,-3.69 -4.34,-7.46 -5.81,-11.18 -2.9,-7.46 -4.37,-14.25 -5.23,-19.04 -0.85,-4.8 -1.1,-7.64 -1.1,-7.64 0,0 -0.76,2.74 -1.27,7.72 -0.47,4.96 -0.76,12.23 1.02,20.9 0.86,4.34 2.35,9.01 4.68,13.72 2.54,4.57 5.61,9.52 10.32,13.25 4.42,4.02 9.93,6.97 16.33,8.87 3.18,1.08 5.57,1.12 8.42,1.73 3.64,0.64 6.25,0.32 9.45,0.49 3.04,0.17 6.12,-0.47 9.17,-0.97 3.09,-0.34 6.04,-1.31 8.95,-2.41 2.99,-0.83 5.66,-2.38 8.25,-3.98 2.71,-1.38 4.9,-3.43 7.15,-5.28 8.76,-7.77 13.63,-17.47 16.35,-25.73 2.79,-8.32 3.58,-15.52 3.87,-20.49 0.25,-5 -0.05,-7.82 -0.05,-7.82"
           style="fill:#29202e;fill-opacity:1;fill-rule:nonzero;stroke:none"
           id="path1184" />
        <path
           d="m 5720.39,3239.48 h 160 l 166.66,-3.33 c 0,0 -38.96,70.33 -165.63,63.66 -126.66,-6.67 -137.7,-36.99 -161.03,-60.33"
           style="fill:#29202e;fill-opacity:1;fill-rule:nonzero;stroke:none"
           id="path1186" />
        <path
           d="m 5677.05,3792.82 c 0,0 130,-166.67 316.67,-136.67 l -43.33,60 c 0,0 113.33,-53.33 303.33,-3.33 0,0 13.33,206.66 -310,253.33 0,0 153.33,-13.33 260,-76.67 0,0 -313.33,326.67 -570,0 0,0 -146.67,-3.33 -153.33,-166.66 -6.67,-163.34 33.33,-223.34 33.33,-223.34 0,0 33.33,26.67 43.33,-30 10,-56.66 0,-143.33 36.67,-223.33 l 60,43.33 c 0,0 -76.67,180 -60,330 0,0 96.67,20 83.33,173.34"
           style="fill:#29202e;fill-opacity:1;fill-rule:nonzero;stroke:none"
           id="path1188" />
        <path
           d="m 6207.05,3742.82 c 0,0 43.34,-366.67 -60,-513.34 l -40,50 c 0,0 113.34,200 26.67,440 l 73.33,23.34"
           style="fill:#29202e;fill-opacity:1;fill-rule:nonzero;stroke:none"
           id="path1190" />
      </g>
    </g>
  </g>
</svg>
