<?xml version="1.0" encoding="UTF-8" standalone="no"?>
<!-- Created with Inkscape (http://www.inkscape.org/) -->

<svg
   width="54.463169mm"
   height="61.667225mm"
   viewBox="0 0 205.84505 233.07298"
   version="1.1"
   id="svg5"
   xmlns="http://www.w3.org/2000/svg"
   xmlns:svg="http://www.w3.org/2000/svg">
  <defs
     id="defs2">
    <clipPath
       clipPathUnits="userSpaceOnUse"
       id="clipPath846">
      <path
         d="m 6126.52,576.512 c -59.38,-61.024 -152.19,-100.34 -256.58,-100.34 -104.39,0 -197.21,39.316 -256.58,100.34 C 5458.38,533.359 5077.34,457.281 5125.11,0 h 731.04 27.57 731.04 c 47.78,457.281 -333.27,533.359 -488.24,576.512"
         id="path844" />
    </clipPath>
    <clipPath
       clipPathUnits="userSpaceOnUse"
       id="clipPath1014">
      <path
         d="m 4376.88,594.449 c -33.69,18.082 -50.83,62.852 -59.21,111.063 -46.93,-10.481 -97.76,-16.25 -150.88,-16.25 -52.06,0 -101.94,5.519 -148.1,15.597 -8.42,-47.961 -25.56,-92.41 -59.1,-110.41 C 3872.12,547.52 3355.22,524.059 3410.88,0 h 743.34 28.04 743.33 c 55.67,524.059 -461.23,547.52 -548.71,594.449"
         id="path1012" />
    </clipPath>
    <clipPath
       clipPathUnits="userSpaceOnUse"
       id="clipPath846-3">
      <path
         d="m 6126.52,576.512 c -59.38,-61.024 -152.19,-100.34 -256.58,-100.34 -104.39,0 -197.21,39.316 -256.58,100.34 C 5458.38,533.359 5077.34,457.281 5125.11,0 h 731.04 27.57 731.04 c 47.78,457.281 -333.27,533.359 -488.24,576.512"
         id="path844-6" />
    </clipPath>
    <clipPath
       clipPathUnits="userSpaceOnUse"
       id="clipPath1014-7">
      <path
         d="m 4376.88,594.449 c -33.69,18.082 -50.83,62.852 -59.21,111.063 -46.93,-10.481 -97.76,-16.25 -150.88,-16.25 -52.06,0 -101.94,5.519 -148.1,15.597 -8.42,-47.961 -25.56,-92.41 -59.1,-110.41 C 3872.12,547.52 3355.22,524.059 3410.88,0 h 743.34 28.04 743.33 c 55.67,524.059 -461.23,547.52 -548.71,594.449"
         id="path1012-5" />
    </clipPath>
  </defs>
  <g
     id="layer1"
     transform="translate(-273.11853,-262.35015)">
    <g
       id="g832"
       transform="matrix(0.1333333,0,0,-0.13333333,-7.1594478,676.05763)">
      <g
         id="g2082"
         transform="translate(2102.0854,-915.24124)">
        <path
           d="m 630.387,3022.82 c 0,0 -153.332,-96.67 -70,-243.34 83.332,-146.66 660.003,-106.66 363.332,243.34 -245.063,289.12 -293.332,0 -293.332,0"
           style="fill:#7a3134;fill-opacity:1;fill-rule:nonzero;stroke:none"
           id="path1310" />
        <path
           d="m 1191.58,3396.15 c 0,0 -66.67,-80 -53.33,-160 19.18,-115.13 -156.672,-266.66 -336.672,-216.66 -180,50 13.332,386.66 13.332,386.66 l 376.67,-10"
           style="fill:#7a3134;fill-opacity:1;fill-rule:nonzero;stroke:none"
           id="path1312" />
        <path
           d="m 350.387,3396.15 c 0,0 66.668,-80 53.332,-160 -19.188,-115.13 156.668,-266.66 336.668,-216.66 180,50 -13.332,386.66 -13.332,386.66 l -376.668,-10"
           style="fill:#7a3134;fill-opacity:1;fill-rule:nonzero;stroke:none"
           id="path1314" />
        <path
           d="m 807.859,3144.35 c 82.899,-1.12 165.516,13.61 240.001,51.79 39.41,20.2 66.44,47.9 89.8,79.1 7.53,65.03 53.92,120.91 53.92,120.91 l -376.67,10 c 0,0 -81.969,-142.83 -89.41,-256.25 27.59,-3.22 55.121,-5.19 82.359,-5.55"
           style="fill:#a1444b;fill-opacity:1;fill-rule:nonzero;stroke:none"
           id="path1316" />
        <path
           d="m 405.211,3250.11 c 122.859,-65.25 266.297,-103.93 402.648,-105.76 2.969,-0.04 5.926,0.09 8.895,0.1 -5.074,114.23 -89.699,261.7 -89.699,261.7 l -376.668,-10 c 0,0 59.07,-70.95 54.824,-146.04"
           style="fill:#a1444b;fill-opacity:1;fill-rule:nonzero;stroke:none"
           id="path1318" />
        <path
           d="m 972.434,2856.03 c -84.825,46.26 -61.692,269.91 -61.692,269.91 l -127.027,-8.19 v 8.16 l -13.594,-4.08 -13.594,4.08 v -8.16 l -127.031,8.19 c 0,0 23.133,-223.65 -61.687,-269.91 C 482.988,2809.76 -38.2344,2786.63 15.7422,2270 H 756.527 783.715 1524.5 c 53.97,516.63 -467.25,539.76 -552.066,586.03"
           style="fill:#f78e92;fill-opacity:1;fill-rule:nonzero;stroke:none"
           id="path1320" />
        <path
           d="m 611.688,2913.72 c 101.468,15.12 202.863,30.73 304.195,46.81 -14.258,77.11 -5.141,165.41 -5.141,165.41 l -127.027,-8.19 v 8.16 l -13.598,-4.08 -13.59,4.08 v -8.16 l -127.031,8.19 c 0,0 13.391,-129.95 -17.808,-212.22"
           style="fill:#e07375;fill-opacity:1;fill-rule:nonzero;stroke:none"
           id="path1322" />
        <path
           d="M 1144.94,2816.24 C 1070.7,2748.96 961.125,2702.34 836.039,2690.3 l -67.379,-242.56 -35.648,240.64 c -135.543,7.84 -254.918,56.1 -334.117,127.86 C 222.758,2759.8 -34.5391,2637.44 3.84766,2270 H 758.07 785.766 1539.99 c 38.39,367.44 -218.91,489.8 -395.05,546.24"
           style="fill:#458582;fill-opacity:1;fill-rule:nonzero;stroke:none"
           id="path1324" />
        <path
           d="m 742.152,2626.68 -9.14,61.7 c -135.543,7.84 -254.918,56.1 -334.117,127.86 -29.926,-9.59 -61.625,-21.16 -93.434,-35.43 62.473,-84.9 232.492,-147.39 436.691,-154.13"
           style="fill:#5cafa3;fill-opacity:1;fill-rule:nonzero;stroke:none"
           id="path1326" />
        <path
           d="m 1248.74,2776.12 c -35.27,16.51 -70.62,29.49 -103.8,40.12 -74.24,-67.28 -183.815,-113.9 -308.901,-125.94 l -17.644,-63.52 c 199.165,7.09 365.465,67.22 430.345,149.34"
           style="fill:#5cafa3;fill-opacity:1;fill-rule:nonzero;stroke:none"
           id="path1328" />
        <path
           d="m 753.383,2389.16 c 0,-15.47 12.539,-28.01 28.012,-28.01 15.468,0 28.011,12.54 28.011,28.01 0,15.47 -12.543,28.01 -28.011,28.01 -15.473,0 -28.012,-12.54 -28.012,-28.01"
           style="fill:#5cafa3;fill-opacity:1;fill-rule:nonzero;stroke:none"
           id="path1330" />
        <path
           d="m 521.754,3453.3 c -24.992,77.53 -84.172,59.58 -89.711,57.71 -5.813,-0.68 -66.98,-9.76 -56.414,-90.54 10.629,-81.25 57.777,-125.29 101.984,-112.35 45.496,7.21 69.282,67.18 44.141,145.18"
           style="fill:#e07375;fill-opacity:1;fill-rule:nonzero;stroke:none"
           id="path1332" />
        <path
           d="m 1020.77,3453.3 c 24.99,77.53 84.17,59.58 89.71,57.71 5.81,-0.68 66.98,-9.76 56.41,-90.54 -10.63,-81.25 -57.77,-125.29 -101.98,-112.35 -45.5,7.21 -69.281,67.18 -44.14,145.18"
           style="fill:#e07375;fill-opacity:1;fill-rule:nonzero;stroke:none"
           id="path1334" />
        <path
           d="m 461.121,3570.75 c 30.973,339.91 289.379,320.87 313.75,318.31 24.367,2.56 282.779,21.6 313.749,-318.31 31.15,-341.93 -121.147,-565.24 -313.749,-552.96 -192.605,-12.28 -344.902,211.03 -313.75,552.96"
           style="fill:#f78e92;fill-opacity:1;fill-rule:nonzero;stroke:none"
           id="path1336" />
        <path
           d="m 450.387,3506.15 c 0,0 -16.668,-446.66 246.668,-496.66 263.332,-50 426.665,169.99 403.335,519.99 l -33.34,3.34 c 0,0 -21.66,-353.34 -101.663,-356.67 -80,-3.33 38.333,110 -115,116.67 -153.332,6.66 -229.219,57.78 -241.668,-71.67 -8.332,-86.67 -115,61.67 -128.332,291.67 -13.332,230 -30,-6.67 -30,-6.67"
           style="fill:#a1444b;fill-opacity:1;fill-rule:nonzero;stroke:none"
           id="path1338" />
        <path
           d="m 493.023,3410.17 c -6.046,31.76 -10.519,66.17 -12.636,102.65 -13.332,230 -30,-6.67 -30,-6.67 0,0 -1.805,-48.48 5.183,-115.28 12.524,6.36 24.985,12.83 37.453,19.3"
           style="fill:#7a3134;fill-opacity:1;fill-rule:nonzero;stroke:none"
           id="path1340" />
        <path
           d="m 1100.69,3407.21 c 2.57,38.66 2.55,79.48 -0.3,122.27 l -33.34,3.34 c 0,0 -2.98,-48.4 -10.76,-109.5 14.83,-5.28 29.64,-10.64 44.4,-16.11"
           style="fill:#7a3134;fill-opacity:1;fill-rule:nonzero;stroke:none"
           id="path1342" />
        <path
           d="m 819.426,3530.89 c 4.301,-15.59 7.621,-31.3 10.605,-47.05 2.961,-15.74 5.457,-31.54 7.692,-47.37 1.179,-7.91 2.004,-15.86 3.023,-23.78 1.047,-7.92 1.836,-15.87 2.594,-23.83 1.672,-15.88 2.844,-31.83 3.785,-47.8 l 0.254,-4.3 -3.102,-1.91 c -10.179,-6.28 -20.507,-12.33 -30.925,-18.25 -10.512,-5.79 -20.989,-11.63 -31.93,-16.79 8.762,8.34 17.984,16.01 27.172,23.73 9.277,7.58 18.648,15.03 28.168,22.26 l -2.844,-6.2 c -2.578,15.79 -4.922,31.6 -6.762,47.47 -1,7.93 -1.968,15.86 -2.679,23.82 -0.739,7.96 -1.672,15.89 -2.25,23.86 -1.286,15.94 -2.301,31.9 -2.856,47.91 -0.531,16.02 -0.726,32.07 0.055,48.23"
           style="fill:#e07375;fill-opacity:1;fill-rule:nonzero;stroke:none"
           id="path1344" />
        <path
           d="m 1018.56,3556.09 c 0,0 -2.69,1.49 -7.4,4.1 -2.29,1.25 -5.07,2.77 -8.25,4.52 -3.121,1.65 -6.644,3.51 -10.484,5.54 -3.973,1.7 -7.942,3.99 -12.383,5.73 -2.148,0.96 -4.359,1.94 -6.617,2.95 -2.281,0.83 -4.61,1.68 -6.977,2.54 -4.605,2.04 -9.621,2.79 -14.394,4.48 -4.957,0.51 -9.825,2.4 -14.774,2.2 l -7.371,0.6 c -2.426,-0.29 -4.851,-0.37 -7.277,-0.5 -4.922,0.2 -9.492,-1.63 -14.242,-2.21 -4.735,-0.75 -8.981,-3.04 -13.434,-4.22 l -3.281,-1.02 -2.996,-1.51 c -2.035,-0.95 -4,-1.87 -5.887,-2.75 -3.754,-1.86 -7.605,-3.21 -10.5,-5.23 -2.98,-1.87 -5.816,-3.34 -8.137,-4.61 -4.672,-2.53 -7.664,-3.85 -7.664,-3.85 0,0 1.184,2.84 3.817,7.6 1.332,2.36 2.929,5.32 5.039,8.52 1.863,3.44 4.812,6.58 8.16,9.99 3.461,3.25 6.578,7.75 11.48,10.59 4.778,2.92 9.512,6.88 15.45,9.08 2.933,1.19 5.992,2.26 9.097,3.35 3.059,1.31 6.348,1.87 9.719,2.25 3.348,0.46 6.738,0.98 10.156,1.3 3.403,-0.04 6.828,-0.29 10.254,-0.48 6.938,-0.14 13.344,-2.44 19.781,-4 3.082,-1.12 6.039,-2.45 8.961,-3.73 2.973,-1.19 5.77,-2.58 8.309,-4.28 2.601,-1.61 5.18,-3.11 7.594,-4.74 2.265,-1.79 4.48,-3.54 6.64,-5.25 4.375,-3.29 7.684,-7.34 11.001,-10.65 6.22,-7.09 10.51,-13.61 13.04,-18.48 2.63,-4.8 3.57,-7.83 3.57,-7.83"
           style="fill:#29202e;fill-opacity:1;fill-rule:nonzero;stroke:none"
           id="path1346" />
        <path
           d="m 696.672,3556.09 c 0,0 -2.692,1.49 -7.402,4.1 -2.29,1.25 -5.067,2.77 -8.25,4.52 -3.122,1.65 -6.641,3.51 -10.485,5.54 -3.972,1.7 -7.937,3.99 -12.379,5.73 -2.152,0.96 -4.359,1.94 -6.621,2.95 -2.277,0.83 -4.605,1.68 -6.976,2.54 -4.602,2.04 -9.618,2.79 -14.395,4.48 -4.957,0.51 -9.82,2.4 -14.773,2.2 l -7.368,0.6 c -2.425,-0.29 -4.851,-0.37 -7.277,-0.5 -4.926,0.2 -9.492,-1.63 -14.242,-2.21 -4.738,-0.75 -8.981,-3.04 -13.434,-4.22 l -3.285,-1.02 -2.992,-1.51 c -2.035,-0.95 -4,-1.87 -5.887,-2.75 -3.754,-1.86 -7.605,-3.21 -10.5,-5.23 -2.98,-1.87 -5.816,-3.34 -8.14,-4.61 -4.672,-2.53 -7.664,-3.85 -7.664,-3.85 0,0 1.183,2.84 3.82,7.6 1.332,2.36 2.93,5.32 5.035,8.52 1.863,3.44 4.816,6.58 8.16,9.99 3.461,3.25 6.578,7.75 11.485,10.59 4.777,2.92 9.511,6.88 15.445,9.08 2.933,1.19 5.996,2.26 9.101,3.35 3.055,1.31 6.348,1.87 9.715,2.25 3.348,0.46 6.742,0.98 10.157,1.3 3.406,-0.04 6.828,-0.29 10.253,-0.48 6.938,-0.14 13.348,-2.44 19.782,-4 3.082,-1.12 6.039,-2.45 8.961,-3.73 2.972,-1.19 5.769,-2.58 8.312,-4.28 2.598,-1.61 5.176,-3.11 7.594,-4.74 2.262,-1.79 4.48,-3.54 6.637,-5.25 4.375,-3.29 7.687,-7.34 11,-10.65 6.218,-7.09 10.507,-13.61 13.039,-18.48 2.632,-4.8 3.574,-7.83 3.574,-7.83"
           style="fill:#29202e;fill-opacity:1;fill-rule:nonzero;stroke:none"
           id="path1348" />
        <path
           d="m 686.461,3432.92 c 0,0 -0.699,2.76 -2.273,7.38 -1.571,4.62 -4.008,11.12 -7.817,18.24 -3.859,7.06 -9.254,14.74 -16.766,20.34 -3.707,2.83 -7.957,5.08 -12.562,6.48 -2.277,0.8 -4.59,1.55 -7.098,1.71 -2.453,0.33 -4.879,0.85 -7.453,0.59 -2.383,-0.09 -5.414,0.22 -7.265,-0.13 -2.594,-0.5 -5.852,-0.62 -7.864,-1.42 -4.058,-1.32 -8.687,-2.87 -12.179,-5.77 -3.739,-2.57 -6.621,-6.08 -9.223,-9.56 -2.34,-3.69 -4.344,-7.45 -5.809,-11.17 -2.902,-7.46 -4.371,-14.26 -5.226,-19.05 -0.86,-4.8 -1.106,-7.64 -1.106,-7.64 0,0 -0.761,2.74 -1.273,7.72 -0.461,4.97 -0.758,12.23 1.027,20.91 0.856,4.34 2.344,9 4.676,13.72 2.539,4.56 5.609,9.52 10.316,13.25 4.426,4.01 9.93,6.96 16.336,8.86 3.172,1.09 5.575,1.12 8.418,1.74 3.645,0.64 6.258,0.32 9.45,0.48 3.046,0.18 6.125,-0.46 9.175,-0.97 3.082,-0.33 6.039,-1.31 8.946,-2.4 2.996,-0.83 5.664,-2.39 8.25,-3.98 2.714,-1.39 4.906,-3.43 7.148,-5.29 8.762,-7.77 13.633,-17.47 16.356,-25.72 2.785,-8.33 3.574,-15.53 3.867,-20.5 0.25,-4.99 -0.051,-7.82 -0.051,-7.82"
           style="fill:#29202e;fill-opacity:1;fill-rule:nonzero;stroke:none"
           id="path1350" />
        <path
           d="m 975.719,3437.59 c 0,0 -0.699,2.76 -2.274,7.38 -1.566,4.61 -4.007,11.12 -7.816,18.24 -3.859,7.06 -9.25,14.74 -16.766,20.33 -3.703,2.83 -7.953,5.09 -12.562,6.49 -2.278,0.8 -4.59,1.54 -7.098,1.71 -2.453,0.33 -4.879,0.84 -7.453,0.59 -2.379,-0.1 -5.414,0.21 -7.266,-0.13 -2.593,-0.5 -5.851,-0.63 -7.863,-1.42 -4.058,-1.33 -8.687,-2.87 -12.18,-5.78 -3.738,-2.56 -6.621,-6.07 -9.222,-9.55 -2.34,-3.69 -4.344,-7.46 -5.809,-11.18 -2.902,-7.46 -4.371,-14.25 -5.226,-19.04 -0.86,-4.8 -1.106,-7.64 -1.106,-7.64 0,0 -0.762,2.74 -1.269,7.72 -0.465,4.96 -0.762,12.23 1.023,20.9 0.856,4.34 2.344,9.01 4.676,13.72 2.539,4.57 5.609,9.52 10.32,13.25 4.426,4.02 9.926,6.97 16.332,8.87 3.176,1.08 5.574,1.12 8.418,1.73 3.645,0.64 6.258,0.32 9.449,0.49 3.047,0.17 6.125,-0.47 9.176,-0.97 3.082,-0.34 6.039,-1.31 8.945,-2.41 2.997,-0.83 5.665,-2.38 8.25,-3.98 2.715,-1.38 4.907,-3.43 7.153,-5.28 8.758,-7.77 13.629,-17.47 16.351,-25.73 2.786,-8.32 3.578,-15.52 3.868,-20.49 0.253,-5 -0.051,-7.82 -0.051,-7.82"
           style="fill:#29202e;fill-opacity:1;fill-rule:nonzero;stroke:none"
           id="path1352" />
        <path
           d="m 906.609,3238.75 c -61.523,-59.8 -165.726,-56.49 -244.66,-3.2"
           style="fill:#ffffff;fill-opacity:1;fill-rule:nonzero;stroke:none"
           id="path1354" />
        <path
           d="m 779.484,3839.48 c 0,0 -186.664,33.34 -216.664,-83.33 -30,-116.67 13.332,-273.33 -123.336,-250 0,0 -99.097,-20 -35.765,-176.67 0,0 -187.567,180 -77.567,310 89.739,106.06 53.332,336.67 273.332,373.34 220,36.66 180,-130 180,-173.34"
           style="fill:#7a3134;fill-opacity:1;fill-rule:nonzero;stroke:none"
           id="path1356" />
        <path
           d="m 779.484,3839.48 c 0,0 -186.664,33.34 -216.664,-83.33 -30,-116.67 13.332,-273.33 -123.336,-250 0,0 -99.097,-20 -35.765,-176.67 0,0 -187.567,180 -77.567,310 89.739,106.06 53.332,336.67 273.332,373.34 220,36.66 180,-130 180,-173.34"
           style="fill:#a1444b;fill-opacity:1;fill-rule:nonzero;stroke:none"
           id="path1358" />
        <path
           d="m 762.48,3839.48 c 0,0 186.665,33.34 216.665,-83.33 30.005,-116.67 -13.332,-273.33 123.335,-250 0,0 99.1,-20 35.77,-176.67 0,0 187.56,180 77.56,310 -89.73,106.06 -53.33,336.67 -273.33,373.34 -220,36.66 -180,-130 -180,-173.34"
           style="fill:#a1444b;fill-opacity:1;fill-rule:nonzero;stroke:none"
           id="path1360" />
        <path
           d="m 759.43,3867.02 c 13.082,0.3 25.402,-0.25 38.019,-1.19 12.539,-0.95 25.043,-2.49 37.5,-4.6 24.895,-4.21 49.641,-11.19 73.129,-22.35 23.238,-11.16 45.949,-27.29 60.606,-50.63 7.3,-11.54 12.367,-24.47 15.082,-37.65 2.765,-13.21 3.574,-25.33 4.379,-37.96 1.328,-24.98 0.621,-49.65 -0.438,-74.02 -0.93,-24.35 -2.16,-48.55 -0.527,-72.19 0.859,-11.79 2.476,-23.45 5.84,-34.37 3.347,-10.88 8.51,-21.03 16.45,-28.7 7.85,-7.74 18.36,-12.7 29.65,-15.29 11.31,-2.66 23.31,-3.09 35.25,-2.56 l 0.44,0.02 0.14,-0.02 c 7.64,-1.13 14.68,-3.17 21.66,-5.88 6.9,-2.76 13.55,-6.31 19.39,-10.96 5.8,-4.66 10.79,-10.48 13.81,-17.26 3.15,-6.72 4.13,-14.18 3.8,-21.39 -0.24,7.23 -1.81,14.44 -5.33,20.62 -3.4,6.25 -8.53,11.33 -14.32,15.28 -5.83,3.93 -12.35,6.77 -19.06,8.86 -6.69,2.05 -13.81,3.42 -20.55,3.93 h 0.57 c -12.32,-1.31 -24.94,-1.7 -37.58,0.43 -12.55,2.07 -25.34,6.96 -35.52,15.79 -10.226,8.76 -17.312,20.62 -21.629,32.79 -4.414,12.22 -6.722,24.79 -8.238,37.23 -2.918,24.95 -2.805,49.61 -3.055,73.98 -0.257,24.36 -0.238,48.51 -2.339,72.18 -1.106,11.65 -2.469,23.91 -5.118,34.49 -2.558,10.58 -6.871,20.55 -12.902,29.45 -12.129,17.8 -30.754,31.06 -51.41,40.45 -20.727,9.5 -43.543,15.22 -66.664,19.13 -11.586,1.92 -23.305,3.33 -35.074,4.19 -11.692,0.85 -23.762,1.31 -35.051,1.01 l -0.91,27.19"
           style="fill:#a1444b;fill-opacity:1;fill-rule:nonzero;stroke:none"
           id="path1362" />
      </g>
    </g>
  </g>
</svg>
