<?xml version="1.0" encoding="UTF-8" standalone="no"?>
<!-- Created with Inkscape (http://www.inkscape.org/) -->

<svg
   width="53.038872mm"
   height="65.083252mm"
   viewBox="0 0 200.46188 245.98395"
   version="1.1"
   id="svg5"
   xmlns="http://www.w3.org/2000/svg"
   xmlns:svg="http://www.w3.org/2000/svg">
  <defs
     id="defs2">
    <clipPath
       clipPathUnits="userSpaceOnUse"
       id="clipPath846">
      <path
         d="m 6126.52,576.512 c -59.38,-61.024 -152.19,-100.34 -256.58,-100.34 -104.39,0 -197.21,39.316 -256.58,100.34 C 5458.38,533.359 5077.34,457.281 5125.11,0 h 731.04 27.57 731.04 c 47.78,457.281 -333.27,533.359 -488.24,576.512"
         id="path844" />
    </clipPath>
    <clipPath
       clipPathUnits="userSpaceOnUse"
       id="clipPath1014">
      <path
         d="m 4376.88,594.449 c -33.69,18.082 -50.83,62.852 -59.21,111.063 -46.93,-10.481 -97.76,-16.25 -150.88,-16.25 -52.06,0 -101.94,5.519 -148.1,15.597 -8.42,-47.961 -25.56,-92.41 -59.1,-110.41 C 3872.12,547.52 3355.22,524.059 3410.88,0 h 743.34 28.04 743.33 c 55.67,524.059 -461.23,547.52 -548.71,594.449"
         id="path1012" />
    </clipPath>
    <clipPath
       clipPathUnits="userSpaceOnUse"
       id="clipPath846-3">
      <path
         d="m 6126.52,576.512 c -59.38,-61.024 -152.19,-100.34 -256.58,-100.34 -104.39,0 -197.21,39.316 -256.58,100.34 C 5458.38,533.359 5077.34,457.281 5125.11,0 h 731.04 27.57 731.04 c 47.78,457.281 -333.27,533.359 -488.24,576.512"
         id="path844-6" />
    </clipPath>
    <clipPath
       clipPathUnits="userSpaceOnUse"
       id="clipPath1014-7">
      <path
         d="m 4376.88,594.449 c -33.69,18.082 -50.83,62.852 -59.21,111.063 -46.93,-10.481 -97.76,-16.25 -150.88,-16.25 -52.06,0 -101.94,5.519 -148.1,15.597 -8.42,-47.961 -25.56,-92.41 -59.1,-110.41 C 3872.12,547.52 3355.22,524.059 3410.88,0 h 743.34 28.04 743.33 c 55.67,524.059 -461.23,547.52 -548.71,594.449"
         id="path1012-5" />
    </clipPath>
    <clipPath
       clipPathUnits="userSpaceOnUse"
       id="clipPath846-3-3">
      <path
         d="m 6126.52,576.512 c -59.38,-61.024 -152.19,-100.34 -256.58,-100.34 -104.39,0 -197.21,39.316 -256.58,100.34 C 5458.38,533.359 5077.34,457.281 5125.11,0 h 731.04 27.57 731.04 c 47.78,457.281 -333.27,533.359 -488.24,576.512"
         id="path844-6-5" />
    </clipPath>
    <clipPath
       clipPathUnits="userSpaceOnUse"
       id="clipPath1014-7-6">
      <path
         d="m 4376.88,594.449 c -33.69,18.082 -50.83,62.852 -59.21,111.063 -46.93,-10.481 -97.76,-16.25 -150.88,-16.25 -52.06,0 -101.94,5.519 -148.1,15.597 -8.42,-47.961 -25.56,-92.41 -59.1,-110.41 C 3872.12,547.52 3355.22,524.059 3410.88,0 h 743.34 28.04 743.33 c 55.67,524.059 -461.23,547.52 -548.71,594.449"
         id="path1012-5-2" />
    </clipPath>
  </defs>
  <g
     id="layer1"
     transform="translate(-67.322524,-162.09357)">
    <g
       id="g832"
       transform="matrix(0.1333333,0,0,-0.13333333,-7.1594478,676.05763)">
      <g
         id="g2130"
         transform="translate(-1174.775,-260.1491)">
        <path
           d="m 2817.05,3832.82 c -17.43,69.72 -59.02,87.35 -78.96,91.81 -11.49,179.61 -491.46,212.53 -497.7,178.19 -6.67,-36.67 170,-96.67 170,-96.67 0,0 -316.67,83.33 -300,10 13.54,-59.57 141.45,-53.15 188.98,-48.65 -66.83,-8.33 -295.31,-45.02 -192.32,-148.02 8.43,-8.42 17.59,-15.6 27.22,-21.87 -9.59,-127.69 28.29,-428.13 28.29,-428.13 h 26.66 l -10,206.67 c 51.67,10.33 75.29,132.76 83.31,187.33 87.48,-1.25 175.38,28.45 207.92,40.76 -19.61,-9.13 -50.55,-30.02 -16.73,-61.42 34.52,-32.05 158.34,7 220.48,29.5 11.43,-48.68 48.16,-185.23 102.87,-196.17 l -10,-206.67 h 26.65 c 0,0 46.67,370 23.33,463.34"
           style="fill:#fcd0b0;fill-opacity:1;fill-rule:nonzero;stroke:none"
           id="path1306" />
        <g
           id="g2105">
          <path
             d="m 2687.43,2856.03 c -84.82,46.26 -61.69,269.91 -61.69,269.91 l -127.03,-8.19 v 8.16 l -13.59,-4.08 -13.59,4.08 v -8.16 l -127.03,8.19 c 0,0 23.13,-223.65 -61.69,-269.91 -84.82,-46.27 -586.03,-69.4 -532.05,-586.03 h 720.77 27.18 720.78 c 53.97,516.63 -447.24,539.76 -532.06,586.03"
             style="fill:#a1444b;fill-opacity:1;fill-rule:nonzero;stroke:none"
             id="path1266" />
          <path
             d="m 2326.69,2913.72 c 101.47,15.12 202.86,30.73 304.19,46.81 -14.25,77.11 -5.14,165.41 -5.14,165.41 l -127.03,-8.19 v 8.16 l -13.59,-4.08 -13.59,4.08 v -8.16 l -127.03,8.19 c 0,0 13.39,-129.95 -17.81,-212.22"
             style="fill:#7a3134;fill-opacity:1;fill-rule:nonzero;stroke:none"
             id="path1268" />
          <path
             d="m 2794.14,2834.68 c -45.52,-118.81 -166.67,-203.8 -309.02,-203.8 -142.35,0 -263.5,84.99 -309.02,203.8 -174.71,-47.91 -481.85,-150.53 -438.58,-564.68 h 733.76 27.68 733.76 c 43.27,414.15 -263.87,516.77 -438.58,564.68"
             style="fill:#fde3e9;fill-opacity:1;fill-rule:nonzero;stroke:none"
             id="path1270" />
          <path
             d="m 3232.72,2270 h -13.23 v 0 h 13.23 c 0.03,0.2 0.04,0.38 0.06,0.58 -0.02,-0.19 -0.04,-0.39 -0.06,-0.58"
             style="fill:#e7e5e5;fill-opacity:1;fill-rule:nonzero;stroke:none"
             id="path1272" />
          <path
             d="M 3219.49,2270 H 1892.31 v 0 h 1327.18 v 0"
             style="fill:#943f48;fill-opacity:1;fill-rule:nonzero;stroke:none"
             id="path1274" />
          <path
             d="m 3232.81,2270.79 c 0.01,0.15 0.02,0.23 0.04,0.38 -0.02,-0.13 -0.03,-0.25 -0.04,-0.38 m 0.06,0.63 c 0.01,0.1 0.02,0.23 0.03,0.33 -0.01,-0.12 -0.02,-0.21 -0.03,-0.33 m 0.06,0.59 c 0.01,0.1 0.03,0.23 0.04,0.34 -0.01,-0.11 -0.03,-0.23 -0.04,-0.34 m 0.06,0.6 c 0.01,0.1 0.02,0.21 0.03,0.31 -0.01,-0.1 -0.02,-0.2 -0.03,-0.31 m 0.06,0.58 c 0.01,0.11 0.02,0.23 0.03,0.33 -0.01,-0.12 -0.02,-0.21 -0.03,-0.33 m 0.06,0.59 c 0.01,0.1 0.02,0.22 0.03,0.32 -0.01,-0.1 -0.02,-0.21 -0.03,-0.32 m 0.06,0.58 c 0.01,0.1 0.02,0.22 0.03,0.32 -0.01,-0.1 -0.02,-0.22 -0.03,-0.32 m 0.06,0.61 c 0.01,0.08 0.02,0.2 0.03,0.27 -0.01,-0.09 -0.02,-0.17 -0.03,-0.27 m 0.06,0.58 c 0,0.08 0.01,0.19 0.02,0.26 -0.01,-0.09 -0.02,-0.16 -0.02,-0.26 m 0.05,0.6 c 0.01,0.08 0.02,0.15 0.02,0.22 0,-0.08 -0.01,-0.14 -0.02,-0.22 m 0.06,0.57 c 0.01,0.08 0.01,0.16 0.02,0.24 -0.01,-0.07 -0.02,-0.17 -0.02,-0.24 m 0.05,0.59 c 0.01,0.05 0.02,0.13 0.02,0.18 -0.01,-0.07 -0.01,-0.11 -0.02,-0.18 m 0.06,0.58 v 0.04 c 0,-0.02 0,-0.03 0,-0.04 m 0.1,1.02 c 0,0.05 0,0.06 0.01,0.11 -0.01,-0.04 -0.01,-0.08 -0.01,-0.11 m 0.05,0.59 c 0,0.02 0.01,0.05 0.01,0.08 0,-0.03 -0.01,-0.06 -0.01,-0.08 m 0.05,0.5 c 0,0.05 0.01,0.11 0.01,0.16 0,-0.06 -0.01,-0.1 -0.01,-0.16 m 0.05,0.55 c 0,0.05 0.01,0.13 0.01,0.18 0,-0.06 -0.01,-0.12 -0.01,-0.18 m 0.05,0.57 c 0,0.05 0.01,0.14 0.02,0.19 -0.01,-0.07 -0.02,-0.12 -0.02,-0.19 m 0.05,0.58 c 0.01,0.08 0.01,0.09 0.02,0.16 -0.01,-0.06 -0.01,-0.1 -0.02,-0.16 m 0.05,0.59 c 0.01,0.05 0.01,0.09 0.02,0.14 -0.01,-0.04 -0.01,-0.1 -0.02,-0.14 m 0.05,0.57 c 0.01,0.05 0.01,0.07 0.02,0.12 -0.01,-0.04 -0.01,-0.07 -0.02,-0.12 m 0.05,0.56 c 0.01,0.07 0.01,0.08 0.02,0.15 -0.01,-0.05 -0.01,-0.1 -0.02,-0.15 m 0.05,0.59 c 0.01,0.02 0.01,0.05 0.01,0.07 0,-0.02 0,-0.05 -0.01,-0.07 m 0.06,0.58 v 0 0"
             style="fill:#e7e5e5;fill-opacity:1;fill-rule:nonzero;stroke:none"
             id="path1276" />
          <path
             d="M 3232.72,2270 H 1892.31 c 200.75,49.52 400.29,103.86 597.36,166.63 210.22,66.96 436.28,114.49 623.7,235.76 81.26,-81.56 136.68,-202.74 120.75,-387.8 v 0 c -0.02,-0.17 -0.03,-0.33 -0.05,-0.51 0,-0.02 0,-0.05 -0.01,-0.07 -0.01,-0.14 -0.02,-0.3 -0.03,-0.44 -0.01,-0.07 -0.01,-0.08 -0.02,-0.15 -0.01,-0.14 -0.02,-0.3 -0.03,-0.44 -0.01,-0.05 -0.01,-0.07 -0.02,-0.12 -0.01,-0.14 -0.02,-0.29 -0.03,-0.43 -0.01,-0.05 -0.01,-0.09 -0.02,-0.14 -0.01,-0.14 -0.02,-0.29 -0.03,-0.43 -0.01,-0.07 -0.01,-0.08 -0.02,-0.16 -0.01,-0.12 -0.02,-0.26 -0.03,-0.39 -0.01,-0.05 -0.02,-0.14 -0.02,-0.19 -0.01,-0.13 -0.02,-0.26 -0.04,-0.39 0,-0.05 -0.01,-0.13 -0.01,-0.18 -0.01,-0.13 -0.03,-0.26 -0.04,-0.39 0,-0.05 -0.01,-0.11 -0.01,-0.16 -0.02,-0.14 -0.03,-0.28 -0.04,-0.42 0,-0.03 -0.01,-0.06 -0.01,-0.08 -0.02,-0.17 -0.03,-0.32 -0.04,-0.48 -0.01,-0.05 -0.01,-0.06 -0.01,-0.11 -0.04,-0.33 -0.07,-0.66 -0.1,-0.98 v -0.04 c -0.01,-0.13 -0.03,-0.28 -0.04,-0.4 0,-0.05 -0.01,-0.13 -0.02,-0.18 -0.01,-0.12 -0.02,-0.23 -0.03,-0.35 -0.01,-0.08 -0.01,-0.16 -0.02,-0.24 -0.01,-0.12 -0.02,-0.23 -0.04,-0.35 0,-0.07 -0.01,-0.14 -0.02,-0.22 -0.01,-0.1 -0.02,-0.23 -0.03,-0.34 -0.01,-0.07 -0.02,-0.18 -0.02,-0.26 -0.01,-0.09 -0.03,-0.21 -0.03,-0.31 -0.01,-0.07 -0.02,-0.19 -0.03,-0.27 -0.01,-0.09 -0.02,-0.19 -0.03,-0.29 -0.01,-0.1 -0.02,-0.22 -0.03,-0.32 -0.01,-0.1 -0.02,-0.16 -0.03,-0.26 -0.01,-0.1 -0.02,-0.22 -0.03,-0.32 -0.01,-0.08 -0.02,-0.18 -0.03,-0.26 -0.01,-0.1 -0.02,-0.22 -0.03,-0.33 -0.01,-0.08 -0.02,-0.18 -0.03,-0.27 -0.01,-0.1 -0.02,-0.21 -0.03,-0.31 -0.01,-0.09 -0.01,-0.17 -0.02,-0.26 -0.01,-0.11 -0.03,-0.24 -0.04,-0.34 -0.01,-0.08 -0.02,-0.18 -0.03,-0.26 -0.01,-0.1 -0.02,-0.23 -0.03,-0.33 -0.01,-0.08 -0.02,-0.16 -0.02,-0.25 -0.02,-0.15 -0.03,-0.23 -0.04,-0.38 -0.01,-0.07 -0.02,-0.14 -0.03,-0.21 -0.02,-0.2 -0.03,-0.38 -0.06,-0.58"
             style="fill:#eccdd3;fill-opacity:1;fill-rule:nonzero;stroke:none"
             id="path1278" />
          <path
             d="M 2823.72,2826.33 V 2270 h 409 c 40.93,391.68 -231.52,504.68 -409,556.33"
             style="fill:#5b94c0;fill-opacity:1;fill-rule:nonzero;stroke:none"
             id="path1280" />
          <path
             d="M 2143.72,2825.52 C 1966.19,2773.49 1696.81,2659.61 1737.52,2270 h 406.2 v 555.52"
             style="fill:#5b94c0;fill-opacity:1;fill-rule:nonzero;stroke:none"
             id="path1282" />
          <path
             d="M 2148.62,2825.52 V 2270 c 0,0 -205,349.48 -195,469.48 10,120.01 175,127.07 195,86.04"
             style="fill:#6ec0e9;fill-opacity:1;fill-rule:nonzero;stroke:none"
             id="path1284" />
          <path
             d="M 2813.37,2825.52 V 2270 c 0,0 205,349.48 195,469.48 -10,120.01 -175,127.07 -195,86.04"
             style="fill:#6ec0e9;fill-opacity:1;fill-rule:nonzero;stroke:none"
             id="path1286" />
          <path
             d="m 2236.75,3453.3 c -24.99,77.53 -84.17,59.58 -89.71,57.71 -5.81,-0.68 -66.98,-9.76 -56.41,-90.54 10.63,-81.25 57.78,-125.29 101.98,-112.35 45.5,7.21 69.28,67.18 44.14,145.18"
             style="fill:#7a3134;fill-opacity:1;fill-rule:nonzero;stroke:none"
             id="path1288" />
          <path
             d="m 2735.77,3453.3 c 24.99,77.53 84.17,59.58 89.71,57.71 5.81,-0.68 66.98,-9.76 56.41,-90.54 -10.63,-81.25 -57.77,-125.29 -101.98,-112.35 -45.5,7.21 -69.28,67.18 -44.14,145.18"
             style="fill:#7a3134;fill-opacity:1;fill-rule:nonzero;stroke:none"
             id="path1290" />
          <path
             d="m 2176.12,3570.75 c 30.97,339.91 289.38,320.87 313.75,318.31 24.37,2.56 282.78,21.6 313.75,-318.31 31.15,-341.93 -121.15,-565.24 -313.75,-552.96 -192.6,-12.28 -344.9,211.03 -313.75,552.96"
             style="fill:#a1444b;fill-opacity:1;fill-rule:nonzero;stroke:none"
             id="path1292" />
          <path
             d="m 2534.43,3530.89 c 4.3,-15.59 7.61,-31.3 10.6,-47.05 2.96,-15.74 5.46,-31.54 7.69,-47.37 1.18,-7.91 2.01,-15.86 3.03,-23.78 1.04,-7.92 1.83,-15.87 2.59,-23.83 1.67,-15.88 2.84,-31.83 3.78,-47.8 l 0.26,-4.3 -3.1,-1.91 c -10.18,-6.28 -20.51,-12.33 -30.93,-18.25 -10.51,-5.79 -20.99,-11.63 -31.93,-16.79 8.76,8.34 17.99,16.01 27.17,23.73 9.28,7.58 18.65,15.03 28.17,22.26 l -2.84,-6.2 c -2.58,15.79 -4.92,31.6 -6.77,47.47 -0.99,7.93 -1.96,15.86 -2.67,23.82 -0.74,7.96 -1.68,15.89 -2.25,23.86 -1.29,15.94 -2.3,31.9 -2.86,47.91 -0.53,16.02 -0.73,32.07 0.06,48.23"
             style="fill:#7a3134;fill-opacity:1;fill-rule:nonzero;stroke:none"
             id="path1294" />
          <path
             d="m 2621.61,3238.75 c -61.52,-59.8 -165.73,-56.49 -244.66,-3.2"
             style="fill:#ffffff;fill-opacity:1;fill-rule:nonzero;stroke:none"
             id="path1296" />
          <path
             d="m 2733.56,3556.09 c 0,0 -2.69,1.49 -7.4,4.1 -2.29,1.25 -5.07,2.77 -8.25,4.52 -3.12,1.65 -6.64,3.51 -10.49,5.54 -3.97,1.7 -7.93,3.99 -12.38,5.73 -2.15,0.96 -4.36,1.94 -6.62,2.95 -2.27,0.83 -4.6,1.68 -6.97,2.54 -4.6,2.04 -9.62,2.79 -14.4,4.48 -4.95,0.51 -9.82,2.4 -14.77,2.2 l -7.37,0.6 c -2.42,-0.29 -4.85,-0.37 -7.28,-0.5 -4.92,0.2 -9.49,-1.63 -14.24,-2.21 -4.73,-0.75 -8.98,-3.04 -13.43,-4.22 l -3.29,-1.02 -2.99,-1.51 c -2.03,-0.95 -4,-1.87 -5.89,-2.75 -3.75,-1.86 -7.6,-3.21 -10.5,-5.23 -2.98,-1.87 -5.81,-3.34 -8.14,-4.61 -4.67,-2.53 -7.66,-3.85 -7.66,-3.85 0,0 1.19,2.84 3.82,7.6 1.33,2.36 2.93,5.32 5.04,8.52 1.86,3.44 4.81,6.58 8.16,9.99 3.46,3.25 6.58,7.75 11.48,10.59 4.78,2.92 9.51,6.88 15.45,9.08 2.93,1.19 5.99,2.26 9.1,3.35 3.05,1.31 6.34,1.87 9.71,2.25 3.35,0.46 6.74,0.98 10.16,1.3 3.4,-0.04 6.83,-0.29 10.25,-0.48 6.94,-0.14 13.35,-2.44 19.78,-4 3.09,-1.12 6.04,-2.45 8.97,-3.73 2.97,-1.19 5.76,-2.58 8.31,-4.28 2.6,-1.61 5.17,-3.11 7.59,-4.74 2.26,-1.79 4.48,-3.54 6.64,-5.25 4.37,-3.29 7.68,-7.34 11,-10.65 6.22,-7.09 10.51,-13.61 13.04,-18.48 2.63,-4.8 3.57,-7.83 3.57,-7.83"
             style="fill:#29202e;fill-opacity:1;fill-rule:nonzero;stroke:none"
             id="path1298" />
          <path
             d="m 2411.67,3556.09 c 0,0 -2.69,1.49 -7.4,4.1 -2.29,1.25 -5.06,2.77 -8.25,4.52 -3.12,1.65 -6.64,3.51 -10.48,5.54 -3.98,1.7 -7.94,3.99 -12.38,5.73 -2.16,0.96 -4.37,1.94 -6.62,2.95 -2.28,0.83 -4.61,1.68 -6.98,2.54 -4.6,2.04 -9.62,2.79 -14.39,4.48 -4.96,0.51 -9.83,2.4 -14.78,2.2 l -7.37,0.6 c -2.42,-0.29 -4.85,-0.37 -7.27,-0.5 -4.93,0.2 -9.5,-1.63 -14.25,-2.21 -4.73,-0.75 -8.98,-3.04 -13.43,-4.22 l -3.28,-1.02 -3,-1.51 c -2.03,-0.95 -4,-1.87 -5.89,-2.75 -3.75,-1.86 -7.6,-3.21 -10.49,-5.23 -2.98,-1.87 -5.82,-3.34 -8.14,-4.61 -4.67,-2.53 -7.67,-3.85 -7.67,-3.85 0,0 1.19,2.84 3.82,7.6 1.33,2.36 2.93,5.32 5.04,8.52 1.86,3.44 4.81,6.58 8.16,9.99 3.46,3.25 6.58,7.75 11.48,10.59 4.78,2.92 9.51,6.88 15.45,9.08 2.93,1.19 5.99,2.26 9.1,3.35 3.06,1.31 6.35,1.87 9.71,2.25 3.35,0.46 6.74,0.98 10.16,1.3 3.41,-0.04 6.83,-0.29 10.25,-0.48 6.94,-0.14 13.35,-2.44 19.79,-4 3.08,-1.12 6.03,-2.45 8.96,-3.73 2.97,-1.19 5.77,-2.58 8.31,-4.28 2.6,-1.61 5.18,-3.11 7.59,-4.74 2.27,-1.79 4.48,-3.54 6.64,-5.25 4.38,-3.29 7.69,-7.34 11,-10.65 6.22,-7.09 10.51,-13.61 13.04,-18.48 2.63,-4.8 3.57,-7.83 3.57,-7.83"
             style="fill:#29202e;fill-opacity:1;fill-rule:nonzero;stroke:none"
             id="path1300" />
          <path
             d="m 2401.46,3432.92 c 0,0 -0.7,2.76 -2.27,7.38 -1.57,4.62 -4.01,11.12 -7.82,18.24 -3.86,7.06 -9.25,14.74 -16.76,20.34 -3.71,2.83 -7.96,5.08 -12.57,6.48 -2.27,0.8 -4.59,1.55 -7.1,1.71 -2.45,0.33 -4.87,0.85 -7.45,0.59 -2.38,-0.09 -5.41,0.22 -7.26,-0.13 -2.6,-0.5 -5.86,-0.62 -7.87,-1.42 -4.06,-1.32 -8.68,-2.87 -12.17,-5.77 -3.74,-2.57 -6.63,-6.08 -9.23,-9.56 -2.34,-3.69 -4.34,-7.45 -5.81,-11.17 -2.9,-7.46 -4.37,-14.26 -5.23,-19.05 -0.85,-4.8 -1.1,-7.64 -1.1,-7.64 0,0 -0.76,2.74 -1.27,7.72 -0.46,4.97 -0.76,12.23 1.02,20.91 0.86,4.34 2.35,9 4.68,13.72 2.54,4.56 5.61,9.52 10.32,13.25 4.42,4.01 9.93,6.96 16.33,8.86 3.18,1.09 5.58,1.12 8.42,1.74 3.64,0.64 6.26,0.32 9.45,0.48 3.05,0.18 6.12,-0.46 9.18,-0.97 3.08,-0.33 6.03,-1.31 8.94,-2.4 3,-0.83 5.66,-2.39 8.25,-3.98 2.71,-1.39 4.91,-3.43 7.15,-5.29 8.76,-7.77 13.63,-17.47 16.35,-25.72 2.79,-8.33 3.58,-15.53 3.87,-20.5 0.25,-4.99 -0.05,-7.82 -0.05,-7.82"
             style="fill:#29202e;fill-opacity:1;fill-rule:nonzero;stroke:none"
             id="path1302" />
          <path
             d="m 2690.72,3437.59 c 0,0 -0.7,2.76 -2.27,7.38 -1.57,4.61 -4.01,11.12 -7.82,18.24 -3.86,7.06 -9.25,14.74 -16.76,20.33 -3.71,2.83 -7.96,5.09 -12.57,6.49 -2.28,0.8 -4.59,1.54 -7.1,1.71 -2.45,0.33 -4.88,0.84 -7.45,0.59 -2.38,-0.1 -5.41,0.21 -7.26,-0.13 -2.6,-0.5 -5.86,-0.63 -7.87,-1.42 -4.06,-1.33 -8.69,-2.87 -12.18,-5.78 -3.74,-2.56 -6.62,-6.07 -9.22,-9.55 -2.34,-3.69 -4.35,-7.46 -5.81,-11.18 -2.9,-7.46 -4.37,-14.25 -5.23,-19.04 -0.85,-4.8 -1.1,-7.64 -1.1,-7.64 0,0 -0.76,2.74 -1.27,7.72 -0.47,4.96 -0.76,12.23 1.02,20.9 0.86,4.34 2.35,9.01 4.68,13.72 2.54,4.57 5.61,9.52 10.32,13.25 4.42,4.02 9.93,6.97 16.33,8.87 3.17,1.08 5.57,1.12 8.42,1.73 3.64,0.64 6.26,0.32 9.45,0.49 3.04,0.17 6.12,-0.47 9.18,-0.97 3.08,-0.34 6.03,-1.31 8.94,-2.41 2.99,-0.83 5.66,-2.38 8.25,-3.98 2.71,-1.38 4.9,-3.43 7.15,-5.28 8.76,-7.77 13.63,-17.47 16.35,-25.73 2.79,-8.32 3.58,-15.52 3.87,-20.49 0.25,-5 -0.05,-7.82 -0.05,-7.82"
             style="fill:#29202e;fill-opacity:1;fill-rule:nonzero;stroke:none"
             id="path1304" />
          <path
             d="m 2817.05,3832.82 c -17.43,69.72 -59.02,87.35 -78.96,91.81 -2.1,32.83 -19.9,60.74 -47.55,84.25 -14.93,-121.81 -104.07,-225.36 -217.2,-275.49 48.69,-11.83 147.47,19.59 200.86,38.93 11.43,-48.68 48.16,-185.23 102.87,-196.17 l -10,-206.67 h 26.65 c 0,0 46.67,370 23.33,463.34"
             style="fill:#d6ac92;fill-opacity:1;fill-rule:nonzero;stroke:none"
             id="path1308" />
        </g>
      </g>
    </g>
  </g>
</svg>
